<svg width="350" height="350" viewBox="0 0 350 350" fill="none" xmlns="http://www.w3.org/2000/svg">
<g clip-path="url(#clip0)">
<path d="M65.7656 55.728L71.4313 53.6829L72.9196 56.7122L73.6073 63.9518L72.3397 64.8112L65.7656 55.728Z" fill="black"/>
<path d="M93.2946 69.9863L86.8232 73.4861L93.6231 82.867L95.2089 81.7868L96.1942 74.3407L93.2946 69.9863Z" fill="black"/>
<g opacity="0.05">
<path opacity="0.05" d="M106.868 26.2844C105.565 28.1279 104.348 30.1251 103.974 31.5269L105 30.8644C104.872 29.8226 105.718 28.0943 106.868 26.2844Z" fill="black"/>
<path opacity="0.05" d="M112.703 51.3737L113.416 37.3408C97.507 46.7841 74.2284 55.4016 74.2284 55.4016L73.1045 57.0675C73.1045 57.0675 96.4087 48.45 112.292 39.0067L111.625 52.2234L112.703 51.3737Z" fill="black"/>
</g>
<g opacity="0.5">
<path opacity="0.5" d="M71.0572 65.493L72.3607 64.6049L71.6576 57.1492L70.1231 54.0334L64.2881 56.141L71.0572 65.493Z" fill="url(#paint0_linear)"/>
<path opacity="0.5" d="M159.902 0.902641C156.355 -0.691235 153.702 0.0576946 151.844 1.38272C150.186 2.55104 148.891 4.11221 148.093 5.90511L147.58 7.17733L145.178 8.80962L144.398 7.24934C144.398 7.24934 135.894 -6.88431 110.809 20.7157L110.696 20.6293C110.696 20.6293 108.561 23.0729 106.616 25.8142L106.339 26.2078L106.216 26.3855L106.042 26.6399L105.913 26.8319L105.718 27.1344L105.549 27.3936L105.369 27.6769L105.241 27.8833L105.108 28.0994L104.979 28.3154L104.846 28.5458L104.651 28.8915L104.543 29.0835L104.425 29.3092L104.338 29.482L104.225 29.7076L104.153 29.8565C104.092 29.9909 104.033 30.1221 103.979 30.2501L103.917 30.399L103.835 30.6102L103.784 30.7542C103.746 30.863 103.712 30.9703 103.681 31.0759C103.681 31.1335 103.645 31.1863 103.635 31.2391C103.534 31.5762 103.496 31.9269 103.522 32.2761L70.123 54.0191L71.8371 57.5045C71.8371 57.5045 95.8393 48.6325 112.2 38.9012L111.512 52.5116L111.471 53.3518C111.471 53.3518 96.527 64.9266 92.637 70.822L85.9654 74.4274L92.9705 84.0867L94.6025 82.9777L95.6289 75.2964L123.049 54.792C123.049 54.792 128.248 45.9057 128.34 38.4692L129.464 42.5259C129.464 42.5259 131.855 48.8102 133.544 49.0598C135.232 49.3095 135.237 44.187 134.057 42.6651C132.877 41.1432 133.431 30.9751 133.431 30.9751L133.739 28.9059L138.029 25.987L138.188 25.8478L138.414 27.1248L139.276 27.1968V27.2544L139.317 27.6241L139.872 37.317L142.91 48.2821C142.91 48.2821 145.301 54.5664 146.99 54.816C148.678 55.0657 148.683 49.9432 147.503 48.4213C146.322 46.8994 146.882 36.7361 146.882 36.7361L148.134 28.2722V28.109L148.16 27.9217L150.628 28.1234C150.628 28.1234 153.194 19.8707 148.899 16.2749L148.119 14.7146L149.72 13.6297L150.043 13.4136C151.4 14.6554 153.223 15.3508 155.121 15.3508C157.02 15.3508 158.842 14.6554 160.199 13.4136C161.4 13.5181 162.601 13.2185 163.586 12.5687L164.207 12.151C164.875 11.7542 165.479 11.2691 165.998 10.7107C166.435 9.95221 165.393 3.36547 159.902 0.902641Z" fill="url(#paint1_linear)"/>
</g>
<path d="M110.85 21.2532C110.85 21.2532 103.547 29.6066 103.891 32.5351L71.4365 53.6828L73.0993 57.0674C73.0993 57.0674 96.4035 48.4499 112.287 39.0067L111.579 53.0587C111.579 53.0587 97.0707 64.2782 93.2987 70.0056L96.1983 74.36L122.823 54.4509C122.823 54.4509 130.721 40.951 126.928 33.5865L110.85 21.2532Z" fill="#535461"/>
<path d="M344.76 225.889C321.384 313.59 226.422 366.971 132.651 345.098C38.8799 323.226 -18.1465 234.386 5.24501 146.675C28.6365 58.9637 123.573 5.57838 217.313 27.4462C311.054 49.314 368.136 138.163 344.76 225.889Z" fill="#F7931A"/>
<path d="M252.164 162.95C255.649 141.164 237.918 129.455 213.674 121.663L221.542 92.1521L202.338 87.6729L194.676 116.382C189.626 115.206 184.443 114.097 179.28 112.992L186.978 84.0675L167.815 79.5979L159.943 109.099C155.765 108.211 151.66 107.328 147.682 106.401V106.31L121.217 100.107L116.085 119.31C116.085 119.31 130.331 122.364 130.034 122.556C137.808 124.37 139.215 129.186 138.984 133.002L130.023 166.608C130.702 166.767 131.369 166.967 132.02 167.208C131.378 167.059 130.696 166.896 129.967 166.728L117.409 213.824C116.459 216.033 114.047 219.35 108.608 218.092C108.797 218.352 94.6486 214.833 94.6486 214.833L85.1904 235.419L110.152 241.252C114.802 242.341 119.359 243.484 123.844 244.555L115.9 274.377L135.083 278.856L142.956 249.327C148.196 250.656 153.281 251.885 158.259 253.042L150.418 282.438L169.622 286.917L177.566 257.138C210.313 262.932 234.936 260.594 245.308 232.889C253.657 210.579 244.892 197.713 227.664 189.321C240.176 186.618 249.644 178.898 252.164 162.95ZM208.291 220.502C202.358 242.812 162.206 230.752 149.191 227.704L159.737 188.159C172.752 191.222 214.516 197.238 208.291 220.502ZM214.229 162.624C208.814 182.917 175.395 172.604 164.556 170.079L174.117 134.193C184.961 136.742 219.869 141.461 214.229 162.624V162.624Z" fill="white"/>
<path d="M138.301 22.6743L139.142 37.4609L142.088 48.1043C142.088 48.1043 144.408 54.2062 146.05 54.4462C147.692 54.6863 147.697 49.7126 146.563 48.234C145.429 46.7553 145.973 36.8896 145.973 36.8896L147.8 24.3354L138.301 22.6743Z" fill="#FDA57D"/>
<path d="M137.32 25.1514L137.746 27.5518L149.622 28.512C149.622 28.512 152.105 20.4994 147.938 16.99L137.32 25.1514Z" fill="#F55F44"/>
<path d="M147.94 17.0236L143.552 8.26208C143.552 8.26208 135.264 -5.51151 110.784 21.5076L126.929 33.5673L137.378 26.462L147.94 17.0236Z" fill="#F55F44"/>
<path d="M151.397 4.9646L155.302 9.9898L146.779 15.7845C146.185 16.1887 145.443 16.3555 144.717 16.248C143.991 16.1406 143.34 15.7678 142.908 15.2116L142.265 14.3844C141.833 13.8282 141.655 13.1343 141.77 12.4551C141.885 11.776 142.283 11.1674 142.878 10.7632L151.4 4.96849L151.397 4.9646Z" fill="#FDA57D"/>
<path opacity="0.05" d="M146.867 8.04589C146.533 9.17257 146.53 10.3627 146.859 11.4907C147.188 12.6188 147.836 13.6429 148.735 14.455L152.764 11.7137L148.858 6.68726L146.867 8.04589Z" fill="black"/>
<path d="M158.108 14.851C161.255 12.7107 161.957 8.59369 159.674 5.65535C157.391 2.717 152.988 2.07004 149.84 4.21034C146.693 6.35063 145.991 10.4677 148.274 13.406C150.557 16.3444 154.96 16.9913 158.108 14.851Z" fill="#FDA57D"/>
<path opacity="0.05" d="M150.715 5.6505L146.646 8.19495L147.159 6.95633C147.159 6.95633 150.505 -1.20509 158.305 2.31392C163.637 4.71434 164.648 11.0995 164.243 11.8292C163.641 12.4416 162.95 12.9717 162.19 13.4039C161.189 14.0675 159.959 14.3558 158.741 14.2118C157.524 14.0678 156.409 13.502 155.616 12.6261C154.251 11.1043 151.87 7.9549 152.306 6.14979C151.906 5.46807 151.382 5.18962 150.71 5.66971L150.715 5.6505Z" fill="black"/>
<path d="M151.034 5.43444L146.964 7.97888L147.477 6.74026C147.477 6.74026 150.823 -1.42115 158.624 2.09786C163.956 4.49828 164.967 10.8834 164.561 11.6131C163.96 12.2255 163.268 12.7556 162.509 13.1878C161.508 13.8514 160.277 14.1397 159.06 13.9957C157.843 13.8517 156.727 13.2859 155.935 12.4101C154.569 10.8882 152.188 7.73884 152.624 5.93372C152.224 5.252 151.701 4.97356 151.028 5.45364L151.034 5.43444Z" fill="#5A2F32"/>
<path d="M152.408 5.85729C153.108 5.38017 153.47 4.72875 153.216 4.40231C152.961 4.07587 152.188 4.19801 151.488 4.67514C150.787 5.15226 150.426 5.8037 150.68 6.13014C150.934 6.45658 151.708 6.33442 152.408 5.85729Z" fill="#FDA57D"/>
<path opacity="0.05" d="M136.013 26.2653L137.876 24.7722L137.896 27.1294L137.491 26.2221L136.013 26.2653Z" fill="black"/>
<path opacity="0.05" d="M138.568 27.6863L138.609 28.0511L147.175 28.6753L147.226 28.3344L138.568 27.6863Z" fill="black"/>
<path d="M125.256 17.0908L126.097 31.8774L129.043 42.4968C129.043 42.4968 131.363 48.5987 133.005 48.8387C134.647 49.0788 134.652 44.1051 133.518 42.6265C132.384 41.1478 132.918 31.3061 132.918 31.3061L134.776 18.7519L125.256 17.0908Z" fill="#FDA57D"/>
<path d="M195.128 129.992H194.235V130.828H195.128V129.992Z" fill="#CCCCCC"/>
<path d="M193.654 131.25H195.861C196.019 131.25 196.176 131.279 196.323 131.336C196.469 131.393 196.602 131.476 196.714 131.58C196.826 131.685 196.915 131.81 196.975 131.946C197.036 132.083 197.067 132.23 197.067 132.378V139.335H192.448V132.378C192.448 132.23 192.479 132.083 192.54 131.946C192.601 131.81 192.689 131.685 192.801 131.58C192.913 131.476 193.046 131.393 193.193 131.336C193.339 131.279 193.496 131.25 193.654 131.25Z" fill="#535461"/>
<path d="M196.026 130.693H193.342V131.25H196.026V130.693Z" fill="#F7931A"/>
<path d="M197.067 134.452H192.448V136.123H197.067V134.452Z" fill="#F7931A"/>
<path d="M195.133 130.131V130.549C194.968 130.549 194.835 130.453 194.835 130.338C194.835 130.223 194.968 130.131 195.133 130.131Z" fill="#E6E6E6"/>
<path opacity="0.05" d="M126.2 9.89941C126.2 9.89941 124.239 14.8491 125.071 16.539Z" fill="black"/>
<path opacity="0.05" d="M125.296 16.8364L125.291 17.7534L134.698 19.232L134.811 18.4975L125.296 16.8364Z" fill="black"/>
<path d="M127.422 9.29422L125.256 17.0908L134.77 18.7519L137.285 8.91016L127.422 9.29422Z" fill="#F55F44"/>
<g opacity="0.5">
<path opacity="0.5" d="M127.098 36.2991L128.971 42.9338C128.971 42.9338 131.388 49.1749 133.076 49.4102C134.765 49.6454 134.79 44.5757 133.59 43.0683C132.958 42.2761 132.825 39.1172 132.835 36.2991H127.098Z" fill="url(#paint2_linear)"/>
</g>
<path d="M127.247 36.2991L129.048 42.7946C129.048 42.7946 131.368 48.8965 133.01 49.1365C134.652 49.3765 134.658 44.4029 133.523 42.9242C132.918 42.1465 132.79 39.0548 132.8 36.2991H127.247Z" fill="#FDA57D"/>
<g opacity="0.5">
<path opacity="0.5" d="M146.296 36.0254H138.804L138.906 37.7825L142.027 48.738C142.027 48.738 144.485 55.0175 146.219 55.2671C147.954 55.5168 147.959 50.3943 146.733 48.8772C145.506 47.3602 146.122 37.216 146.122 37.216L146.296 36.0254Z" fill="url(#paint3_linear)"/>
</g>
<path d="M146.128 36.0254H139.046L139.143 37.7345L142.089 48.3779C142.089 48.3779 144.409 54.4798 146.051 54.7198C147.693 54.9599 147.698 49.9862 146.564 48.5076C145.43 47.0289 145.974 37.1632 145.974 37.1632L146.128 36.0254Z" fill="#FDA57D"/>
<path opacity="0.2" d="M195.015 130.103L207.845 127.702L208.358 133.463L195.015 130.583V130.103Z" fill="#535461"/>
<g opacity="0.5">
<path opacity="0.5" d="M175.657 131.879L176.011 132.023L187.302 136.569L201.686 120.606C201.686 120.606 203.868 118.326 201.271 116.766C198.674 115.205 197.042 119.243 197.042 119.243L185.988 130.352L176.596 125.959L176.745 125.038L168.185 120.41C168.019 120.118 167.837 119.834 167.641 119.56L167.564 119.301L167.138 118.95C167.056 118.868 166.974 118.792 166.892 118.724L168.308 117.284C169.362 117.63 170.484 117.754 171.595 117.649C172.706 117.544 173.779 117.212 174.738 116.676C175.696 116.14 176.517 115.414 177.143 114.548C177.768 113.683 178.182 112.699 178.357 111.667C179.019 111.785 179.7 111.785 180.363 111.667C181.235 111.496 182.049 111.13 182.737 110.601C183.425 110.072 183.966 109.395 184.315 108.628C184.286 108.68 184.244 108.725 184.193 108.759C184.142 108.793 184.084 108.816 184.022 108.825C184.132 108.646 184.23 108.46 184.315 108.268C184.022 108.931 181.287 108.019 180.876 107.788C179.624 107.164 178.978 106.242 178.31 105.109C177.032 102.872 174.672 102.046 172.013 101.85C169.982 101.644 167.928 101.885 166.014 102.555C165.061 102.896 164.194 103.418 163.467 104.088C162.74 104.758 162.169 105.562 161.791 106.449C161.562 107.057 161.457 107.7 161.483 108.345C161.439 109.035 161.561 109.726 161.84 110.366C162.119 111.007 162.547 111.581 163.094 112.046C163.187 112.122 163.285 112.192 163.387 112.258C163.443 112.464 163.505 112.666 163.582 112.867L163.207 113.247L160.774 115.714L160.651 115.681L135.027 119.267V119.315C134.175 118.787 130.316 116.953 120.684 119.445C117.045 120.405 110.984 120.285 104.477 119.723C99.9298 114.433 96.9944 97.956 96.9944 97.956L95.8448 93.2944L80.9262 96.5206C80.9262 96.5206 87.8081 97.9608 88.9577 99.7468C90.7077 100.294 91.7906 112.522 92.2062 118.292C83.2715 117.001 75.9533 115.522 75.9533 115.522L70.6007 113.732L66.7773 126.281C66.7773 126.281 70.9856 121.96 74.8089 121.619C74.8089 121.619 93.9306 130.222 108.085 128.432C113.596 127.736 118.923 129.915 123.383 130.583C127.287 131.191 131.23 131.551 135.186 131.658L135.233 135.599C135.233 135.599 150.983 134.966 161.329 131.893C162.114 133.881 162.745 135.316 162.966 135.422L164.844 134.562L175.395 146.713L196.041 138.821C196.041 138.821 199.12 137.745 197.581 135.235C196.041 132.724 192.608 135.595 192.608 135.595L177.31 140.611L170.854 132.239L170.602 131.912L171.957 131.293C171.957 131.293 171.916 131.106 171.834 130.784L175.395 133.444L175.657 131.879Z" fill="url(#paint4_linear)"/>
</g>
<path d="M163.177 121.619L158.45 117.52L166.276 109.584L171.003 113.679L163.177 121.619Z" fill="#FDA57D"/>
<path opacity="0.05" d="M165.901 109.929L162.447 113.434C162.82 114.419 163.424 115.313 164.216 116.05C165.007 116.787 165.965 117.348 167.02 117.692L170.612 114.029L165.901 109.929Z" fill="black"/>
<path d="M166.917 128.485L185.869 136.113L199.874 120.587C199.874 120.587 201.994 118.369 199.469 116.852C196.944 115.335 195.363 119.253 195.363 119.253L184.586 130.045L170.756 123.583L166.917 128.485Z" fill="#FDA57D"/>
<path d="M165.921 119.656L175.595 124.884L174.291 133.079L165.177 126.281L165.921 119.656Z" fill="#6C63FF"/>
<path d="M169.827 117.741C173.937 117.741 177.268 114.617 177.268 110.765C177.268 106.912 173.937 103.789 169.827 103.789C165.717 103.789 162.386 106.912 162.386 110.765C162.386 114.617 165.717 117.741 169.827 117.741Z" fill="#FDA57D"/>
<path d="M163.71 116.867L159.989 115.82L135.048 119.31L135.233 135.153C135.233 135.153 165.552 133.934 168.898 126.612L166.666 119.31L163.71 116.867Z" fill="#6C63FF"/>
<path opacity="0.05" d="M165.47 126.492L174.292 133.079L174.666 130.29L165.921 122.445L165.47 126.492Z" fill="black"/>
<path d="M135.232 119.478C135.232 119.478 131.886 116.689 121.099 119.478C110.311 122.268 77.5743 115.638 77.5743 115.638L76.4658 121.572C76.4658 121.572 95.0641 129.939 108.828 128.197C114.186 127.52 119.369 129.637 123.711 130.29C127.521 130.879 131.371 131.22 135.232 131.312V119.478Z" fill="#4D8AF0"/>
<path d="M77.5744 115.642L72.3603 113.9L68.6396 126.103C68.6396 126.103 72.7452 121.917 76.4505 121.571L77.5744 115.642Z" fill="#535461"/>
<path d="M90.2197 100.304L98.0203 98.561C98.0203 98.561 101.741 119.483 107.319 121.226H93.5709C93.5709 121.226 92.4521 101 90.2197 100.304Z" fill="#4D8AF0"/>
<path d="M98.0211 98.561L96.9075 94.0291L82.3994 97.1688C82.3994 97.1688 89.071 98.5659 90.2103 100.309L98.0211 98.561Z" fill="#535461"/>
<path opacity="0.05" d="M171.012 102.699C169.036 102.499 167.038 102.734 165.177 103.386C164.25 103.718 163.407 104.226 162.7 104.878C161.993 105.53 161.439 106.311 161.071 107.174C160.404 108.921 160.835 111.067 162.344 112.267C162.702 112.584 163.162 112.779 163.653 112.824C164.443 112.853 165.105 112.311 165.705 111.84C166.845 110.96 168.101 110.219 169.441 109.637C170.581 109.156 171.971 108.772 173.034 109.382C173.514 109.716 173.95 110.103 174.332 110.534C174.947 111.106 175.703 111.527 176.533 111.761C177.364 111.995 178.243 112.033 179.093 111.874C179.943 111.715 180.738 111.362 181.408 110.847C182.077 110.332 182.601 109.671 182.933 108.921C182.646 109.569 179.988 108.676 179.587 108.48C178.366 107.875 177.74 106.977 177.114 105.878C175.892 103.693 173.593 102.891 171.012 102.699Z" fill="black"/>
<path d="M171.012 102.354C169.036 102.154 167.038 102.389 165.177 103.04C164.25 103.372 163.407 103.88 162.7 104.532C161.993 105.184 161.439 105.966 161.071 106.828C160.404 108.576 160.835 110.721 162.344 111.922C162.702 112.238 163.162 112.434 163.653 112.479C164.443 112.507 165.105 111.965 165.705 111.494C166.845 110.614 168.101 109.874 169.441 109.291C170.581 108.811 171.971 108.427 173.034 109.036C173.514 109.37 173.95 109.757 174.332 110.189C174.947 110.76 175.703 111.182 176.533 111.415C177.364 111.649 178.243 111.688 179.093 111.528C179.943 111.369 180.738 111.016 181.408 110.501C182.077 109.986 182.601 109.325 182.933 108.576C182.646 109.224 179.988 108.331 179.587 108.134C178.366 107.529 177.74 106.631 177.114 105.532C175.892 103.347 173.593 102.541 171.012 102.354Z" fill="black"/>
<path d="M167.953 110.188C168.096 109.626 167.968 109.116 167.667 109.049C167.367 108.982 167.007 109.384 166.865 109.946C166.722 110.509 166.85 111.019 167.151 111.085C167.451 111.152 167.811 110.75 167.953 110.188Z" fill="#FDA57D"/>
<path opacity="0.05" d="M164.028 134.159L164.28 134.447L169.874 131.908L169.627 131.591L164.028 134.159Z" fill="black"/>
<path opacity="0.05" d="M175.452 125.782L174.538 131.509L174.877 131.692L175.595 125.844L175.452 125.782Z" fill="black"/>
<path d="M146.02 111.11H141.556V139.354H146.02V111.11Z" fill="#E0E0E0"/>
<path d="M137.584 33.3704L133.352 32.0403L123.737 58.8131L127.969 60.1432L137.584 33.3704Z" fill="#E0E0E0"/>
<path d="M144.531 114.25H143.043V46.0496L144.511 46.1216L144.531 114.25Z" fill="#E0E0E0"/>
<path d="M161.272 130.986L174.292 145.979L194.379 138.297C194.379 138.297 197.355 137.251 195.867 134.812C194.379 132.373 191.033 135.162 191.033 135.162L176.15 140.045L167.097 128.307L161.272 130.986Z" fill="#FDA57D"/>
<path d="M155.879 118.609C155.879 118.609 161.457 134.649 162.201 134.995L170.926 130.986C170.926 130.986 168.447 120.17 165.686 118.504C162.925 116.838 156.254 117.212 155.879 118.609Z" fill="#6C63FF"/>
<path opacity="0.05" d="M157.469 123.107C157.469 123.107 157.176 129.243 159.039 130.309Z" fill="black"/>
<path d="M143.053 46.1212L136.341 36.8412L137.044 34.8777L144.511 46.1212H143.053Z" fill="#E0E0E0"/>
<path d="M177.169 113.304L176.198 112.701L174.571 114.992L175.541 115.596L177.169 113.304Z" fill="black"/>
<path d="M175.809 113.197L168.617 108.723L168.293 109.179L175.486 113.652L175.809 113.197Z" fill="black"/>
<g opacity="0.7">
<path opacity="0.7" d="M310.104 294.723H291.465V307.609H310.104V294.723Z" fill="url(#paint5_linear)"/>
<g opacity="0.1">
<path opacity="0.1" d="M291.465 298.137C291.465 298.137 298.419 298.895 300.784 298.895C303.15 298.895 310.104 298.137 310.104 298.137V294.915H291.465V298.137Z" fill="url(#paint6_linear)"/>
</g>
<path opacity="0.7" d="M310.104 297.944C310.104 297.944 303.15 298.703 300.784 298.703C298.419 298.703 291.465 297.944 291.465 297.944V285.246C291.465 282.934 292.447 280.716 294.194 279.081C295.942 277.446 298.313 276.528 300.784 276.528C303.256 276.528 305.627 277.446 307.374 279.081C309.122 280.716 310.104 282.934 310.104 285.246V297.944Z" fill="url(#paint7_linear)"/>
<path opacity="0.7" d="M300.785 278.996C300.194 278.996 299.628 278.776 299.21 278.385C298.792 277.995 298.558 277.465 298.558 276.912V272.174H303.012V276.912C303.012 277.465 302.778 277.995 302.36 278.385C301.942 278.776 301.376 278.996 300.785 278.996V278.996Z" fill="url(#paint8_linear)"/>
<path opacity="0.7" d="M298.152 303.062H291.465V345.516H298.152V303.062Z" fill="url(#paint9_linear)"/>
<path opacity="0.7" d="M310.104 303.062H303.417V345.516H310.104V303.062Z" fill="url(#paint10_linear)"/>
<g opacity="0.1">
<path opacity="0.1" d="M298.558 275.337C300.021 275.674 301.549 275.674 303.012 275.337V272.361H298.558V275.337Z" fill="url(#paint11_linear)"/>
</g>
<path opacity="0.7" d="M300.785 273.686C306.156 273.686 310.51 269.613 310.51 264.588C310.51 259.564 306.156 255.491 300.785 255.491C295.414 255.491 291.06 259.564 291.06 264.588C291.06 269.613 295.414 273.686 300.785 273.686Z" fill="url(#paint12_linear)"/>
<path opacity="0.7" d="M300.784 275.395C305.932 275.395 310.104 271.492 310.104 266.677C310.104 261.862 305.932 257.958 300.784 257.958C295.637 257.958 291.465 261.862 291.465 266.677C291.465 271.492 295.637 275.395 300.784 275.395Z" fill="url(#paint13_linear)"/>
<g opacity="0.1">
<path opacity="0.1" d="M295.14 262.303C295.649 262.566 296.209 262.73 296.787 262.783C299.174 263.088 301.604 262.832 303.859 262.039C304.071 262.467 304.38 262.846 304.764 263.151C305.149 263.455 305.6 263.677 306.087 263.801C307.06 264.042 308.067 264.147 309.073 264.113C309.295 264.136 309.518 264.096 309.715 263.998C310.161 263.715 309.946 263.066 309.684 262.625L308.386 260.421C308.04 259.751 307.575 259.14 307.01 258.616C306.225 258.037 305.29 257.661 304.301 257.526C301.996 257.097 299.616 257.171 297.347 257.742C294.93 258.342 291.815 260.421 295.14 262.303Z" fill="url(#paint14_linear)"/>
</g>
<path opacity="0.7" d="M295.14 262.116C295.649 262.379 296.209 262.542 296.787 262.596C299.174 262.901 301.604 262.645 303.859 261.852C304.071 262.28 304.38 262.659 304.764 262.964C305.149 263.268 305.6 263.49 306.087 263.614C307.06 263.855 308.067 263.96 309.073 263.926C309.295 263.949 309.518 263.908 309.715 263.811C310.161 263.527 309.946 262.879 309.684 262.438L308.386 260.234C308.04 259.563 307.575 258.953 307.01 258.429C306.225 257.849 305.29 257.473 304.301 257.339C301.996 256.91 299.616 256.984 297.347 257.555C294.93 258.155 291.815 260.229 295.14 262.116Z" fill="url(#paint15_linear)"/>
<path opacity="0.7" d="M310.002 268.098C310.45 268.098 310.813 267.461 310.813 266.677C310.813 265.892 310.45 265.256 310.002 265.256C309.554 265.256 309.191 265.892 309.191 266.677C309.191 267.461 309.554 268.098 310.002 268.098Z" fill="url(#paint16_linear)"/>
<path opacity="0.7" d="M291.568 268.098C292.016 268.098 292.379 267.461 292.379 266.677C292.379 265.892 292.016 265.256 291.568 265.256C291.12 265.256 290.757 265.892 290.757 266.677C290.757 267.461 291.12 268.098 291.568 268.098Z" fill="url(#paint17_linear)"/>
<path opacity="0.7" d="M325.706 257.579C326.936 257.579 327.933 256.646 327.933 255.495C327.933 254.345 326.936 253.412 325.706 253.412C324.476 253.412 323.479 254.345 323.479 255.495C323.479 256.646 324.476 257.579 325.706 257.579Z" fill="url(#paint18_linear)"/>
<path opacity="0.7" d="M300.345 285.924C300.345 286.276 300.307 286.581 300.232 286.838C300.156 287.096 300.053 287.308 299.922 287.477C299.792 287.645 299.638 287.771 299.462 287.854C299.288 287.936 299.102 287.976 298.903 287.976C298.705 287.976 298.518 287.936 298.344 287.854C298.17 287.771 298.018 287.645 297.887 287.477C297.756 287.308 297.653 287.096 297.578 286.838C297.504 286.581 297.467 286.276 297.467 285.924C297.467 285.572 297.504 285.268 297.578 285.01C297.653 284.753 297.756 284.54 297.887 284.372C298.018 284.203 298.17 284.078 298.344 283.997C298.518 283.914 298.705 283.872 298.903 283.872C299.102 283.872 299.288 283.914 299.462 283.997C299.638 284.078 299.792 284.203 299.922 284.372C300.053 284.54 300.156 284.753 300.232 285.01C300.307 285.268 300.345 285.572 300.345 285.924ZM300.061 285.924C300.061 285.599 300.03 285.321 299.968 285.09C299.905 284.859 299.821 284.671 299.715 284.525C299.611 284.377 299.488 284.269 299.346 284.201C299.206 284.133 299.058 284.099 298.903 284.099C298.748 284.099 298.6 284.133 298.46 284.201C298.32 284.269 298.197 284.377 298.091 284.525C297.985 284.671 297.901 284.859 297.839 285.09C297.776 285.321 297.745 285.599 297.745 285.924C297.745 286.252 297.776 286.531 297.839 286.762C297.901 286.991 297.985 287.179 298.091 287.326C298.197 287.472 298.32 287.579 298.46 287.647C298.6 287.713 298.748 287.746 298.903 287.746C299.058 287.746 299.206 287.713 299.346 287.647C299.488 287.579 299.611 287.472 299.715 287.326C299.821 287.179 299.905 286.991 299.968 286.762C300.03 286.531 300.061 286.252 300.061 285.924ZM303.638 285.924C303.638 286.276 303.6 286.581 303.525 286.838C303.449 287.096 303.346 287.308 303.215 287.477C303.085 287.645 302.931 287.771 302.755 287.854C302.581 287.936 302.395 287.976 302.196 287.976C301.998 287.976 301.811 287.936 301.637 287.854C301.463 287.771 301.311 287.645 301.18 287.477C301.05 287.308 300.946 287.096 300.871 286.838C300.797 286.581 300.76 286.276 300.76 285.924C300.76 285.572 300.797 285.268 300.871 285.01C300.946 284.753 301.05 284.54 301.18 284.372C301.311 284.203 301.463 284.078 301.637 283.997C301.811 283.914 301.998 283.872 302.196 283.872C302.395 283.872 302.581 283.914 302.755 283.997C302.931 284.078 303.085 284.203 303.215 284.372C303.346 284.54 303.449 284.753 303.525 285.01C303.6 285.268 303.638 285.572 303.638 285.924ZM303.354 285.924C303.354 285.599 303.323 285.321 303.261 285.09C303.198 284.859 303.114 284.671 303.008 284.525C302.904 284.377 302.781 284.269 302.639 284.201C302.499 284.133 302.351 284.099 302.196 284.099C302.041 284.099 301.894 284.133 301.754 284.201C301.613 284.269 301.49 284.377 301.385 284.525C301.279 284.671 301.194 284.859 301.132 285.09C301.069 285.321 301.038 285.599 301.038 285.924C301.038 286.252 301.069 286.531 301.132 286.762C301.194 286.991 301.279 287.179 301.385 287.326C301.49 287.472 301.613 287.579 301.754 287.647C301.894 287.713 302.041 287.746 302.196 287.746C302.351 287.746 302.499 287.713 302.639 287.647C302.781 287.579 302.904 287.472 303.008 287.326C303.114 287.179 303.198 286.991 303.261 286.762C303.323 286.531 303.354 286.252 303.354 285.924Z" fill="black"/>
<path opacity="0.7" d="M300.99 270.085C300.99 270.085 295.724 271.79 291.67 268.002C291.67 268.002 291.998 269.26 292.563 270.772C293.476 272.391 294.911 273.701 296.664 274.514C298.418 275.328 300.4 275.605 302.331 275.305C304.262 275.005 306.043 274.145 307.421 272.845C308.8 271.545 309.706 269.873 310.012 268.064C309.036 268.554 302.113 271.67 300.99 270.085ZM300.789 272.361C299.763 272.361 298.968 271.641 298.968 271.223C298.968 270.805 299.784 270.844 300.789 270.844C301.795 270.844 302.611 270.805 302.611 271.223C302.611 271.641 301.79 272.361 300.784 272.361H300.789Z" fill="url(#paint19_linear)"/>
<path opacity="0.7" d="M305.737 277.867C305.737 277.867 316.586 272.174 323.273 255.496L326.517 257.392C326.517 257.392 321.149 278.645 307.677 283.547L305.737 277.867Z" fill="url(#paint20_linear)"/>
<path opacity="0.7" d="M275.869 257.579C277.099 257.579 278.096 256.646 278.096 255.496C278.096 254.345 277.099 253.412 275.869 253.412C274.639 253.412 273.642 254.345 273.642 255.496C273.642 256.646 274.639 257.579 275.869 257.579Z" fill="url(#paint21_linear)"/>
<path opacity="0.7" d="M295.832 277.868C295.832 277.868 284.983 272.174 278.296 255.496L275.073 257.387C275.073 257.387 280.441 278.64 293.913 283.542L295.832 277.868Z" fill="url(#paint22_linear)"/>
<path opacity="0.7" d="M297.746 347.033H291.87V346.75C291.87 346.021 292.179 345.323 292.73 344.808C293.28 344.293 294.027 344.004 294.806 344.004V344.004C295.584 344.004 296.331 344.293 296.881 344.808C297.432 345.323 297.741 346.021 297.741 346.75L297.746 347.033Z" fill="url(#paint23_linear)"/>
<path opacity="0.7" d="M309.699 347.033H303.812V346.75C303.812 346.021 304.122 345.323 304.672 344.808C305.223 344.293 305.969 344.004 306.748 344.004V344.004C307.526 344.004 308.273 344.293 308.824 344.808C309.374 345.323 309.683 346.021 309.683 346.75L309.699 347.033Z" fill="url(#paint24_linear)"/>
</g>
<path d="M309.837 294.881H291.736V307.397H309.837V294.881Z" fill="#4D8AF0"/>
<path opacity="0.1" d="M291.736 298.194C291.736 298.194 298.49 298.929 300.784 298.929C303.078 298.929 309.832 298.194 309.832 298.194V295.069H291.736V298.194Z" fill="black"/>
<path d="M309.832 298.012C309.832 298.012 303.078 298.746 300.784 298.746C298.49 298.746 291.736 298.012 291.736 298.012V285.683C291.736 283.438 292.69 281.286 294.386 279.698C296.083 278.111 298.384 277.219 300.784 277.219C303.184 277.219 305.485 278.111 307.182 279.698C308.878 281.286 309.832 283.438 309.832 285.683V298.012Z" fill="#6C63FF"/>
<path d="M298.618 272.985H302.945V277.584C302.945 278.122 302.716 278.637 302.31 279.017C301.904 279.397 301.353 279.61 300.779 279.61V279.61C300.205 279.61 299.654 279.397 299.248 279.017C298.841 278.637 298.613 278.122 298.613 277.584V272.985H298.618Z" fill="#FDB797"/>
<path d="M298.228 302.98H291.736V344.2H298.228V302.98Z" fill="#4D8AF0"/>
<path d="M309.832 302.98H303.34V344.2H309.832V302.98Z" fill="#4D8AF0"/>
<path opacity="0.1" d="M298.624 276.053C300.045 276.38 301.529 276.38 302.95 276.053V273.172H298.624V276.053Z" fill="black"/>
<path d="M300.785 274.459C306 274.459 310.227 270.504 310.227 265.625C310.227 260.747 306 256.792 300.785 256.792C295.569 256.792 291.342 260.747 291.342 265.625C291.342 270.504 295.569 274.459 300.785 274.459Z" fill="#814E4D"/>
<path d="M300.784 276.11C305.781 276.11 309.832 272.321 309.832 267.646C309.832 262.972 305.781 259.183 300.784 259.183C295.787 259.183 291.736 262.972 291.736 267.646C291.736 272.321 295.787 276.11 300.784 276.11Z" fill="#FDB797"/>
<path opacity="0.1" d="M295.303 263.402C295.799 263.653 296.343 263.806 296.904 263.853C299.222 264.15 301.581 263.903 303.771 263.133C303.976 263.55 304.277 263.919 304.651 264.215C305.025 264.511 305.464 264.727 305.937 264.847C306.882 265.081 307.859 265.183 308.836 265.15C309.052 265.173 309.27 265.135 309.462 265.039C309.898 264.766 309.688 264.137 309.431 263.705L308.169 261.568C307.834 260.917 307.383 260.325 306.835 259.816C306.071 259.254 305.163 258.89 304.202 258.76C301.963 258.343 299.652 258.416 297.448 258.971C295.088 259.557 292.07 261.573 295.303 263.402Z" fill="black"/>
<path d="M295.303 263.22C295.799 263.47 296.343 263.624 296.904 263.671C299.222 263.968 301.581 263.72 303.771 262.951C303.976 263.367 304.277 263.737 304.651 264.033C305.025 264.329 305.464 264.545 305.937 264.665C306.882 264.899 307.859 265.001 308.836 264.968C309.052 264.991 309.27 264.952 309.462 264.857C309.898 264.583 309.688 263.955 309.431 263.522L308.169 261.386C307.834 260.735 307.383 260.143 306.835 259.634C306.071 259.072 305.163 258.707 304.202 258.578C301.963 258.161 299.652 258.233 297.448 258.789C295.088 259.375 292.07 261.391 295.303 263.22Z" fill="#814E4D"/>
<path d="M309.734 269.024C310.168 269.024 310.52 268.407 310.52 267.646C310.52 266.885 310.168 266.269 309.734 266.269C309.301 266.269 308.949 266.885 308.949 267.646C308.949 268.407 309.301 269.024 309.734 269.024Z" fill="#FDB797"/>
<path d="M291.834 269.024C292.268 269.024 292.619 268.407 292.619 267.646C292.619 266.885 292.268 266.269 291.834 266.269C291.4 266.269 291.049 266.885 291.049 267.646C291.049 268.407 291.4 269.024 291.834 269.024Z" fill="#FDB797"/>
<path d="M324.982 258.818C326.178 258.818 327.148 257.911 327.148 256.792C327.148 255.673 326.178 254.766 324.982 254.766C323.786 254.766 322.816 255.673 322.816 256.792C322.816 257.911 323.786 258.818 324.982 258.818Z" fill="#FDB797"/>
<path d="M300.985 270.959C300.985 270.959 295.853 272.615 291.938 268.933C291.938 268.933 292.256 270.153 292.805 271.626C293.692 273.197 295.085 274.467 296.787 275.256C298.489 276.044 300.413 276.312 302.286 276.021C304.16 275.73 305.888 274.895 307.226 273.634C308.563 272.373 309.443 270.75 309.74 268.996C308.801 269.476 302.078 272.495 300.985 270.959ZM300.79 273.167C299.81 273.167 299.02 272.471 299.02 272.063C299.02 271.655 299.81 271.694 300.79 271.694C301.77 271.694 302.561 271.655 302.561 272.063C302.561 272.471 301.76 273.167 300.785 273.167H300.79Z" fill="#814E4D"/>
<path d="M305.594 278.516C305.594 278.516 316.13 272.985 322.622 256.792L325.768 258.63C325.768 258.63 320.553 279.274 307.472 284.027L305.594 278.516Z" fill="#6C63FF"/>
<path d="M276.588 258.818C277.784 258.818 278.753 257.911 278.753 256.792C278.753 255.673 277.784 254.766 276.588 254.766C275.391 254.766 274.422 255.673 274.422 256.792C274.422 257.911 275.391 258.818 276.588 258.818Z" fill="#FDB797"/>
<path d="M295.976 278.516C295.976 278.516 285.44 272.985 278.948 256.792L275.802 258.63C275.802 258.63 281.016 279.274 294.097 284.027L295.976 278.516Z" fill="#6C63FF"/>
<path d="M294.98 342.731C295.737 342.731 296.463 343.013 296.998 343.513C297.533 344.014 297.833 344.693 297.833 345.401V345.66H292.132V345.386C292.136 344.682 292.438 344.007 292.971 343.51C293.505 343.012 294.227 342.733 294.98 342.731V342.731Z" fill="#333333"/>
<path d="M306.589 342.731C307.345 342.731 308.071 343.013 308.606 343.513C309.141 344.014 309.442 344.693 309.442 345.401V345.66H303.735V345.386C303.739 344.681 304.042 344.006 304.577 343.508C305.111 343.011 305.835 342.731 306.589 342.731V342.731Z" fill="#333333"/>
</g>
<defs>
<linearGradient id="paint0_linear" x1="68.3218" y1="65.493" x2="68.3218" y2="54.0334" gradientUnits="userSpaceOnUse">
<stop stop-color="#808080" stop-opacity="0.25"/>
<stop offset="0.54" stop-color="#808080" stop-opacity="0.12"/>
<stop offset="1" stop-color="#808080" stop-opacity="0.1"/>
</linearGradient>
<linearGradient id="paint1_linear" x1="47010.9" y1="21915.1" x2="47010.9" y2="7187.61" gradientUnits="userSpaceOnUse">
<stop stop-color="#808080" stop-opacity="0.25"/>
<stop offset="0.54" stop-color="#808080" stop-opacity="0.12"/>
<stop offset="1" stop-color="#808080" stop-opacity="0.1"/>
</linearGradient>
<linearGradient id="paint2_linear" x1="3892.59" y1="2508.05" x2="3892.59" y2="2149.64" gradientUnits="userSpaceOnUse">
<stop stop-color="#808080" stop-opacity="0.25"/>
<stop offset="0.54" stop-color="#808080" stop-opacity="0.12"/>
<stop offset="1" stop-color="#808080" stop-opacity="0.1"/>
</linearGradient>
<linearGradient id="paint3_linear" x1="4868.86" y1="3897.88" x2="4868.86" y2="3126.13" gradientUnits="userSpaceOnUse">
<stop stop-color="#808080" stop-opacity="0.25"/>
<stop offset="0.54" stop-color="#808080" stop-opacity="0.12"/>
<stop offset="1" stop-color="#808080" stop-opacity="0.1"/>
</linearGradient>
<linearGradient id="paint4_linear" x1="70857.9" y1="20983.8" x2="70857.9" y2="15040.4" gradientUnits="userSpaceOnUse">
<stop stop-color="#808080" stop-opacity="0.25"/>
<stop offset="0.54" stop-color="#808080" stop-opacity="0.12"/>
<stop offset="1" stop-color="#808080" stop-opacity="0.1"/>
</linearGradient>
<linearGradient id="paint5_linear" x1="10877.5" y1="8378.03" x2="11554.5" y2="8378.03" gradientUnits="userSpaceOnUse">
<stop stop-color="#808080" stop-opacity="0.25"/>
<stop offset="0.54" stop-color="#808080" stop-opacity="0.12"/>
<stop offset="1" stop-color="#808080" stop-opacity="0.1"/>
</linearGradient>
<linearGradient id="paint6_linear" x1="15705.1" y1="3096.44" x2="16382" y2="3096.44" gradientUnits="userSpaceOnUse">
<stop stop-color="#808080" stop-opacity="0.25"/>
<stop offset="0.54" stop-color="#808080" stop-opacity="0.12"/>
<stop offset="1" stop-color="#808080" stop-opacity="0.1"/>
</linearGradient>
<linearGradient id="paint7_linear" x1="15705.1" y1="15457.1" x2="16382" y2="15457.1" gradientUnits="userSpaceOnUse">
<stop stop-color="#808080" stop-opacity="0.25"/>
<stop offset="0.54" stop-color="#808080" stop-opacity="0.12"/>
<stop offset="1" stop-color="#808080" stop-opacity="0.1"/>
</linearGradient>
<linearGradient id="paint8_linear" x1="4043.8" y1="4771.32" x2="4082.46" y2="4771.32" gradientUnits="userSpaceOnUse">
<stop stop-color="#808080" stop-opacity="0.25"/>
<stop offset="0.54" stop-color="#808080" stop-opacity="0.12"/>
<stop offset="1" stop-color="#808080" stop-opacity="0.1"/>
</linearGradient>
<linearGradient id="paint9_linear" x1="4089.25" y1="28979.7" x2="4176.38" y2="28979.7" gradientUnits="userSpaceOnUse">
<stop stop-color="#808080" stop-opacity="0.25"/>
<stop offset="0.54" stop-color="#808080" stop-opacity="0.12"/>
<stop offset="1" stop-color="#808080" stop-opacity="0.1"/>
</linearGradient>
<linearGradient id="paint10_linear" x1="4256.96" y1="28979.7" x2="4344.09" y2="28979.7" gradientUnits="userSpaceOnUse">
<stop stop-color="#808080" stop-opacity="0.25"/>
<stop offset="0.54" stop-color="#808080" stop-opacity="0.12"/>
<stop offset="1" stop-color="#808080" stop-opacity="0.1"/>
</linearGradient>
<linearGradient id="paint11_linear" x1="4043.8" y1="2391.08" x2="4082.46" y2="2391.08" gradientUnits="userSpaceOnUse">
<stop stop-color="#808080" stop-opacity="0.25"/>
<stop offset="0.54" stop-color="#808080" stop-opacity="0.12"/>
<stop offset="1" stop-color="#808080" stop-opacity="0.1"/>
</linearGradient>
<linearGradient id="paint12_linear" x1="11322.2" y1="10283.4" x2="12059.4" y2="10283.4" gradientUnits="userSpaceOnUse">
<stop stop-color="#808080" stop-opacity="0.25"/>
<stop offset="0.54" stop-color="#808080" stop-opacity="0.12"/>
<stop offset="1" stop-color="#808080" stop-opacity="0.1"/>
</linearGradient>
<linearGradient id="paint13_linear" x1="10877.5" y1="9943.65" x2="11554.5" y2="9943.65" gradientUnits="userSpaceOnUse">
<stop stop-color="#808080" stop-opacity="0.25"/>
<stop offset="0.54" stop-color="#808080" stop-opacity="0.12"/>
<stop offset="1" stop-color="#808080" stop-opacity="0.1"/>
</linearGradient>
<linearGradient id="paint14_linear" x1="13828" y1="4573.47" x2="14344.6" y2="4573.47" gradientUnits="userSpaceOnUse">
<stop stop-color="#808080" stop-opacity="0.25"/>
<stop offset="0.54" stop-color="#808080" stop-opacity="0.12"/>
<stop offset="1" stop-color="#808080" stop-opacity="0.1"/>
</linearGradient>
<linearGradient id="paint15_linear" x1="13828" y1="4570.56" x2="14344.6" y2="4570.56" gradientUnits="userSpaceOnUse">
<stop stop-color="#808080" stop-opacity="0.25"/>
<stop offset="0.54" stop-color="#808080" stop-opacity="0.12"/>
<stop offset="1" stop-color="#808080" stop-opacity="0.1"/>
</linearGradient>
<linearGradient id="paint16_linear" x1="1286.24" y1="1843.99" x2="1291.36" y2="1843.99" gradientUnits="userSpaceOnUse">
<stop stop-color="#808080" stop-opacity="0.25"/>
<stop offset="0.54" stop-color="#808080" stop-opacity="0.12"/>
<stop offset="1" stop-color="#808080" stop-opacity="0.1"/>
</linearGradient>
<linearGradient id="paint17_linear" x1="1209.53" y1="1843.99" x2="1214.66" y2="1843.99" gradientUnits="userSpaceOnUse">
<stop stop-color="#808080" stop-opacity="0.25"/>
<stop offset="0.54" stop-color="#808080" stop-opacity="0.12"/>
<stop offset="1" stop-color="#808080" stop-opacity="0.1"/>
</linearGradient>
<linearGradient id="paint18_linear" x1="3131.21" y1="2471.12" x2="3169.92" y2="2471.12" gradientUnits="userSpaceOnUse">
<stop stop-color="#808080" stop-opacity="0.25"/>
<stop offset="0.54" stop-color="#808080" stop-opacity="0.12"/>
<stop offset="1" stop-color="#808080" stop-opacity="0.1"/>
</linearGradient>
<linearGradient id="paint19_linear" x1="15466.4" y1="5102.04" x2="16121.1" y2="5102.04" gradientUnits="userSpaceOnUse">
<stop stop-color="#808080" stop-opacity="0.25"/>
<stop offset="0.54" stop-color="#808080" stop-opacity="0.12"/>
<stop offset="1" stop-color="#808080" stop-opacity="0.1"/>
</linearGradient>
<linearGradient id="paint20_linear" x1="18066.9" y1="18401.3" x2="18908.2" y2="18401.3" gradientUnits="userSpaceOnUse">
<stop stop-color="#808080" stop-opacity="0.25"/>
<stop offset="0.54" stop-color="#808080" stop-opacity="0.12"/>
<stop offset="1" stop-color="#808080" stop-opacity="0.1"/>
</linearGradient>
<linearGradient id="paint21_linear" x1="2648.81" y1="2471.13" x2="2687.52" y2="2471.13" gradientUnits="userSpaceOnUse">
<stop stop-color="#808080" stop-opacity="0.25"/>
<stop offset="0.54" stop-color="#808080" stop-opacity="0.12"/>
<stop offset="1" stop-color="#808080" stop-opacity="0.1"/>
</linearGradient>
<linearGradient id="paint22_linear" x1="16777.7" y1="18398.2" x2="17618" y2="18398.2" gradientUnits="userSpaceOnUse">
<stop stop-color="#808080" stop-opacity="0.25"/>
<stop offset="0.54" stop-color="#808080" stop-opacity="0.12"/>
<stop offset="1" stop-color="#808080" stop-opacity="0.1"/>
</linearGradient>
<linearGradient id="paint23_linear" x1="5155.64" y1="2783.18" x2="5222.92" y2="2783.18" gradientUnits="userSpaceOnUse">
<stop stop-color="#808080" stop-opacity="0.25"/>
<stop offset="0.54" stop-color="#808080" stop-opacity="0.12"/>
<stop offset="1" stop-color="#808080" stop-opacity="0.1"/>
</linearGradient>
<linearGradient id="paint24_linear" x1="5313.19" y1="2783.18" x2="5380.59" y2="2783.18" gradientUnits="userSpaceOnUse">
<stop stop-color="#808080" stop-opacity="0.25"/>
<stop offset="0.54" stop-color="#808080" stop-opacity="0.12"/>
<stop offset="1" stop-color="#808080" stop-opacity="0.1"/>
</linearGradient>
<clipPath id="clip0">
<rect width="350" height="350" fill="white"/>
</clipPath>
</defs>
</svg>
