<?xml version="1.0" encoding="utf-8"?>
<!-- Generator: Adobe Illustrator 24.2.0, SVG Export Plug-In . SVG Version: 6.00 Build 0)  -->
<svg version="1.1" id="_x34_04" xmlns="http://www.w3.org/2000/svg" xmlns:xlink="http://www.w3.org/1999/xlink" x="0px" y="0px"
	 viewBox="0 0 960 640" style="enable-background:new 0 0 960 640;" xml:space="preserve">
<style type="text/css">
	.st0{fill:#D4CCFF;}
	.st1{fill:#F5E8FF;}
	.st2{fill:#FFFFFF;}
	.st3{fill:#3740C7;}
	.st4{fill:#F5B1FF;}
	.st5{fill:#D396FF;}
	.st6{fill:#7B0F8F;}
	.st7{fill:#DE50FC;}
	.st8{fill:#FAD6E4;}
	.st9{fill:#FEF4F3;}
	.st10{fill:#E9CCFF;}
	.st11{fill:#B262EC;}
	.st12{fill:#8350FC;}
	.st13{fill:#24223C;}
	.st14{fill:#F4D822;}
	.st15{fill:#2D2D2D;}
	.st16{fill:#E8BC26;}
	.st17{fill:#FC5E53;}
	.st18{fill:#F35146;}
	.st19{fill:#5061FC;}
	.st20{fill:#2F3CC4;}
</style>
<path class="st0" d="M146.08,628.12c-1.69,3.36-3.18,8.34-4.42,11.84c33.47,0,69.89,0.04,99.81,0.04c34.21,0,68.42-0.01,102.63-0.01
	c68.42-0.01,136.84-0.01,205.27-0.02c136.61-0.01,273.22-0.02,409.83-0.04c0.23,0,0.47,0,0.7,0c0.03-205.85,0.07-411.7,0.1-617.55
	C878.56,6.7,794.18,41.76,732.51,89.9c-28.15,21.97-53.7,47.09-86.8,63.24c-33.1,16.14-77.12,21.45-108.12,2.5
	c-31.57-19.3-40.12-56.78-67.67-80.16c-27.65-23.47-69.23-29.82-106.39-23.06c-37.51,6.82-75.92,34.17-87.64,66.1
	c-2.84,7.74-3.92,15.93-3.6,24.04c1.14,28.92,19.23,54.08,36.6,77.89c13.24,18.13,40.54,30.44,44.69,53
	c2.49,13.56-5.13,27.31-16.24,37.21c-11.11,9.9-25.4,16.65-39.38,23.37c-40.18,19.3-79.74,39.55-118.61,60.72
	c-26.83,14.61-66.54,40.93-51.71,72.82c9.07,19.51,35.63,27.08,54.26,38.06c10.08,5.94,19.28,14.07,21.8,24.32
	c2.92,11.84-3.57,23.8-10.76,34.22C178.41,585.22,157.55,605.32,146.08,628.12z"/>
<g>
	<path class="st1" d="M803.45,356.02c-30.66-36.82-89.24-42.16-126.04-73.36c-39.86-33.79-50.22-81.53-84.46-120.56
		c-14.28-16.28-30.55-39.34-49.98-49.99c-17.5-9.59-36.38-17.96-57.37-19.59c-26.31-2.04-54.9,7.24-76.7,24.88
		c-21.45,17.36-36.89,42.47-61.76,54.16c-31.23,14.68-64.79,4.17-95.29,2.03c-35.66-2.5-72.66,17.27-84.79,50.59
		c-5.44,14.94-5.46,31.26-2.96,46.9c2.54,15.93,7.93,32.06,18.47,44.85c11.13,13.51,25.83,23.81,35.6,38.51
		c11.59,17.44,10.66,40.97,6.85,62.98c-3.81,22.01-10.17,44.34-8.27,65.86c2.8,31.64,24.88,58.73,55.69,68.33
		c39.55,12.32,85.8-3.19,127.84-19.2c37.64-14.33,81.12-31.12,120.42-28.43c41.44,2.83,75.61,29.1,114.99,37.82
		c50.4,11.17,111.58-4.8,150.26-44.83C824.61,456.95,834.63,393.46,803.45,356.02z"/>
	<g>
		<g>
			<g>
				<path class="st2" d="M639.41,177.37v266.82c0,18.65-15.11,33.77-33.76,33.77h-251.3c-18.65,0-33.77-15.12-33.77-33.77V177.37
					c0.19-18.48,15.24-33.41,33.77-33.41h251.3C624.19,143.95,639.22,158.88,639.41,177.37z"/>
			</g>
			<g>
				<path class="st3" d="M639.41,177.37H320.59c0.19-18.48,15.24-33.41,33.77-33.41h251.3
					C624.19,143.95,639.22,158.88,639.41,177.37z"/>
			</g>
			<g>
				<g>
					<path class="st2" d="M360.96,160.66c0-3.41-2.76-6.17-6.17-6.17c-3.41,0-6.17,2.76-6.17,6.17c0,3.41,2.76,6.17,6.17,6.17
						C358.2,166.83,360.96,164.06,360.96,160.66z"/>
				</g>
				<g>
					<path class="st2" d="M380.09,160.66c0-3.41-2.76-6.17-6.17-6.17c-3.41,0-6.17,2.76-6.17,6.17c0,3.41,2.76,6.17,6.17,6.17
						C377.33,166.83,380.09,164.06,380.09,160.66z"/>
				</g>
				<g>
					<path class="st2" d="M399.21,160.66c0-3.41-2.76-6.17-6.17-6.17c-3.41,0-6.17,2.76-6.17,6.17c0,3.41,2.76,6.17,6.17,6.17
						C396.45,166.83,399.21,164.06,399.21,160.66z"/>
				</g>
			</g>
			<g>
				<path class="st2" d="M540.35,166.83H424.1c-3.41,0-6.17-2.76-6.17-6.17l0,0c0-3.41,2.76-6.17,6.17-6.17h116.25
					c3.41,0,6.17,2.76,6.17,6.17l0,0C546.52,164.06,543.76,166.83,540.35,166.83z"/>
			</g>
		</g>
	</g>
	<g>
		<g>
			<g>
				<g>
					<path class="st4" d="M253.23,330.32l-0.31,0.48l-3.2-1.98l0.3-0.49C251.09,328.96,252.18,329.63,253.23,330.32z"/>
				</g>
				<g>
					<path class="st4" d="M275.95,358.88l-8.67,2.26l-1.44-0.02c-9.15-0.12-17.79-0.23-25.82-1.36l-1.14-0.16l1.08-0.39
						c2.27-0.82,4.24-1.63,5.88-2.42c-2.3,0.72-5.61,1.7-8.91,2.46l-0.12,0c-8.1-1.45-14.96-3.93-21.6-7.82l-0.72-0.42l0.83-0.11
						c3.23-0.42,8.64-1.25,13-2.52c-4.12,0.59-11.31,1.46-16.18,1.09l-0.07-0.01l-0.06-0.04c-0.7-0.46-1.25-0.82-1.71-1.12
						c-2.16-1.4-2.34-1.52-5.67-4.77l-0.45-0.44l0.63-0.05c3.19-0.27,7.31-0.73,10.8-1.5c-3.19,0.25-8.18,0.55-12.5,0.37l-0.11,0
						l-0.08-0.08c-0.71-0.72-1.72-1.73-2.89-2.89c-3.32-3.29-7.88-7.8-9.97-10.39l-0.15-0.18l0.15-0.18
						c0.18-0.22,4.58-5.36,19.26-7.15l0.11-0.01l0.09,0.07c0.89,0.65,1.89,1.29,2.94,1.98c1.38,0.89,2.85,1.84,4.37,2.98
						c-1.31-1.27-2.99-2.85-5.14-4.78l-0.49-0.44l0.66-0.06c1.31-0.11,2.65-0.27,4.07-0.43c5.02-0.59,10.22-1.2,15.3,0.07l0.1,0.03
						l0.06,0.09c0.62,0.87,1.11,1.78,1.73,2.92c0.75,1.38,1.68,3.1,3.25,5.52c-0.01-0.01-0.01-0.03-0.02-0.04
						c-1.05-2.36-2.01-5.2-1.68-7.18l0.06-0.33l0.32,0.11c3.49,1.17,8.91,3.3,14.91,6.79l0.08,0.07l4.53,5.97l-2.1-4.53l0.84,0.55
						c8,5.23,14.02,11.31,17.9,18.09L275.95,358.88z M267.25,360.57l7.89-2.07l-4.43-9.77c-3.68-6.43-9.36-12.26-16.86-17.31
						l3.49,7.54l-7.71-10.18c-5.74-3.34-10.95-5.42-14.42-6.6c-0.32,3.78,3.8,10.63,3.84,10.7l-0.48,0.32
						c-3.33-4.65-4.84-7.44-5.95-9.47c-0.59-1.09-1.07-1.96-1.64-2.78c-4.95-1.2-10.06-0.61-15-0.03c-1.19,0.14-2.32,0.27-3.43,0.38
						c7.59,6.87,9.07,9.01,9.13,9.1l-0.45,0.36c-3.15-3.34-6.31-5.39-9.11-7.19c-1.03-0.66-2-1.29-2.88-1.93
						c-12.85,1.58-17.72,5.86-18.62,6.76c2.14,2.6,6.54,6.95,9.77,10.15c1.13,1.12,2.12,2.1,2.82,2.81
						c6.9,0.27,15.48-0.66,15.57-0.67l2.62-0.29l-2.5,0.84c-3.73,1.26-9.26,1.96-13.46,2.33c2.87,2.79,3.12,2.96,5.14,4.27
						c0.45,0.29,0.98,0.64,1.65,1.08c7.08,0.5,19.06-1.57,19.18-1.59l2.58-0.45l-2.42,1c-4.29,1.77-11.15,2.92-15.36,3.5
						c6.34,3.61,12.92,5.94,20.63,7.32c5.89-1.37,11.78-3.4,11.84-3.42l2.44-0.85l-2.19,1.36c-1.84,1.14-4.42,2.34-7.7,3.58
						c7.67,0.98,15.91,1.08,24.6,1.2L267.25,360.57z"/>
				</g>
			</g>
		</g>
		<g>
			<path class="st4" d="M275.72,358.46l-0.35,0.46c-23.9-18.16-73.28-26.98-73.77-27.07l0.1-0.57
				C202.2,331.37,251.71,340.21,275.72,358.46z"/>
		</g>
	</g>
	<g>
		<g>
			<g>
				<g>
					<g>
						<path class="st5" d="M270.62,177.84c-0.48-0.34-0.96-0.68-1.43-1.02c-0.11-0.08-0.14-0.24-0.06-0.36
							c0.08-0.11,0.24-0.15,0.36-0.06c0.69,0.5,1.38,0.99,2.08,1.47c0,0,0,0,0,0c0.11,0.08,0.14,0.24,0.06,0.35
							c-0.08,0.12-0.24,0.15-0.35,0.07C271.05,178.14,270.83,177.99,270.62,177.84z M273.39,179.71c-0.11-0.08-0.14-0.23-0.07-0.35
							c0.08-0.12,0.24-0.15,0.35-0.07c0.71,0.47,1.42,0.93,2.14,1.38c0.12,0.06,0.16,0.23,0.08,0.35c-0.08,0.12-0.23,0.15-0.35,0.08
							C274.82,180.65,274.11,180.19,273.39,179.71C273.39,179.72,273.39,179.72,273.39,179.71z M267.14,175.29
							C267.14,175.29,267.13,175.29,267.14,175.29c-0.7-0.54-1.37-1.07-2.01-1.6c-0.11-0.09-0.12-0.25-0.04-0.36
							c0.09-0.11,0.26-0.12,0.36-0.03c0.64,0.52,1.31,1.06,1.99,1.58c0.11,0.09,0.13,0.25,0.05,0.36
							C267.41,175.35,267.25,175.37,267.14,175.29z M277.7,182.44c-0.11-0.08-0.14-0.23-0.07-0.34c0.07-0.12,0.23-0.16,0.35-0.09
							c0.73,0.44,1.46,0.88,2.19,1.31c0.12,0.08,0.16,0.23,0.09,0.35c-0.07,0.12-0.23,0.16-0.35,0.09
							c-0.73-0.43-1.46-0.87-2.19-1.32C277.71,182.45,277.71,182.44,277.7,182.44z M263.2,172.05c-0.01-0.01-0.02-0.01-0.02-0.02
							c-0.65-0.58-1.29-1.16-1.88-1.74c-0.1-0.1-0.1-0.26-0.01-0.36c0.1-0.1,0.26-0.1,0.36-0.01c0.59,0.57,1.22,1.15,1.87,1.72
							c0.11,0.09,0.12,0.25,0.02,0.36C263.45,172.11,263.31,172.12,263.2,172.05z M259.53,168.51c-0.01-0.01-0.03-0.02-0.04-0.03
							c-0.6-0.63-1.17-1.27-1.71-1.91c-0.09-0.11-0.08-0.27,0.03-0.36c0.11-0.09,0.27-0.08,0.36,0.03c0.53,0.63,1.11,1.26,1.7,1.89
							c0.1,0.1,0.09,0.26-0.01,0.36C259.76,168.57,259.63,168.58,259.53,168.51z M256.22,164.63c-0.02-0.01-0.04-0.03-0.06-0.05
							c-0.52-0.69-1.02-1.4-1.49-2.09c-0.08-0.12-0.05-0.28,0.07-0.35c0.12-0.08,0.28-0.05,0.35,0.07c0.46,0.69,0.95,1.38,1.47,2.07
							c0.09,0.11,0.06,0.27-0.05,0.36C256.43,164.69,256.31,164.69,256.22,164.63z M253.41,160.38c-0.03-0.02-0.06-0.05-0.08-0.08
							c-0.43-0.75-0.82-1.52-1.18-2.28c-0.06-0.13-0.01-0.28,0.12-0.34c0.13-0.06,0.28-0.01,0.34,0.12
							c0.35,0.75,0.75,1.51,1.17,2.25c0.07,0.12,0.03,0.28-0.1,0.35C253.6,160.44,253.49,160.43,253.41,160.38z M251.24,155.77
							c-0.04-0.03-0.07-0.07-0.09-0.12c-0.3-0.8-0.58-1.62-0.81-2.44c-0.04-0.14,0.04-0.28,0.18-0.32c0.14-0.04,0.28,0.04,0.32,0.18
							c0.23,0.8,0.5,1.61,0.8,2.4c0.05,0.13-0.02,0.28-0.15,0.33C251.4,155.83,251.31,155.81,251.24,155.77z M249.84,150.87
							c-0.05-0.04-0.09-0.09-0.1-0.16c-0.12-0.59-0.22-1.19-0.3-1.79c-0.03-0.25-0.07-0.5-0.09-0.75c-0.02-0.14,0.08-0.27,0.22-0.28
							c0.14-0.02,0.27,0.08,0.28,0.22c0.03,0.25,0.06,0.49,0.09,0.74c0.08,0.59,0.18,1.18,0.29,1.76c0.03,0.14-0.06,0.27-0.2,0.3
							C249.97,150.92,249.9,150.91,249.84,150.87z M249.26,145.8c-0.06-0.04-0.11-0.12-0.11-0.2c-0.03-0.87-0.01-1.74,0.04-2.57
							c0.01-0.14,0.13-0.25,0.27-0.24c0.14,0.01,0.25,0.13,0.24,0.27c-0.05,0.82-0.06,1.67-0.04,2.53c0,0.14-0.11,0.26-0.25,0.26
							C249.36,145.85,249.31,145.83,249.26,145.8z M249.59,140.72c-0.08-0.05-0.12-0.15-0.11-0.25c0.15-0.86,0.34-1.71,0.58-2.51
							c0.04-0.13,0.18-0.21,0.32-0.17c0.14,0.04,0.21,0.18,0.17,0.32c-0.23,0.79-0.43,1.61-0.57,2.45
							c-0.02,0.14-0.16,0.23-0.29,0.21C249.66,140.76,249.62,140.74,249.59,140.72z M251.06,135.85c-0.1-0.07-0.14-0.2-0.09-0.31
							c0.35-0.78,0.76-1.54,1.23-2.28c0.08-0.12,0.23-0.15,0.35-0.08c0.12,0.06,0.16,0.23,0.08,0.35c-0.45,0.71-0.85,1.46-1.19,2.21
							c-0.06,0.13-0.21,0.19-0.34,0.13C251.09,135.86,251.07,135.86,251.06,135.85z M253.77,131.54c-0.01,0-0.01-0.01-0.02-0.01
							c-0.11-0.09-0.12-0.25-0.03-0.36c0.54-0.65,1.14-1.28,1.77-1.88c0.1-0.1,0.26-0.1,0.36,0.01c0.1,0.1,0.09,0.26-0.01,0.36
							c-0.62,0.58-1.2,1.2-1.73,1.83C254.02,131.6,253.88,131.61,253.77,131.54z M257.47,128.04c-0.02-0.02-0.04-0.03-0.06-0.06
							c-0.08-0.11-0.06-0.27,0.05-0.36c0.68-0.51,1.4-0.99,2.14-1.43c0.12-0.07,0.28-0.03,0.35,0.09c0.07,0.12,0.03,0.28-0.09,0.35
							c-0.73,0.43-1.43,0.91-2.1,1.4C257.68,128.11,257.56,128.1,257.47,128.04z M261.84,125.43c-0.04-0.02-0.06-0.06-0.08-0.1
							c-0.06-0.13,0-0.28,0.12-0.34c0.77-0.36,1.57-0.69,2.38-0.98c0.13-0.05,0.28,0.02,0.33,0.15c0.05,0.13-0.02,0.28-0.15,0.33
							c-0.79,0.28-1.58,0.61-2.34,0.96C262.01,125.49,261.92,125.48,261.84,125.43z M266.64,123.72c-0.05-0.03-0.08-0.08-0.1-0.15
							c-0.03-0.14,0.05-0.28,0.18-0.31c0.83-0.21,1.68-0.39,2.52-0.52c0.14-0.02,0.27,0.07,0.29,0.21c0.02,0.14-0.07,0.27-0.21,0.29
							c-0.83,0.13-1.66,0.3-2.47,0.51C266.78,123.77,266.7,123.76,266.64,123.72z M271.68,122.92c-0.06-0.04-0.1-0.11-0.11-0.19
							c-0.01-0.14,0.1-0.26,0.24-0.27c0.84-0.06,1.71-0.08,2.57-0.08c0.14,0,0.25,0.12,0.25,0.26c0,0.14-0.12,0.25-0.26,0.25
							c-0.85-0.01-1.7,0.02-2.53,0.08C271.78,122.96,271.72,122.95,271.68,122.92z M276.77,122.95c-0.07-0.05-0.12-0.14-0.11-0.23
							c0.01-0.14,0.13-0.25,0.27-0.23c0.84,0.07,1.7,0.17,2.55,0.29c0.14,0.02,0.24,0.15,0.22,0.29c-0.02,0.14-0.15,0.24-0.29,0.22
							c-0.84-0.12-1.69-0.22-2.52-0.29C276.85,122.99,276.81,122.98,276.77,122.95z M281.82,123.69c-0.08-0.06-0.13-0.16-0.1-0.26
							c0.03-0.14,0.16-0.23,0.3-0.2c0.82,0.17,1.66,0.37,2.5,0.59c0.14,0.04,0.22,0.18,0.18,0.31c-0.04,0.14-0.18,0.22-0.31,0.18
							c-0.83-0.22-1.66-0.41-2.47-0.58C281.88,123.72,281.85,123.7,281.82,123.69z M286.75,124.98c-0.09-0.06-0.13-0.18-0.1-0.29
							c0.04-0.13,0.19-0.21,0.32-0.17c0.79,0.25,1.61,0.53,2.43,0.82c0.13,0.05,0.2,0.19,0.15,0.33c-0.05,0.13-0.19,0.2-0.33,0.15
							c-0.81-0.29-1.62-0.57-2.41-0.82C286.8,125.01,286.78,125,286.75,124.98z M291.55,126.71c-0.1-0.07-0.14-0.19-0.09-0.3
							c0.05-0.13,0.2-0.19,0.33-0.14c0.77,0.31,1.56,0.65,2.36,1c0.13,0.06,0.19,0.21,0.13,0.34c-0.06,0.13-0.21,0.19-0.34,0.13
							c-0.79-0.35-1.58-0.68-2.34-0.99C291.59,126.73,291.57,126.72,291.55,126.71z M296.22,128.77c-0.1-0.07-0.14-0.2-0.09-0.32
							c0.06-0.13,0.21-0.18,0.34-0.13c0.77,0.35,1.54,0.7,2.33,1.04c0.13,0.06,0.19,0.21,0.13,0.34c-0.06,0.13-0.21,0.19-0.34,0.13
							c-0.79-0.34-1.56-0.69-2.34-1.05C296.25,128.78,296.24,128.77,296.22,128.77z M300.92,130.77c-0.09-0.06-0.13-0.19-0.09-0.3
							c0.05-0.13,0.2-0.2,0.33-0.15c0.86,0.32,1.64,0.58,2.4,0.79c0.14,0.04,0.22,0.18,0.18,0.31c-0.04,0.14-0.18,0.22-0.31,0.18
							c-0.77-0.21-1.57-0.48-2.44-0.8C300.96,130.79,300.94,130.78,300.92,130.77z M305.84,132.09c-0.08-0.05-0.12-0.15-0.11-0.25
							c0.02-0.14,0.15-0.24,0.29-0.22c0.86,0.12,1.7,0.17,2.5,0.14c0.14,0,0.26,0.11,0.26,0.25c0,0.14-0.11,0.26-0.25,0.26
							c-0.82,0.03-1.69-0.02-2.59-0.15C305.91,132.13,305.87,132.11,305.84,132.09z M310.9,131.88c-0.05-0.03-0.09-0.08-0.1-0.15
							c-0.03-0.14,0.05-0.28,0.18-0.31c0.16-0.04,0.33-0.09,0.49-0.14c0.62-0.19,1.22-0.43,1.84-0.74c0.13-0.06,0.28-0.01,0.34,0.11
							c0.06,0.13,0.01,0.28-0.11,0.34c-0.64,0.32-1.28,0.58-1.92,0.77c-0.17,0.05-0.34,0.1-0.51,0.14
							C311.04,131.94,310.96,131.92,310.9,131.88z M315.46,129.66c-0.02-0.02-0.04-0.04-0.06-0.06c-0.08-0.11-0.05-0.27,0.06-0.36
							c0.6-0.43,1.24-0.92,1.99-1.56c0.11-0.09,0.27-0.08,0.36,0.03c0.09,0.11,0.08,0.27-0.03,0.36c-0.77,0.64-1.41,1.15-2.03,1.58
							C315.66,129.72,315.55,129.72,315.46,129.66z M319.4,126.42c-0.02-0.01-0.03-0.03-0.05-0.04c-0.09-0.11-0.08-0.27,0.03-0.36
							c0.62-0.53,1.28-1.1,1.97-1.64c0.11-0.09,0.27-0.07,0.36,0.04c0.09,0.11,0.07,0.27-0.04,0.36c-0.68,0.53-1.34,1.1-1.95,1.63
							C319.63,126.48,319.5,126.49,319.4,126.42z M323.44,123.31c-0.03-0.02-0.05-0.04-0.07-0.07c-0.07-0.12-0.04-0.28,0.08-0.35
							c0.52-0.32,1.01-0.59,1.52-0.83c0.26-0.12,0.52-0.24,0.79-0.35c0.13-0.05,0.28,0.01,0.33,0.14c0.05,0.13-0.01,0.28-0.14,0.33
							c-0.26,0.1-0.51,0.21-0.76,0.33c-0.49,0.23-0.97,0.5-1.47,0.81C323.63,123.37,323.52,123.36,323.44,123.31z M350.1,141.31
							c-0.06-0.04-0.1-0.1-0.11-0.18c-0.1-0.84-0.25-1.68-0.42-2.49c-0.03-0.14,0.06-0.27,0.19-0.3c0.14-0.03,0.27,0.06,0.3,0.19
							c0.18,0.83,0.33,1.68,0.43,2.54c0.02,0.14-0.08,0.27-0.22,0.28C350.21,141.36,350.14,141.34,350.1,141.31z M349.01,136.33
							c-0.04-0.03-0.08-0.08-0.1-0.13c-0.26-0.81-0.55-1.6-0.87-2.37c-0.06-0.13,0.01-0.28,0.14-0.33c0.13-0.05,0.28,0.01,0.33,0.14
							c0.33,0.78,0.63,1.59,0.89,2.42c0.04,0.13-0.03,0.28-0.17,0.32C349.15,136.39,349.07,136.38,349.01,136.33z M328.15,121.44
							c-0.05-0.04-0.09-0.09-0.1-0.16c-0.03-0.14,0.06-0.27,0.2-0.3c0.84-0.16,1.7-0.25,2.58-0.26c0.14,0,0.26,0.11,0.26,0.25
							c0,0.14-0.11,0.26-0.25,0.26c-0.85,0.01-1.68,0.1-2.49,0.26C328.28,121.49,328.21,121.47,328.15,121.44z M347.02,131.64
							c-0.03-0.02-0.06-0.05-0.08-0.09c-0.41-0.75-0.85-1.47-1.32-2.15c-0.08-0.12-0.05-0.27,0.07-0.35
							c0.12-0.08,0.27-0.05,0.35,0.06c0.48,0.7,0.93,1.44,1.35,2.2c0.07,0.12,0.02,0.28-0.1,0.35
							C347.2,131.7,347.1,131.69,347.02,131.64z M333.23,121.34c-0.08-0.05-0.12-0.15-0.11-0.25c0.02-0.14,0.15-0.24,0.29-0.22
							c0.85,0.12,1.7,0.31,2.53,0.56c0.14,0.04,0.21,0.18,0.17,0.32c-0.04,0.13-0.18,0.21-0.32,0.17c-0.8-0.24-1.63-0.43-2.45-0.55
							C333.3,121.38,333.27,121.36,333.23,121.34z M344.12,127.45c-0.02-0.01-0.03-0.03-0.05-0.04c-0.56-0.64-1.15-1.24-1.77-1.79
							c-0.11-0.09-0.11-0.25-0.02-0.36c0.09-0.1,0.26-0.12,0.36-0.02c0.63,0.56,1.24,1.18,1.82,1.84c0.09,0.11,0.08,0.27-0.02,0.36
							C344.35,127.51,344.22,127.52,344.12,127.45z M338.1,122.81c-0.1-0.07-0.14-0.2-0.08-0.32c0.06-0.13,0.21-0.18,0.34-0.12
							c0.75,0.36,1.47,0.77,2.15,1.22l0.1,0.06c0,0,0,0,0,0c0.11,0.08,0.14,0.24,0.06,0.35c-0.08,0.12-0.24,0.15-0.35,0.07
							l-0.09-0.06c-0.66-0.44-1.37-0.84-2.09-1.18C338.12,122.83,338.11,122.82,338.1,122.81z"/>
					</g>
				</g>
				<g>
					<g>
						<path class="st5" d="M282.15,185.07c-0.11-0.08-0.14-0.22-0.07-0.34c0.07-0.12,0.23-0.16,0.35-0.09
							c0.37,0.21,0.74,0.43,1.1,0.64c0.12,0.07,0.16,0.23,0.09,0.35c-0.07,0.12-0.23,0.16-0.35,0.09c-0.37-0.21-0.74-0.42-1.11-0.64
							C282.16,185.08,282.15,185.08,282.15,185.07z"/>
					</g>
				</g>
			</g>
		</g>
		<g>
			<g>
				<polygon class="st6" points="317.37,198.52 292.51,184.32 287.65,193.58 				"/>
			</g>
			<g>
				<polygon class="st7" points="317.37,198.52 294.34,189.23 287.65,193.58 				"/>
			</g>
			<g>
				<polygon class="st5" points="317.37,198.52 290.95,175.45 292.51,184.32 				"/>
			</g>
			<g>
				<polygon class="st5" points="317.37,198.52 294.34,189.23 296.98,199.7 				"/>
			</g>
		</g>
	</g>
	<g>
		<g>
			<g>
				<path class="st8" d="M688,317.58c0.43-1.03,0.84-2.07,1.22-3.09L688,317.58z"/>
			</g>
			<g>
				<path class="st8" d="M683.23,321.03l6-6.58c1.86-5.1,3-10.03,3.6-13.97c-3.36,0.03-8.99,5.06-8.99,5.06
					c5.41-5.62,7.6-6.71,9.38-8.54c0.43-5.88-1.83-11.64-3.12-16.74c-5.01,8.15-6.68,9.79-6.68,9.79c3.33-4.54,4.55-8.8,6.08-11.96
					c-3.67-12.57-8.77-15.54-8.77-15.54c-2.56,2.99-7.44,10.43-9.41,13.21c0.78,6.16,2.85,13.6,2.85,13.6
					c-1.68-3.18-3.13-8.19-4.05-11.85c-2.76,4.11-2.27,3.48-3.92,7.29c0.59,6.34,4.16,16.59,4.16,16.59
					c-2.25-3.67-4.33-9.98-5.4-13.5c-2.5,6.8-3.45,13.3-3.5,19.92c2.05,5.01,4.66,9.86,4.66,9.86c-1.57-1.81-3.21-4.46-4.63-7.01
					c0.22,7.52,1.46,15.28,2.79,23.93l3.04,6.87l7.91-5.52c5.8-4.92,9.9-11.59,12.71-18.26L683.23,321.03z"/>
			</g>
		</g>
		<g>
			<path class="st9" d="M673.24,323.96c-0.62,2.62-1.3,5.22-2.12,7.78c-0.82,2.56-1.79,5.08-3.07,7.43l-0.1-0.06
				c1.21-2.38,2.1-4.91,2.83-7.48c0.74-2.57,1.34-5.18,1.88-7.8c1.09-5.24,1.94-10.54,2.78-15.83c0.84-5.3,1.54-10.62,2.6-15.9
				c0.53-2.64,1.09-5.27,1.74-7.88c0.64-2.61,1.37-5.21,2.23-7.75l0.12,0.03c-1.08,5.26-2.01,10.53-2.9,15.81
				c-0.88,5.28-1.89,10.55-2.83,15.84C675.43,313.43,674.46,318.72,673.24,323.96z"/>
		</g>
	</g>
	<g>
		<g>
			<g>
				<path class="st10" d="M693.26,353.42c0.77-0.66,1.51-1.33,2.22-2.02L693.26,353.42z"/>
			</g>
			<g>
				<path class="st10" d="M687.64,354.1l7.87-2.73c3.53-3.39,6.33-6.97,8.29-9.98c-3.1-1.52-10.08,0.09-10.08,0.09
					c6.98-2.2,9.39-2.1,11.68-2.81c2.49-4.7,2.46-10.53,3.09-15.37c-7.52,4.48-9.64,5.09-9.64,5.09c4.69-2.25,7.33-5.24,9.86-7.17
					c1.1-12.14-2.54-16.96-2.54-16.96c-3.42,1.31-10.57,5.27-13.37,6.69c-1.48,5.48-2.22,12.62-2.22,12.62
					c-0.41-3.42,0.04-8.25,0.49-11.72c-4.01,2.16-3.33,1.85-6.2,4.27c-1.71,5.55-2.08,15.72-2.08,15.72
					c-0.77-4.09-0.44-10.29-0.16-13.71c-4.73,4.52-7.91,9.49-10.32,14.98c0.1,5.11,0.78,10.35,0.78,10.35
					c-0.8-2.23-1.37-5.18-1.77-7.95c-2.47,6.36-4.1,13.39-5.95,21.2l0.35,7.11l9.25-0.97c7.09-1.44,13.24-5.11,18.21-9.37
					L687.64,354.1z"/>
			</g>
		</g>
		<g>
			<path class="st9" d="M677.4,351.96c-1.5,1.89-3.06,3.75-4.73,5.5c-1.66,1.76-3.46,3.41-5.48,4.78l-0.07-0.1
				c1.96-1.43,3.68-3.12,5.27-4.93c1.6-1.8,3.08-3.7,4.51-5.63c2.87-3.86,5.54-7.88,8.2-11.91c2.66-4.02,5.2-8.13,8.05-12.04
				c1.42-1.95,2.88-3.89,4.41-5.76c1.52-1.88,3.12-3.7,4.82-5.43l0.1,0.08c-2.87,3.89-5.6,7.84-8.3,11.83
				c-2.69,3.99-5.5,7.92-8.25,11.88C683.16,344.2,680.39,348.16,677.4,351.96z"/>
		</g>
	</g>
	<g>
		<g>
			<path class="st5" d="M687.4,378.05c8.24,2.8,11.52,4.55,14.47,4.78c5.28-4.12,9.44-9.12,12.69-14.22
				c-10.81,1.63-16.98-1.69-16.98-1.69c6.79,1.96,14.47,0.49,18.33-0.53c7.64-13.03,9.66-25.98,9.66-25.98
				c-4.54-0.07-8.73,0.07-12.63,0.4c-4.56,5.44-9.15,13.06-9.15,13.06c1.34-3.99,4.39-9.16,6.73-12.82
				c-5.64,0.61-10.65,1.64-15.15,3.05c-4.85,5.41-10.62,16.57-10.62,16.57c1.29-4.89,4.94-11.65,7.05-15.33
				c-7.69,2.92-13.9,7.03-19.5,12.07c-2.58,5.73-4.58,11.87-4.58,11.87c0.27-2.84,1.19-6.38,2.21-9.64
				c-6.14,5.97-11.67,13.08-17.87,20.93l-3.35,8.07l10.9,3.05c16.86,3.03,29.54-0.34,39.02-6.54
				C695.96,382.08,687.4,378.05,687.4,378.05z"/>
		</g>
		<g>
			<path class="st11" d="M651.16,387.41c2.95-0.71,5.78-1.84,8.52-3.13c2.74-1.29,5.41-2.74,8.04-4.26
				c5.27-3.02,10.38-6.3,15.49-9.59c5.11-3.29,10.14-6.73,15.4-9.8c2.63-1.54,5.28-3.04,7.99-4.45c2.7-1.41,5.46-2.73,8.28-3.89
				l0.06,0.13c-5.27,3.05-10.43,6.23-15.57,9.46c-5.13,3.24-10.36,6.35-15.54,9.54c-5.19,3.17-10.4,6.34-15.76,9.24
				c-2.69,1.44-5.42,2.8-8.22,4.01c-2.8,1.21-5.68,2.25-8.67,2.87L651.16,387.41z"/>
		</g>
	</g>
	<g>
		<g>
			<g>
				<g>
					<path class="st8" d="M294.06,282.25c-0.18-1.36-0.4-2.69-0.64-4L294.06,282.25z"/>
				</g>
				<g>
					<path class="st8" d="M290.94,288.97l2.47-10.77c-1.22-6.51-3.14-12.36-5.03-16.83c-3.76,2.25-6.84,11.18-6.84,11.18
						c2.43-9.39,4.2-11.97,5.01-15.04c-3.34-6.37-9.63-10.83-14.39-15.25C271.8,254,271,256.79,271,256.79
						c0.8-6.9-0.6-12.11-0.93-16.39c-12.3-10.58-19.98-10.28-19.98-10.28c-0.94,4.78-1.6,15.71-2,19.89
						c4.88,5.86,12.05,12.18,12.05,12.18c-3.96-2.18-8.84-6.4-12.26-9.58c-0.44,6.08-0.3,5.1,0.33,10.13
						c4.79,6.17,15.47,14.41,15.47,14.41c-4.92-2.31-11.36-7.46-14.85-10.4c1.61,8.69,4.76,16.04,9.01,22.92
						c5.56,3.82,11.66,7.12,11.66,7.12c-2.95-0.83-6.51-2.48-9.77-4.18c5.14,7.63,11.58,14.84,18.7,22.9l7.89,5.09l5.32-10.94
						c3.33-8.92,3.61-18.54,2.45-27.3L290.94,288.97z"/>
				</g>
			</g>
			<g>
				<path class="st4" d="M281.6,298.61c1,3.12,1.92,6.26,2.67,9.45c0.75,3.19,1.29,6.44,1.37,9.72l-0.16,0
					c-0.19-3.26-0.83-6.46-1.67-9.61c-0.84-3.15-1.86-6.25-2.95-9.31c-2.18-6.15-4.66-12.18-7.17-18.21
					c-2.5-6.03-5.17-12.01-7.41-18.16c-1.12-3.07-2.2-6.17-3.17-9.3c-0.98-3.13-1.84-6.29-2.52-9.5l0.15-0.04
					c2.21,6.16,4.58,12.22,7.01,18.27c2.44,6.05,4.73,12.16,7.1,18.25C277.21,286.28,279.56,292.39,281.6,298.61z"/>
			</g>
		</g>
		<g>
			<g>
				<path class="st5" d="M264.01,305.53c2.71-11.37,4.63-15.98,4.57-19.95c-6.17-6.54-13.37-11.47-20.6-15.19
					c3.54,14.25-0.13,22.91-0.13,22.91c1.77-9.32-1.16-19.4-3.01-24.44c-18.38-8.58-35.95-9.65-35.95-9.65
					c0.48,6.07,1.2,11.66,2.13,16.83c7.85,5.41,18.61,10.6,18.61,10.6c-5.51-1.29-12.8-4.72-17.99-7.39
					c1.53,7.47,3.54,14.03,5.99,19.87c7.84,5.81,23.48,12.12,23.48,12.12c-6.7-1.11-16.2-5.14-21.39-7.51
					c4.87,9.92,11.14,17.7,18.58,24.55c7.99,2.73,16.44,4.64,16.44,4.64c-3.83-0.01-8.68-0.79-13.17-1.74
					c8.76,7.45,18.95,13.96,30.23,21.27l11.21,3.47l2.71-14.96c1.93-22.93-4.16-39.45-13.65-51.35
					C268.32,293.58,264.01,305.53,264.01,305.53z"/>
			</g>
			<g>
				<path class="st11" d="M281.07,352.81c-1.32-3.86-3.18-7.5-5.26-11c-2.07-3.51-4.34-6.89-6.7-10.22
					c-4.7-6.66-9.72-13.09-14.77-19.51c-5.04-6.42-10.27-12.71-15.04-19.36c-2.39-3.32-4.73-6.68-6.95-10.13
					c-2.23-3.43-4.33-6.96-6.24-10.58l0.17-0.1c4.73,6.67,9.64,13.16,14.61,19.63c4.98,6.45,9.8,13.05,14.71,19.58
					c4.9,6.54,9.78,13.11,14.33,19.91c2.26,3.41,4.43,6.89,6.4,10.48c1.97,3.59,3.72,7.32,4.93,11.24L281.07,352.81z"/>
			</g>
		</g>
	</g>
	<g>
		<g>
			<path class="st5" d="M512.05,229.39c4.65-8.22,7.13-11.41,8.03-14.46c-2.93-6.16-6.98-11.28-11.35-15.47
				c-0.8,11.59-5.5,17.56-5.5,17.56c3.49-6.82,3.74-15.1,3.59-19.31c-11.29-9.99-23.78-14.07-23.78-14.07
				c-1.08,4.75-1.89,9.17-2.43,13.31c4.41,5.6,10.99,11.58,10.99,11.58c-3.69-2.01-8.16-5.99-11.29-9.01
				c-0.66,6.02-0.75,11.42-0.36,16.36c4.31,5.91,14.16,13.65,14.16,13.65c-4.6-2.1-10.53-6.95-13.73-9.72
				c1.18,8.51,3.9,15.65,7.67,22.28c5.14,3.57,10.82,6.6,10.82,6.6c-2.77-0.72-6.1-2.22-9.14-3.78
				c4.59,7.34,10.44,14.22,16.89,21.92l7.31,4.74l5.5-10.98c6.81-17.24,6.3-31.04,2.24-41.93
				C517.99,221.02,512.05,229.39,512.05,229.39z"/>
		</g>
		<g>
			<path class="st11" d="M513.24,268.84c-0.05-3.2-0.53-6.35-1.21-9.42c-0.67-3.07-1.52-6.09-2.44-9.08
				c-1.83-5.98-3.95-11.85-6.1-17.71c-2.14-5.86-4.44-11.66-6.33-17.65c-0.95-2.99-1.85-6-2.65-9.06c-0.81-3.05-1.5-6.14-2.02-9.28
				l0.15-0.05c1.86,5.99,3.88,11.89,5.95,17.77c2.09,5.88,4.02,11.83,6.04,17.75c2,5.93,3.99,11.87,5.69,17.94
				c0.83,3.04,1.58,6.11,2.16,9.23c0.58,3.12,0.97,6.31,0.92,9.54L513.24,268.84z"/>
		</g>
	</g>
	<g>
		<g>
			<path class="st12" d="M523.72,307.29l-3.09-15.64c-2.7-20.83-0.56-37.67,6.37-50.1l0.29-0.52l0.34,0.49
				c1.46,2.12,3.11,6.02,4.45,9.54c-0.26-1.01-0.5-1.94-0.73-2.81c-1.23-4.74-1.98-7.6-2.13-10.15l-0.01-0.13l0.07-0.1
				c3.69-5.37,8.41-9.76,14.03-13.06l0.64-0.37l-0.08,0.73c-0.68,6-0.45,11.11,0.04,14.96c-0.25-6.65,0.68-12.7,1.4-16.27l0.04-0.17
				l0.16-0.08c12.7-6.56,25.52-5.81,25.64-5.8l0.34,0.02l0,0.34c0.07,5.91-0.05,11.5-0.37,16.62l-0.01,0.16l-0.12,0.1
				c-3.43,2.93-7.77,5.67-10.43,7.24c3.32-1.11,7.01-3.07,9.78-4.7l0.61-0.36l-0.06,0.71c-0.58,7.2-1.55,13.51-2.97,19.28
				l-0.03,0.11l-0.08,0.08c-3.76,3.52-10.21,6.82-13.78,8.5c4.31-0.99,9.28-3.27,12.16-4.71l0.77-0.38l-0.25,0.82
				c-2.67,8.81-6.44,16.01-11.86,22.66l-0.07,0.08l-0.1,0.03c-3.23,1.07-6.61,1.86-8.9,2.34c1.88,0.02,4.08-0.15,6.56-0.51
				l1.01-0.15l-0.68,0.76c-5.58,6.21-12.29,11.52-19.4,17.14l-1.25,0.96L523.72,307.29z M527.35,242.44
				c-6.62,12.24-8.64,28.75-5.99,49.09l2.93,14.83l7.45-2.13l1.07-0.85c6.8-5.37,13.23-10.46,18.63-16.31
				c-3.45,0.44-6.32,0.5-8.55,0.18l-2.35-0.34l2.34-0.39c0.06-0.01,5.98-1,11.47-2.81c5.15-6.34,8.79-13.2,11.4-21.51
				c-3.7,1.81-9.85,4.48-14.38,4.85l-2.28,0.18l2.11-0.89c0.11-0.05,10.82-4.61,16.03-9.44c1.35-5.51,2.29-11.52,2.87-18.35
				c-3.55,2.05-8.31,4.48-12.07,5.13l-2.25,0.4l2.02-1.09c0.07-0.04,7.38-4,12.6-8.44c0.3-4.96,0.43-10.36,0.36-16.06
				c-2.09-0.07-13.45-0.14-24.76,5.65c-1,4.96-2.34,14.5-0.44,23.79l-0.71,0.2c-0.03-0.09-3.17-8.97-1.79-22.35
				c-5.22,3.18-9.62,7.33-13.09,12.36c0.16,2.44,0.9,5.26,2.1,9.88c0.71,2.71,1.58,6.09,2.6,10.37l-0.71,0.2
				C533.91,258.5,530.26,247.11,527.35,242.44z"/>
		</g>
		<g>
			<path class="st12" d="M528.05,299.08l-0.37-0.2l0.04-0.25c0.54-3.38,1.46-6.9,2.81-10.76c1.06-3.04,2.31-6.15,3.93-9.81
				c2.77-6.17,5.73-11.98,9.03-18.38c1.08-2.09,2.16-4.18,3.23-6.28c1.98-3.86,4.02-7.85,6.09-11.71
				c2.77-5.21,6.04-11.42,9.24-18.03l0.66,0.32c-3.2,6.62-6.47,12.84-9.25,18.06c-2.07,3.85-4.11,7.84-6.09,11.7
				c-1.07,2.1-2.15,4.19-3.23,6.28c-3.3,6.39-6.25,12.18-9.02,18.34c-1.61,3.64-2.85,6.74-3.91,9.76c-1.34,3.82-2.25,7.3-2.78,10.63
				l-0.19-0.03L528.05,299.08z"/>
		</g>
	</g>
	<g>
		<g>
			<g>
				<path class="st5" d="M734.88,327.77c-0.1,0.02-0.2,0-0.29-0.06c-0.16-0.12-0.19-0.34-0.08-0.5c0.71-0.96,1.4-1.93,2.09-2.9
					c0.11-0.16,0.34-0.2,0.5-0.08c0.16,0.11,0.2,0.34,0.09,0.5c-0.69,0.97-1.39,1.94-2.1,2.91
					C735.04,327.7,734.96,327.75,734.88,327.77z M739.02,321.92c-0.09,0.02-0.2,0.01-0.28-0.05c-0.16-0.11-0.2-0.33-0.09-0.5
					c0.67-0.98,1.34-1.97,1.99-2.97c0.11-0.16,0.33-0.21,0.5-0.1c0.16,0.11,0.21,0.33,0.1,0.5c-0.66,0.99-1.33,1.99-2,2.98
					C739.18,321.85,739.1,321.9,739.02,321.92z M742.97,315.95c-0.09,0.02-0.19,0.01-0.27-0.05c-0.17-0.11-0.22-0.33-0.11-0.49
					c0.64-1.01,1.27-2.02,1.9-3.03c0.1-0.17,0.32-0.22,0.49-0.12c0.17,0.1,0.22,0.32,0.12,0.49c-0.63,1.02-1.26,2.03-1.9,3.04
					C743.14,315.88,743.05,315.93,742.97,315.95z M746.72,309.85c-0.09,0.02-0.18,0.01-0.26-0.04c-0.17-0.1-0.23-0.32-0.13-0.49
					c0.61-1.03,1.21-2.06,1.8-3.09c0.1-0.17,0.32-0.23,0.49-0.13c0.17,0.1,0.23,0.32,0.13,0.49c-0.59,1.04-1.19,2.07-1.8,3.1
					C746.89,309.77,746.81,309.83,746.72,309.85z M750.26,303.63c-0.08,0.02-0.17,0.01-0.25-0.03c-0.17-0.1-0.24-0.31-0.14-0.49
					c0.57-1.05,1.14-2.1,1.69-3.15c0.09-0.17,0.31-0.24,0.48-0.15c0.17,0.09,0.24,0.31,0.15,0.48c-0.55,1.06-1.12,2.11-1.7,3.16
					C750.45,303.55,750.36,303.61,750.26,303.63z M753.6,297.3c-0.08,0.02-0.16,0.01-0.24-0.03c-0.18-0.09-0.25-0.3-0.16-0.48
					c0.01-0.02,0.02-0.05,0.04-0.07c-0.81,0.17-1.61,0.34-2.42,0.5c-0.19,0.04-0.38-0.09-0.42-0.28c-0.04-0.19,0.07-0.38,0.28-0.42
					c0.99-0.2,1.98-0.4,2.97-0.61c0.38-0.77,0.76-1.54,1.13-2.31c0.09-0.18,0.3-0.25,0.48-0.17c0.18,0.09,0.25,0.3,0.17,0.48
					c-0.31,0.65-0.63,1.3-0.96,1.95c0.07,0.05,0.11,0.12,0.13,0.21c0.04,0.19-0.08,0.38-0.27,0.42c-0.06,0.02-0.13,0.03-0.2,0.04
					c-0.1,0.2-0.2,0.39-0.3,0.59C753.79,297.21,753.7,297.27,753.6,297.3z M757.82,295.69c-0.19,0.04-0.38-0.08-0.43-0.27
					c-0.05-0.19,0.07-0.39,0.27-0.43c1.16-0.27,2.32-0.56,3.47-0.85c0.21-0.05,0.39,0.07,0.44,0.26c0.05,0.19-0.07,0.39-0.26,0.44
					C760.15,295.12,758.98,295.41,757.82,295.69C757.82,295.69,757.82,295.69,757.82,295.69z M764.75,293.91
					c-0.19,0.04-0.37-0.07-0.43-0.25c-0.05-0.19,0.06-0.39,0.25-0.44c1.15-0.32,2.29-0.64,3.44-0.98c0.21-0.06,0.39,0.05,0.44,0.24
					c0.06,0.19-0.05,0.39-0.24,0.44c-1.15,0.34-2.3,0.67-3.45,0.98C764.76,293.91,764.76,293.91,764.75,293.91z M747.31,297.87
					c-0.01,0-0.01,0-0.02,0c-1.18,0.21-2.36,0.41-3.54,0.6c-0.2,0.03-0.38-0.1-0.41-0.3c-0.03-0.2,0.1-0.39,0.3-0.41
					c1.18-0.19,2.35-0.39,3.52-0.6c0.19-0.04,0.38,0.09,0.42,0.29C747.61,297.65,747.49,297.83,747.31,297.87z M771.62,291.88
					c-0.18,0.04-0.36-0.06-0.42-0.24c-0.06-0.19,0.04-0.39,0.23-0.45c1.14-0.36,2.27-0.73,3.4-1.11c0.2-0.06,0.39,0.04,0.45,0.22
					c0.06,0.19-0.04,0.39-0.22,0.45c-1.13,0.38-2.27,0.75-3.41,1.11C771.64,291.88,771.63,291.88,771.62,291.88z M740.24,299.01
					c-0.01,0-0.02,0-0.03,0.01c-1.18,0.17-2.37,0.32-3.56,0.47c-0.2,0.02-0.37-0.12-0.4-0.31c-0.02-0.2,0.12-0.37,0.31-0.4
					c1.18-0.15,2.36-0.3,3.54-0.47c0.2-0.03,0.38,0.11,0.4,0.3C740.54,298.79,740.42,298.96,740.24,299.01z M778.41,289.61
					c-0.17,0.04-0.35-0.06-0.42-0.23c-0.07-0.19,0.03-0.39,0.22-0.46c1.12-0.4,2.24-0.81,3.36-1.23c0.18-0.07,0.39,0.02,0.46,0.21
					c0.07,0.18-0.02,0.39-0.21,0.46c-1.12,0.42-2.24,0.83-3.37,1.24C778.43,289.6,778.42,289.6,778.41,289.61z M733.13,299.87
					c-0.02,0-0.03,0.01-0.05,0.01c-1.3,0.12-2.48,0.2-3.6,0.24c-0.2,0.01-0.36-0.15-0.37-0.35c-0.01-0.2,0.15-0.36,0.35-0.37
					c1.11-0.04,2.27-0.11,3.55-0.24c0.2-0.02,0.37,0.13,0.39,0.32C733.43,299.67,733.31,299.83,733.13,299.87z M785.1,287.08
					c-0.17,0.04-0.35-0.05-0.41-0.22c-0.07-0.18,0.02-0.39,0.2-0.47c1.11-0.44,2.21-0.89,3.31-1.35c0.18-0.08,0.39,0.01,0.47,0.19
					c0.08,0.18-0.01,0.39-0.19,0.47c-1.1,0.46-2.21,0.92-3.32,1.36C785.14,287.07,785.12,287.08,785.1,287.08z M725.98,300.08
					c-0.03,0.01-0.07,0.01-0.1,0.01c-1.29-0.07-2.5-0.21-3.6-0.42c-0.19-0.04-0.32-0.22-0.29-0.42c0.04-0.19,0.23-0.32,0.42-0.29
					c1.07,0.2,2.25,0.34,3.51,0.41c0.2,0.01,0.35,0.18,0.34,0.38C726.25,299.92,726.13,300.05,725.98,300.08z M791.7,284.3
					c-0.16,0.04-0.34-0.04-0.41-0.2c-0.08-0.18,0-0.39,0.18-0.47c1.09-0.48,2.17-0.97,3.25-1.48c0.18-0.08,0.39-0.01,0.48,0.17
					c0.08,0.18,0.01,0.39-0.17,0.48c-1.08,0.5-2.17,1-3.27,1.48C791.75,284.29,791.72,284.3,791.7,284.3z M756.71,290.85
					c-0.07,0.02-0.15,0.01-0.23-0.02c-0.18-0.08-0.26-0.3-0.17-0.47c0.5-1.08,0.99-2.17,1.47-3.26c0.08-0.18,0.29-0.26,0.47-0.18
					c0.18,0.08,0.26,0.29,0.18,0.47c-0.48,1.09-0.97,2.18-1.47,3.27C756.9,290.75,756.81,290.83,756.71,290.85z M798.19,281.28
					c-0.16,0.04-0.33-0.04-0.4-0.19c-0.09-0.18-0.01-0.39,0.16-0.48l0.77-0.38c0.17-0.09,0.39-0.02,0.48,0.16
					c0.09,0.18,0.01,0.39-0.16,0.48l-0.77,0.38C798.25,281.27,798.22,281.28,798.19,281.28z M719,298.67
					c-0.07,0.02-0.15,0.01-0.22-0.02c-1.2-0.5-2.26-1.14-3.15-1.89c-0.15-0.13-0.17-0.35-0.04-0.5c0.13-0.15,0.35-0.17,0.5-0.04
					c0.83,0.71,1.83,1.3,2.96,1.78c0.18,0.08,0.27,0.29,0.19,0.47C719.2,298.57,719.1,298.65,719,298.67z M759.58,284.29
					c-0.07,0.02-0.14,0.01-0.21-0.02c-0.18-0.07-0.27-0.28-0.2-0.47c0.49-1.2,0.89-2.29,1.22-3.33c0.06-0.19,0.26-0.29,0.45-0.23
					c0.19,0.06,0.29,0.26,0.23,0.45c-0.34,1.06-0.74,2.17-1.24,3.39C759.79,284.19,759.69,284.27,759.58,284.29z M713.71,294.07
					c-0.15,0.04-0.32-0.03-0.4-0.18c-0.43-0.81-0.75-1.69-0.97-2.61c-0.07-0.29-0.12-0.59-0.17-0.89c-0.03-0.2,0.12-0.37,0.3-0.41
					c0.2-0.03,0.38,0.11,0.41,0.3c0.04,0.28,0.09,0.56,0.16,0.83c0.2,0.87,0.5,1.69,0.9,2.44c0.09,0.17,0.03,0.39-0.15,0.48
					C713.77,294.05,713.74,294.06,713.71,294.07z M761.69,277.47c-0.05,0.01-0.09,0.01-0.14,0c-0.19-0.03-0.32-0.22-0.29-0.42
					c0.22-1.24,0.31-2.42,0.27-3.48c-0.01-0.2,0.15-0.37,0.34-0.37c0.2-0.01,0.36,0.14,0.37,0.34c0.05,1.12-0.05,2.34-0.28,3.64
					C761.94,277.33,761.83,277.43,761.69,277.47z M712.62,287.11c-0.04,0.01-0.09,0.01-0.13,0.01c-0.2-0.03-0.33-0.21-0.3-0.4
					c0.16-1.17,0.48-2.35,0.94-3.53c0.07-0.18,0.28-0.27,0.46-0.2c0.18,0.07,0.27,0.28,0.2,0.46c-0.44,1.13-0.74,2.26-0.9,3.37
					C712.87,286.97,712.76,287.08,712.62,287.11z M761.25,270.41c-0.17,0.04-0.34-0.05-0.41-0.22c-0.41-1.01-1-1.93-1.76-2.72
					l-0.12-0.12c-0.14-0.14-0.14-0.37,0-0.51c0.14-0.14,0.37-0.14,0.51,0l0.13,0.13c0.83,0.86,1.47,1.86,1.91,2.95
					c0.07,0.18-0.02,0.39-0.2,0.47C761.29,270.4,761.27,270.41,761.25,270.41z M715.16,280.48c-0.09,0.02-0.19,0.01-0.27-0.05
					c-0.17-0.1-0.22-0.33-0.11-0.49c0.62-1,1.35-1.98,2.16-2.92c0.13-0.15,0.35-0.17,0.5-0.04c0.15,0.13,0.17,0.35,0.04,0.5
					c-0.79,0.91-1.49,1.87-2.1,2.83C715.33,280.4,715.25,280.46,715.16,280.48z M719.8,275.06c-0.12,0.03-0.26-0.01-0.35-0.11
					c-0.13-0.15-0.12-0.37,0.03-0.51l0.32-0.28c0.78-0.67,1.63-1.33,2.51-1.96c0.16-0.12,0.39-0.08,0.5,0.09
					c0.11,0.16,0.08,0.38-0.09,0.5c-0.87,0.61-1.7,1.26-2.46,1.92l-0.32,0.28C719.92,275.02,719.86,275.04,719.8,275.06z
					 M756.37,265.41c-0.08,0.02-0.16,0.01-0.23-0.03c-0.98-0.47-2.1-0.82-3.31-1.06c-0.19-0.04-0.32-0.23-0.28-0.42
					c0.04-0.19,0.23-0.32,0.42-0.28c1.28,0.25,2.45,0.63,3.48,1.12c0.18,0.08,0.25,0.3,0.17,0.48
					C756.57,265.32,756.47,265.39,756.37,265.41z M725.62,270.91c-0.15,0.03-0.31-0.03-0.39-0.17c-0.1-0.17-0.04-0.39,0.13-0.49
					c1.01-0.58,2.08-1.15,3.19-1.69c0.18-0.09,0.39-0.01,0.48,0.17c0.09,0.18,0.01,0.39-0.17,0.48c-1.09,0.53-2.15,1.09-3.14,1.66
					C725.69,270.89,725.66,270.9,725.62,270.91z M749.42,263.95c-0.03,0.01-0.06,0.01-0.09,0.01c-1.12-0.03-2.31,0.02-3.53,0.14
					c-0.2,0.02-0.37-0.12-0.39-0.32c-0.02-0.2,0.13-0.38,0.32-0.39c1.25-0.12,2.47-0.17,3.62-0.14c0.2,0.01,0.35,0.17,0.35,0.37
					C749.69,263.78,749.57,263.92,749.42,263.95z M732.06,267.78c-0.17,0.04-0.34-0.05-0.41-0.21c-0.07-0.18,0.01-0.39,0.2-0.47
					c1.07-0.44,2.2-0.86,3.37-1.27c0.18-0.06,0.39,0.03,0.46,0.22c0.07,0.19-0.03,0.39-0.22,0.46c-1.15,0.4-2.28,0.83-3.33,1.26
					C732.1,267.77,732.08,267.78,732.06,267.78z M738.82,265.44c-0.19,0.04-0.37-0.07-0.42-0.25c-0.05-0.19,0.06-0.39,0.25-0.44
					c1.19-0.33,2.35-0.6,3.51-0.83c0.19-0.04,0.38,0.09,0.42,0.28c0.04,0.19-0.08,0.37-0.27,0.42c0,0-0.01,0-0.01,0
					c-1.14,0.22-2.28,0.49-3.46,0.82C738.83,265.44,738.82,265.44,738.82,265.44z"/>
			</g>
		</g>
		<g>
			<g>
				<polygon class="st6" points="825.96,263.44 800.63,272.25 804.18,281.38 				"/>
			</g>
			<g>
				<polygon class="st7" points="825.96,263.44 805.23,273.99 804.18,281.38 				"/>
			</g>
			<g>
				<polygon class="st5" points="825.96,263.44 793.42,267.9 800.63,272.25 				"/>
			</g>
			<g>
				<polygon class="st5" points="825.96,263.44 805.23,273.99 814.24,278.56 				"/>
			</g>
		</g>
	</g>
	<g>
		<path class="st8" d="M423.52,213.09c-6.25,0-8.73,2.58-8.73,8.14c0,0.51-0.97,0.51-0.97,0c0-5.56-1.98-8.14-8.73-8.14
			c-0.5,0-0.5-0.97,0-0.97c6.96,0,8.73-3.22,8.73-8.13c0-0.51,0.97-0.51,0.97,0c0,5.85,2.37,8.13,8.73,8.13
			C424.02,212.11,424.02,213.09,423.52,213.09z"/>
	</g>
	<g>
		<g>
			<path class="st8" d="M603.88,245.95c-6.25,0-8.73,2.58-8.73,8.14c0,0.51-0.97,0.51-0.97,0c0-5.56-1.98-8.14-8.73-8.14
				c-0.5,0-0.5-0.97,0-0.97c6.96,0,8.73-3.22,8.73-8.13c0-0.51,0.97-0.51,0.97,0c0,5.85,2.37,8.13,8.73,8.13
				C604.38,244.97,604.38,245.95,603.88,245.95z"/>
		</g>
		<g>
			<g>
				<path class="st12" d="M710.4,238.28c-5.38,0-7.5,2.22-7.5,7c0,0.44-0.84,0.44-0.84,0c0-4.78-1.7-7-7.5-7
					c-0.43,0-0.43-0.84,0-0.84c5.98,0,7.5-2.77,7.5-6.99c0-0.44,0.84-0.44,0.84,0c0,5.03,2.04,6.99,7.5,6.99
					C710.83,237.44,710.83,238.28,710.4,238.28z"/>
			</g>
			<g>
				<path class="st12" d="M677.61,195.54c-7.12,0-9.94,2.94-9.94,9.28c0,0.58-1.11,0.58-1.11,0c0-6.33-2.25-9.28-9.94-9.28
					c-0.57,0-0.57-1.11,0-1.11c7.92,0,9.94-3.67,9.94-9.26c0-0.58,1.11-0.58,1.11,0c0,6.67,2.7,9.26,9.94,9.26
					C678.18,194.43,678.18,195.54,677.61,195.54z"/>
			</g>
			<g>
				<path class="st12" d="M727.42,156.65c-12.56,0-17.52,5.19-17.52,16.35c0,1.03-1.95,1.03-1.95,0c0-11.16-3.97-16.35-17.52-16.35
					c-1.01,0-1.01-1.96,0-1.96c13.97,0,17.52-6.47,17.52-16.33c0-1.03,1.95-1.03,1.95,0c0,11.75,4.75,16.33,17.52,16.33
					C728.43,154.69,728.43,156.65,727.42,156.65z"/>
			</g>
		</g>
	</g>
</g>
<g>
	<path class="st12" d="M363.55,438.09c0,1.55-0.2,2.97-0.6,4.26c-0.4,1.29-0.98,2.4-1.72,3.33c-0.75,0.93-1.69,1.65-2.81,2.17
		c-1.12,0.52-2.4,0.78-3.82,0.78c-0.96,0-1.83-0.12-2.64-0.35c-0.8-0.23-1.46-0.49-1.98-0.78v7.87h-4.69v-26.78
		c0.96-0.26,2.13-0.5,3.53-0.74c1.4-0.23,2.87-0.35,4.42-0.35c1.6,0,3.04,0.25,4.3,0.74c1.27,0.49,2.34,1.2,3.24,2.11
		c0.89,0.92,1.58,2.03,2.05,3.33C363.31,435,363.55,436.46,363.55,438.09z M358.75,438.17c0-2.09-0.47-3.72-1.41-4.88
		c-0.94-1.16-2.46-1.74-4.55-1.74c-0.44,0-0.9,0.02-1.38,0.06c-0.48,0.04-0.95,0.12-1.41,0.25v11.59c0.41,0.28,0.96,0.55,1.65,0.79
		c0.68,0.25,1.41,0.37,2.19,0.37c1.71,0,2.95-0.58,3.74-1.74C358.35,441.69,358.75,440.13,358.75,438.17z"/>
	<path class="st12" d="M375.14,427.43c1.55,0,2.85,0.19,3.91,0.58c1.06,0.39,1.91,0.93,2.54,1.63c0.63,0.7,1.09,1.54,1.36,2.54
		c0.27,0.99,0.41,2.09,0.41,3.27v12.28c-0.72,0.15-1.82,0.34-3.27,0.56c-1.46,0.22-3.11,0.33-4.94,0.33c-1.21,0-2.32-0.12-3.33-0.35
		c-1.01-0.23-1.87-0.61-2.58-1.12c-0.71-0.52-1.27-1.19-1.67-2.01c-0.4-0.83-0.6-1.85-0.6-3.06c0-1.16,0.23-2.14,0.68-2.95
		c0.45-0.8,1.07-1.45,1.84-1.96c0.77-0.5,1.67-0.87,2.69-1.09c1.02-0.22,2.09-0.33,3.2-0.33c0.52,0,1.06,0.03,1.63,0.1
		c0.57,0.06,1.17,0.17,1.82,0.33v-0.77c0-0.54-0.06-1.06-0.19-1.55c-0.13-0.49-0.36-0.92-0.68-1.3c-0.32-0.37-0.75-0.66-1.28-0.87
		c-0.53-0.21-1.19-0.31-2-0.31c-1.09,0-2.08,0.08-2.98,0.23c-0.9,0.15-1.64,0.34-2.21,0.54l-0.58-3.8c0.59-0.21,1.46-0.41,2.6-0.62
		C372.63,427.54,373.85,427.43,375.14,427.43z M375.53,444.91c1.45,0,2.54-0.08,3.29-0.23v-5.19c-0.26-0.08-0.63-0.16-1.12-0.23
		c-0.49-0.08-1.03-0.12-1.63-0.12c-0.52,0-1.04,0.04-1.57,0.12c-0.53,0.08-1.01,0.22-1.43,0.43c-0.43,0.21-0.77,0.5-1.03,0.87
		c-0.26,0.37-0.39,0.85-0.39,1.41c0,1.11,0.35,1.88,1.05,2.31C373.4,444.7,374.34,444.91,375.53,444.91z"/>
	<path class="st12" d="M405.83,446.15c0,3.23-0.82,5.59-2.46,7.09c-1.64,1.5-4.15,2.25-7.54,2.25c-1.24,0-2.45-0.1-3.62-0.31
		c-1.18-0.21-2.24-0.48-3.2-0.81l0.85-3.99c0.8,0.34,1.71,0.61,2.73,0.81c1.02,0.21,2.12,0.31,3.31,0.31c1.89,0,3.23-0.39,4.03-1.16
		c0.8-0.78,1.2-1.92,1.2-3.45v-0.78c-0.46,0.23-1.08,0.46-1.84,0.7c-0.76,0.23-1.63,0.35-2.62,0.35c-1.29,0-2.47-0.21-3.55-0.62
		c-1.07-0.41-1.99-1.02-2.75-1.82c-0.76-0.8-1.36-1.8-1.78-3c-0.43-1.2-0.64-2.59-0.64-4.17c0-1.47,0.23-2.83,0.68-4.07
		c0.45-1.24,1.11-2.3,1.98-3.18c0.86-0.88,1.92-1.56,3.16-2.05c1.24-0.49,2.65-0.74,4.22-0.74c1.52,0,2.97,0.12,4.34,0.35
		c1.37,0.23,2.53,0.48,3.49,0.74V446.15z M392.77,437.55c0,1.99,0.43,3.44,1.3,4.36c0.87,0.92,1.98,1.38,3.35,1.38
		c0.75,0,1.45-0.1,2.11-0.31c0.66-0.21,1.19-0.45,1.61-0.74v-10.5c-0.34-0.08-0.75-0.15-1.24-0.21c-0.49-0.06-1.11-0.1-1.86-0.1
		c-1.71,0-3.01,0.56-3.91,1.69C393.22,434.23,392.77,435.71,392.77,437.55z"/>
	<path class="st12" d="M410.67,438.17c0-1.78,0.26-3.35,0.79-4.69c0.53-1.34,1.23-2.46,2.11-3.35c0.88-0.89,1.89-1.56,3.02-2.01
		c1.14-0.45,2.3-0.68,3.49-0.68c2.79,0,4.97,0.87,6.53,2.6c1.56,1.73,2.34,4.32,2.34,7.75c0,0.26-0.01,0.55-0.02,0.87
		c-0.01,0.32-0.03,0.61-0.06,0.87h-13.37c0.13,1.63,0.7,2.89,1.72,3.78c1.02,0.89,2.5,1.34,4.44,1.34c1.14,0,2.18-0.1,3.12-0.31
		c0.94-0.21,1.69-0.43,2.23-0.66l0.62,3.84c-0.26,0.13-0.61,0.27-1.07,0.41c-0.45,0.14-0.97,0.27-1.55,0.39
		c-0.58,0.12-1.21,0.21-1.88,0.29c-0.67,0.08-1.36,0.12-2.05,0.12c-1.78,0-3.33-0.27-4.65-0.79c-1.32-0.53-2.4-1.27-3.26-2.21
		c-0.85-0.94-1.49-2.05-1.9-3.33C410.88,441.09,410.67,439.69,410.67,438.17z M424.28,436.07c0-0.65-0.09-1.26-0.27-1.84
		c-0.18-0.58-0.45-1.08-0.79-1.51c-0.35-0.43-0.77-0.76-1.28-1.01c-0.5-0.25-1.1-0.37-1.8-0.37c-0.72,0-1.36,0.14-1.9,0.41
		c-0.54,0.27-1,0.63-1.38,1.07c-0.37,0.44-0.66,0.94-0.87,1.51c-0.21,0.57-0.35,1.15-0.43,1.74H424.28z"/>
	<path class="st12" d="M442.95,428.59c0.9-0.26,2.08-0.5,3.53-0.74c1.45-0.23,3.05-0.35,4.81-0.35c1.65,0,3.04,0.23,4.15,0.68
		c1.11,0.45,2,1.08,2.65,1.9c0.66,0.81,1.12,1.79,1.39,2.94c0.27,1.15,0.41,2.41,0.41,3.78v11.39h-4.69v-10.66
		c0-1.09-0.07-2.01-0.21-2.77c-0.14-0.76-0.37-1.38-0.7-1.86c-0.32-0.48-0.76-0.83-1.32-1.05c-0.56-0.22-1.23-0.33-2.03-0.33
		c-0.59,0-1.22,0.04-1.86,0.12c-0.65,0.08-1.12,0.14-1.43,0.19v16.35h-4.69V428.59z"/>
	<path class="st12" d="M483.95,438.05c0,1.6-0.23,3.06-0.7,4.38c-0.46,1.32-1.12,2.44-1.98,3.37c-0.85,0.93-1.88,1.65-3.08,2.17
		c-1.2,0.52-2.53,0.78-3.97,0.78c-1.45,0-2.77-0.26-3.95-0.78c-1.19-0.52-2.21-1.24-3.06-2.17c-0.85-0.93-1.52-2.05-2-3.37
		c-0.48-1.32-0.72-2.78-0.72-4.38c0-1.6,0.24-3.06,0.72-4.36c0.48-1.3,1.15-2.42,2.02-3.35c0.87-0.93,1.89-1.65,3.08-2.15
		c1.19-0.5,2.49-0.76,3.91-0.76c1.42,0,2.73,0.25,3.93,0.76c1.2,0.5,2.23,1.22,3.08,2.15c0.85,0.93,1.52,2.05,2,3.35
		C483.71,435,483.95,436.45,483.95,438.05z M479.15,438.05c0-2.02-0.43-3.61-1.3-4.79c-0.87-1.18-2.07-1.76-3.62-1.76
		c-1.55,0-2.76,0.59-3.62,1.76c-0.87,1.18-1.3,2.77-1.3,4.79c0,2.04,0.43,3.66,1.3,4.84c0.86,1.19,2.07,1.78,3.62,1.78
		c1.55,0,2.76-0.59,3.62-1.78C478.71,441.71,479.15,440.09,479.15,438.05z"/>
	<path class="st12" d="M488.56,422.59l4.69-0.78v6.12h7.21v3.91h-7.21v8.25c0,1.63,0.26,2.79,0.78,3.49
		c0.52,0.7,1.39,1.05,2.64,1.05c0.85,0,1.61-0.09,2.27-0.27c0.66-0.18,1.18-0.35,1.57-0.5l0.77,3.72c-0.54,0.23-1.25,0.47-2.13,0.72
		c-0.88,0.25-1.91,0.37-3.1,0.37c-1.45,0-2.65-0.19-3.62-0.58c-0.97-0.39-1.74-0.95-2.31-1.69c-0.57-0.74-0.97-1.63-1.2-2.67
		c-0.23-1.05-0.35-2.24-0.35-3.58V422.59z"/>
	<path class="st12" d="M522.28,418.13c1.08,0,2.04,0.1,2.87,0.29c0.83,0.19,1.45,0.37,1.86,0.52l-0.89,3.88
		c-0.44-0.21-0.95-0.37-1.53-0.5c-0.58-0.13-1.21-0.19-1.88-0.19c-0.75,0-1.38,0.11-1.9,0.33c-0.52,0.22-0.93,0.52-1.24,0.91
		c-0.31,0.39-0.53,0.86-0.66,1.41c-0.13,0.56-0.19,1.16-0.19,1.8v1.36h7.36v3.91h-7.36v16.35h-4.69v-21.7
		c0-2.61,0.68-4.66,2.05-6.14C517.45,418.87,519.51,418.13,522.28,418.13z"/>
	<path class="st12" d="M547.46,438.05c0,1.6-0.23,3.06-0.7,4.38c-0.46,1.32-1.12,2.44-1.98,3.37c-0.85,0.93-1.88,1.65-3.08,2.17
		c-1.2,0.52-2.53,0.78-3.97,0.78s-2.76-0.26-3.95-0.78c-1.19-0.52-2.21-1.24-3.06-2.17c-0.85-0.93-1.52-2.05-2-3.37
		c-0.48-1.32-0.72-2.78-0.72-4.38c0-1.6,0.24-3.06,0.72-4.36c0.48-1.3,1.15-2.42,2.01-3.35c0.86-0.93,1.89-1.65,3.08-2.15
		c1.19-0.5,2.49-0.76,3.91-0.76c1.42,0,2.73,0.25,3.93,0.76c1.2,0.5,2.23,1.22,3.08,2.15c0.85,0.93,1.52,2.05,2,3.35
		C547.23,435,547.46,436.45,547.46,438.05z M542.66,438.05c0-2.02-0.43-3.61-1.3-4.79c-0.87-1.18-2.07-1.76-3.62-1.76
		c-1.55,0-2.76,0.59-3.62,1.76c-0.87,1.18-1.3,2.77-1.3,4.79c0,2.04,0.43,3.66,1.3,4.84c0.87,1.19,2.07,1.78,3.62,1.78
		c1.55,0,2.76-0.59,3.62-1.78C542.23,441.71,542.66,440.09,542.66,438.05z"/>
	<path class="st12" d="M568.93,447.58c-0.91,0.23-2.08,0.47-3.53,0.72c-1.45,0.25-3.04,0.37-4.77,0.37c-1.63,0-2.99-0.23-4.09-0.7
		c-1.1-0.46-1.98-1.11-2.64-1.94c-0.66-0.83-1.13-1.82-1.41-2.96c-0.28-1.15-0.43-2.41-0.43-3.78v-11.35h4.69v10.62
		c0,2.17,0.32,3.72,0.95,4.65c0.63,0.93,1.74,1.39,3.31,1.39c0.57,0,1.17-0.02,1.8-0.08c0.63-0.05,1.1-0.12,1.41-0.19v-16.39h4.69
		V447.58z"/>
	<path class="st12" d="M574.9,428.59c0.9-0.26,2.08-0.5,3.53-0.74c1.45-0.23,3.05-0.35,4.8-0.35c1.65,0,3.04,0.23,4.15,0.68
		c1.11,0.45,2,1.08,2.65,1.9c0.66,0.81,1.12,1.79,1.4,2.94c0.27,1.15,0.41,2.41,0.41,3.78v11.39h-4.69v-10.66
		c0-1.09-0.07-2.01-0.21-2.77c-0.14-0.76-0.37-1.38-0.7-1.86c-0.32-0.48-0.76-0.83-1.32-1.05c-0.56-0.22-1.23-0.33-2.03-0.33
		c-0.59,0-1.21,0.04-1.86,0.12c-0.65,0.08-1.12,0.14-1.43,0.19v16.35h-4.69V428.59z"/>
	<path class="st12" d="M614.7,447.58c-0.93,0.28-2.1,0.54-3.51,0.77c-1.41,0.23-2.89,0.35-4.44,0.35c-1.6,0-3.04-0.25-4.3-0.74
		c-1.27-0.49-2.34-1.19-3.24-2.11c-0.89-0.92-1.58-2.03-2.05-3.33c-0.48-1.3-0.72-2.77-0.72-4.4c0-1.6,0.2-3.05,0.6-4.36
		c0.4-1.3,0.99-2.42,1.76-3.35c0.78-0.93,1.72-1.65,2.83-2.15c1.11-0.5,2.39-0.76,3.84-0.76c0.98,0,1.85,0.12,2.6,0.35
		c0.75,0.23,1.39,0.49,1.94,0.78v-9.73l4.69-0.78V447.58z M601.25,438.01c0,2.07,0.49,3.69,1.47,4.86c0.98,1.18,2.34,1.76,4.07,1.76
		c0.75,0,1.39-0.03,1.92-0.1c0.53-0.06,0.96-0.14,1.3-0.21V432.7c-0.41-0.28-0.96-0.55-1.65-0.79c-0.69-0.25-1.41-0.37-2.19-0.37
		c-1.71,0-2.95,0.58-3.74,1.74C601.64,434.45,601.25,436.02,601.25,438.01z"/>
</g>
<g>
	<path class="st0" d="M382.91,242.83v96.57h17.18v28.32h-17.18v35.98h-33.89v-35.98h-69.41v-25.3c3.4-6.81,7.66-14.51,12.77-23.1
		c5.11-8.59,10.79-17.41,17.06-26.46c6.27-9.05,12.88-17.91,19.85-26.58c6.96-8.67,13.93-16.48,20.89-23.45H382.91z M349.02,285.08
		c-6.04,7.89-12.46,16.48-19.27,25.77c-6.81,9.28-12.54,18.8-17.18,28.55h36.45V285.08z"/>
	<path class="st0" d="M496.28,373.77c-1.07,0.87-2.21,1.57-3.44,2.11c1.19-0.27,2.4-0.74,3.5-1.27
		C496.32,374.34,496.3,374.05,496.28,373.77z M543.23,306.14c-0.29-3.02-0.64-5.95-1.09-8.78c-0.22-1.42-0.46-2.8-0.72-4.17
		c-0.13-0.69-0.27-1.36-0.41-2.03c-0.28-1.35-0.58-2.66-0.9-3.95c-0.16-0.64-0.33-1.29-0.5-1.92c-0.34-1.27-0.71-2.52-1.09-3.74
		c-0.38-1.22-0.78-2.42-1.21-3.59c-0.85-2.35-1.77-4.59-2.78-6.74c-0.75-1.61-1.55-3.17-2.4-4.67c-0.56-1-1.14-1.98-1.74-2.93
		c-0.6-0.95-1.23-1.89-1.87-2.79c-10.3-14.47-24.49-21.7-42.6-21.7c-8.82,0-16.79,1.86-23.91,5.57
		c-7.12,3.71-13.23,9.13-18.34,16.25c-5.1,7.11-9.01,15.86-11.72,26.22c-2.71,10.37-4.06,22.29-4.06,35.75
		c0,0.93,0.01,1.86,0.02,2.78c0.01,0.75,0.02,1.49,0.04,2.23c0.01,0.63,0.03,1.25,0.06,1.87c0.01,0.29,0.01,0.6,0.03,0.89
		c0.02,0.47,0.03,0.94,0.06,1.4c0.01,0.32,0.03,0.64,0.04,0.95c0.04,0.69,0.08,1.39,0.13,2.07c0,0.04,0,0.07,0.01,0.11
		c0.03,0.53,0.06,1.04,0.11,1.56c0.05,0.68,0.1,1.35,0.16,2.02c0,0.05,0.01,0.09,0.01,0.14c0.07,0.83,0.15,1.64,0.23,2.45
		c0.08,0.83,0.18,1.65,0.27,2.46c0.08,0.62,0.15,1.23,0.23,1.84c0.23,1.72,0.48,3.39,0.77,5.04c0.08,0.49,0.17,0.97,0.26,1.45
		c0.25,1.32,0.5,2.62,0.79,3.9c0.08,0.39,0.17,0.76,0.26,1.14c0.08,0.36,0.16,0.72,0.25,1.08c0.08,0.35,0.17,0.7,0.26,1.04
		c0.07,0.29,0.15,0.57,0.22,0.86c0.13,0.5,0.26,1,0.4,1.49c0.02,0.08,0.04,0.15,0.06,0.22c0.04,0.15,0.08,0.3,0.13,0.45
		c0.16,0.57,0.33,1.13,0.5,1.69c0.22,0.71,0.44,1.43,0.68,2.13c0.21,0.64,0.43,1.28,0.66,1.91c0.11,0.32,0.23,0.64,0.36,0.96
		c0.13,0.36,0.27,0.72,0.41,1.08c0.06,0.15,0.12,0.31,0.18,0.46c0.2,0.53,0.41,1.04,0.63,1.56c0.01,0.04,0.04,0.08,0.05,0.12
		c0.03,0.07,0.06,0.14,0.09,0.21c0.15,0.36,0.31,0.73,0.47,1.08c0.01,0.01,0.01,0.02,0.01,0.04c0.35,0.78,0.71,1.56,1.09,2.33
		c0.14,0.29,0.29,0.6,0.44,0.88c0.38,0.76,0.77,1.5,1.17,2.23c0.15,0.28,0.3,0.55,0.46,0.83c0.11,0.2,0.22,0.39,0.34,0.58
		c0.34,0.59,0.69,1.17,1.05,1.74c0.13,0.22,0.27,0.44,0.42,0.66c0.18,0.29,0.37,0.58,0.57,0.87c0.06,0.1,0.12,0.19,0.18,0.28
		c0.29,0.43,0.58,0.85,0.88,1.27c0,0,0,0.01,0.01,0.01c0.27,0.37,0.53,0.74,0.8,1.1c0.15,0.2,0.31,0.41,0.46,0.61
		c0.2,0.27,0.41,0.53,0.62,0.79c0.24,0.31,0.48,0.6,0.73,0.9c0.2,0.25,0.41,0.51,0.63,0.76c0.58,0.69,1.18,1.37,1.79,2.01
		c0.29,0.32,0.6,0.62,0.9,0.93c0.21,0.22,0.43,0.43,0.65,0.64c0.15,0.15,0.31,0.31,0.46,0.45c0.19,0.18,0.37,0.36,0.57,0.54
		c0.49,0.46,0.99,0.9,1.49,1.33c0.18,0.15,0.36,0.31,0.55,0.46c0.69,0.57,1.39,1.12,2.1,1.65c0.2,0.15,0.41,0.3,0.62,0.45
		c0.16,0.12,0.32,0.23,0.48,0.34c0.21,0.15,0.42,0.29,0.63,0.43c0.13,0.08,0.25,0.16,0.38,0.25c0.26,0.18,0.53,0.35,0.8,0.52
		c0.48,0.3,0.95,0.59,1.44,0.87c0.29,0.18,0.57,0.34,0.87,0.5c0.09,0.05,0.18,0.1,0.27,0.15c0.27,0.15,0.55,0.3,0.84,0.45
		c0.24,0.12,0.47,0.25,0.71,0.36c0.1,0.05,0.2,0.1,0.3,0.15c0.31,0.15,0.62,0.3,0.94,0.44c0.74,0.35,1.5,0.67,2.26,0.97
		c0.35,0.14,0.71,0.28,1.07,0.41c0.03,0.01,0.05,0.02,0.08,0.03c0.01,0,0.01,0,0.01,0.01c0.46,0.17,0.92,0.33,1.39,0.48
		c0.63,0.21,1.28,0.41,1.92,0.6c0.43,0.12,0.85,0.24,1.28,0.34c0.25,0.07,0.5,0.13,0.76,0.19c0.11,0.04,0.22,0.06,0.34,0.08
		c0.07,0.01,0.14,0.04,0.21,0.05c0.28,0.06,0.57,0.13,0.85,0.19c0.01,0,0.01,0.01,0.02,0c0.36,0.08,0.71,0.15,1.07,0.22
		c0.36,0.07,0.73,0.13,1.09,0.2c0.35,0.06,0.71,0.12,1.07,0.17c0.01,0.01,0.02,0.01,0.04,0.01c0.02,0.01,0.05,0.01,0.07,0.01
		c0.34,0.06,0.69,0.11,1.03,0.15c0.39,0.06,0.78,0.11,1.16,0.15c0.29,0.03,0.57,0.06,0.85,0.08c0.13,0.01,0.27,0.03,0.39,0.04
		c0.32,0.04,0.64,0.06,0.95,0.08c0.49,0.04,0.98,0.07,1.47,0.09c0.43,0.02,0.87,0.04,1.31,0.05c0.08,0.01,0.17,0.01,0.25,0.01
		c0.53,0.01,1.07,0.02,1.61,0.02c1.13,0,2.25-0.03,3.35-0.08c1.07-0.06,2.12-0.14,3.16-0.25c0.53-0.06,1.05-0.12,1.57-0.19
		c0.57-0.08,1.13-0.15,1.69-0.25c0.98-0.16,1.95-0.34,2.89-0.56c0.27-0.06,0.55-0.12,0.82-0.19c0.2-0.04,0.39-0.08,0.59-0.14
		c0.31-0.07,0.61-0.15,0.92-0.23c0.04-0.01,0.08-0.02,0.12-0.04c0.39-0.1,0.76-0.21,1.14-0.32v-0.01c0.39-0.11,0.78-0.23,1.18-0.36
		c0.88-0.28,1.74-0.59,2.59-0.93c0.89-0.35,1.77-0.72,2.64-1.13c0.25-0.11,0.5-0.23,0.74-0.35c0.19-0.09,0.38-0.18,0.57-0.28
		c0.21-0.11,0.42-0.21,0.63-0.32c0.22-0.11,0.43-0.22,0.64-0.34c0.29-0.15,0.58-0.32,0.87-0.48c0.05-0.03,0.09-0.05,0.13-0.08
		c0.36-0.2,0.71-0.41,1.07-0.63c0.01-0.01,0.03-0.02,0.04-0.03c0.03-0.01,0.05-0.03,0.08-0.05c0.27-0.16,0.55-0.34,0.81-0.5
		c0.83-0.53,1.64-1.09,2.44-1.67c0.27-0.2,0.53-0.39,0.79-0.6c0.41-0.31,0.81-0.62,1.2-0.95c0.22-0.18,0.44-0.36,0.66-0.55
		c0.28-0.24,0.55-0.48,0.83-0.72h0.01c0.38-0.34,0.76-0.69,1.13-1.04c0.37-0.35,0.74-0.71,1.11-1.08c2.2-2.19,4.27-4.65,6.19-7.36
		c0.29-0.42,0.59-0.84,0.88-1.27c0.22-0.32,0.43-0.65,0.64-0.98c0.13-0.19,0.25-0.39,0.37-0.58c0.2-0.32,0.41-0.64,0.6-0.97v-0.01
		c0.33-0.53,0.64-1.07,0.95-1.61c0.1-0.18,0.2-0.35,0.29-0.53c0.18-0.32,0.36-0.64,0.53-0.97c0.06-0.1,0.11-0.19,0.15-0.29
		c0.04-0.08,0.09-0.17,0.13-0.25c0.21-0.39,0.41-0.79,0.61-1.19c1.07-2.14,2.05-4.38,2.96-6.72c0.01-0.01,0.01-0.02,0.01-0.03
		c0.19-0.49,0.38-0.99,0.56-1.49c0-0.01,0.01-0.02,0.01-0.03c0.01-0.03,0.02-0.06,0.03-0.08c0.01-0.05,0.04-0.09,0.05-0.14
		c0.21-0.59,0.41-1.18,0.62-1.78s0.4-1.21,0.59-1.82c0.19-0.61,0.38-1.23,0.55-1.85c0.18-0.63,0.36-1.26,0.53-1.9
		c0.2-0.76,0.4-1.52,0.59-2.3c0.27-1.14,0.54-2.3,0.78-3.48c0.16-0.76,0.32-1.53,0.46-2.31c0.25-1.32,0.48-2.67,0.69-4.04
		c0.22-1.42,0.42-2.87,0.6-4.34c0.18-1.47,0.34-2.97,0.48-4.49c0.21-2.28,0.37-4.61,0.5-7.01c0.01-0.04,0.01-0.08,0.01-0.11
		c0.11-2.35,0.19-4.77,0.22-7.23c0.01-0.83,0.01-1.67,0.01-2.52C543.97,317.03,543.72,311.44,543.23,306.14z M496.85,373.29
		c-0.19,0.17-0.38,0.33-0.57,0.48c-1.07,0.87-2.21,1.57-3.44,2.11c-0.67,0.29-1.35,0.53-2.07,0.73c-1.5,0.41-3.11,0.62-4.83,0.62
		c-2,0-3.84-0.28-5.53-0.84c-1.72-0.57-3.28-1.43-4.67-2.59c-0.2-0.17-0.4-0.34-0.6-0.52c-0.01-0.01-0.02-0.02-0.04-0.04
		c-2.85-2.62-5.16-6.33-6.92-11.11c-0.34-0.91-0.66-1.85-0.96-2.83c-1.29-4.17-2.24-8.95-2.87-14.35c-0.08-0.72-0.16-1.46-0.24-2.2
		c-0.03-0.31-0.06-0.62-0.09-0.94c-0.55-5.8-0.83-12.11-0.83-18.92c0-8.05,0.39-15.36,1.16-21.94c0.35-2.97,0.81-5.77,1.37-8.37
		c0.03-0.16,0.06-0.33,0.11-0.49c0.65-2.97,1.44-5.7,2.36-8.19c0.7-1.91,1.5-3.64,2.38-5.21c1.33-2.38,2.86-4.35,4.58-5.94
		c2.87-2.63,6.46-3.95,10.8-3.95c4.33,0,7.97,1.32,10.9,3.95c2.92,2.61,5.22,6.28,6.92,11.02c0.01,0.04,0.03,0.08,0.04,0.12
		c1.7,4.79,2.94,10.48,3.71,17.06c0.77,6.58,1.16,13.89,1.16,21.94c0,7.14-0.31,13.74-0.92,19.78c-0.06,0.67-0.14,1.33-0.21,1.98
		c-0.01,0.1-0.02,0.2-0.04,0.29c-0.67,5.7-1.67,10.73-3.01,15.07c-0.22,0.72-0.46,1.42-0.7,2.11
		C502.11,366.95,499.79,370.66,496.85,373.29z"/>
	<path class="st0" d="M673,242.83v96.57h17.18v28.32H673v35.98h-33.89v-35.98H569.7v-25.3c3.4-6.81,7.66-14.51,12.77-23.1
		c5.11-8.59,10.79-17.41,17.06-26.46c6.27-9.05,12.88-17.91,19.85-26.58c6.96-8.67,13.93-16.48,20.89-23.45H673z M639.11,285.08
		c-6.04,7.89-12.46,16.48-19.27,25.77c-6.81,9.28-12.53,18.8-17.18,28.55h36.45V285.08z"/>
	<path class="st3" d="M372.91,233.83v96.57h17.18v28.32h-17.18v35.98h-33.89v-35.98h-69.41v-25.3c3.4-6.81,7.66-14.51,12.77-23.1
		c5.11-8.59,10.79-17.41,17.06-26.46c6.27-9.05,12.88-17.91,19.85-26.58c6.96-8.67,13.93-16.48,20.89-23.45H372.91z M339.02,276.08
		c-6.04,7.89-12.46,16.48-19.27,25.77c-6.81,9.28-12.54,18.8-17.18,28.55h36.45V276.08z"/>
	<path class="st12" d="M486.28,364.77c-1.07,0.87-2.21,1.57-3.44,2.11c1.19-0.27,2.4-0.74,3.5-1.27
		C486.32,365.33,486.3,365.05,486.28,364.77z M533.23,297.14c-0.29-3.02-0.64-5.95-1.09-8.78c-0.22-1.42-0.46-2.8-0.72-4.17
		c-0.13-0.69-0.27-1.36-0.41-2.03c-0.28-1.35-0.58-2.66-0.9-3.95c-0.16-0.64-0.33-1.29-0.5-1.92c-0.34-1.27-0.71-2.52-1.09-3.74
		c-0.38-1.22-0.78-2.42-1.21-3.59c-0.85-2.35-1.77-4.59-2.78-6.74c-0.75-1.61-1.55-3.17-2.4-4.67c-0.56-1-1.14-1.98-1.74-2.93
		c-0.6-0.95-1.23-1.89-1.87-2.79c-10.3-14.47-24.49-21.7-42.6-21.7c-8.82,0-16.79,1.86-23.91,5.57
		c-7.12,3.71-13.23,9.13-18.34,16.25c-5.1,7.11-9.01,15.86-11.72,26.22c-2.71,10.37-4.06,22.29-4.06,35.75
		c0,0.93,0.01,1.86,0.02,2.78c0.01,0.75,0.02,1.49,0.04,2.23c0.01,0.63,0.03,1.25,0.06,1.87c0.01,0.29,0.01,0.6,0.03,0.89
		c0.02,0.47,0.04,0.94,0.06,1.4c0.01,0.32,0.03,0.64,0.04,0.95c0.04,0.69,0.08,1.39,0.13,2.07c0,0.04,0,0.07,0.01,0.11
		c0.03,0.53,0.06,1.04,0.11,1.56c0.05,0.68,0.1,1.35,0.16,2.02c0,0.05,0.01,0.09,0.01,0.14c0.07,0.83,0.15,1.64,0.23,2.45
		c0.08,0.83,0.18,1.65,0.27,2.46c0.08,0.62,0.15,1.23,0.23,1.84c0.23,1.72,0.48,3.39,0.77,5.04c0.08,0.49,0.17,0.97,0.26,1.45
		c0.25,1.32,0.5,2.62,0.79,3.9c0.08,0.39,0.17,0.76,0.26,1.14c0.08,0.36,0.16,0.72,0.25,1.08c0.08,0.35,0.17,0.7,0.26,1.04
		c0.07,0.29,0.15,0.57,0.22,0.86c0.13,0.5,0.26,1,0.4,1.49c0.02,0.08,0.04,0.15,0.06,0.22c0.04,0.15,0.08,0.3,0.13,0.45
		c0.16,0.57,0.33,1.13,0.5,1.69c0.22,0.71,0.44,1.43,0.68,2.13c0.21,0.64,0.43,1.28,0.66,1.91c0.11,0.32,0.23,0.64,0.36,0.96
		c0.13,0.36,0.27,0.72,0.41,1.08c0.06,0.15,0.12,0.31,0.18,0.46c0.2,0.53,0.41,1.04,0.63,1.56c0.01,0.04,0.04,0.08,0.05,0.12
		c0.03,0.07,0.06,0.14,0.09,0.21c0.15,0.36,0.31,0.73,0.47,1.08c0.01,0.01,0.01,0.02,0.01,0.04c0.35,0.78,0.71,1.56,1.09,2.33
		c0.14,0.29,0.29,0.6,0.44,0.88c0.38,0.76,0.77,1.5,1.17,2.23c0.15,0.28,0.3,0.55,0.46,0.83c0.11,0.2,0.22,0.39,0.34,0.58
		c0.34,0.59,0.69,1.17,1.05,1.74c0.13,0.22,0.27,0.44,0.42,0.66c0.18,0.29,0.37,0.58,0.57,0.87c0.06,0.1,0.12,0.19,0.18,0.28
		c0.29,0.43,0.58,0.85,0.88,1.27c0,0,0,0.01,0.01,0.01c0.27,0.37,0.53,0.74,0.8,1.1c0.15,0.2,0.31,0.41,0.46,0.61
		c0.2,0.27,0.41,0.53,0.62,0.79c0.24,0.31,0.48,0.6,0.73,0.9c0.2,0.25,0.41,0.51,0.63,0.76c0.58,0.69,1.18,1.37,1.79,2.01
		c0.29,0.32,0.6,0.62,0.9,0.93c0.21,0.22,0.43,0.43,0.65,0.64c0.15,0.15,0.31,0.31,0.46,0.45c0.19,0.18,0.37,0.36,0.57,0.54
		c0.49,0.46,0.99,0.9,1.49,1.33c0.18,0.15,0.36,0.31,0.55,0.46c0.69,0.57,1.39,1.12,2.1,1.65c0.2,0.15,0.41,0.3,0.62,0.45
		c0.16,0.12,0.32,0.23,0.48,0.34c0.21,0.15,0.42,0.29,0.63,0.43c0.13,0.08,0.25,0.16,0.38,0.25c0.26,0.18,0.53,0.35,0.8,0.52
		c0.48,0.3,0.95,0.59,1.44,0.87c0.29,0.18,0.57,0.34,0.87,0.5c0.09,0.05,0.18,0.1,0.27,0.15c0.27,0.15,0.55,0.3,0.84,0.45
		c0.24,0.12,0.47,0.25,0.71,0.36c0.1,0.05,0.2,0.1,0.3,0.15c0.31,0.15,0.62,0.3,0.94,0.44c0.74,0.35,1.5,0.67,2.26,0.97
		c0.35,0.14,0.71,0.28,1.07,0.41c0.03,0.01,0.05,0.02,0.08,0.03c0.01,0,0.01,0,0.01,0.01c0.46,0.17,0.92,0.33,1.39,0.48
		c0.63,0.21,1.28,0.41,1.92,0.6c0.43,0.12,0.85,0.24,1.28,0.34c0.25,0.07,0.5,0.13,0.76,0.19c0.11,0.04,0.22,0.06,0.34,0.08
		c0.07,0.01,0.14,0.04,0.21,0.05c0.28,0.06,0.57,0.13,0.85,0.19c0.01,0,0.01,0.01,0.02,0c0.36,0.08,0.71,0.15,1.07,0.22
		c0.36,0.07,0.73,0.13,1.09,0.2c0.35,0.06,0.71,0.12,1.07,0.17c0.01,0.01,0.02,0.01,0.04,0.01c0.02,0.01,0.05,0.01,0.07,0.01
		c0.34,0.06,0.69,0.11,1.03,0.15c0.39,0.06,0.78,0.11,1.16,0.15c0.29,0.03,0.57,0.06,0.86,0.08c0.13,0.01,0.27,0.03,0.39,0.04
		c0.32,0.04,0.64,0.06,0.95,0.08c0.49,0.04,0.98,0.07,1.47,0.09c0.43,0.02,0.87,0.04,1.31,0.05c0.08,0.01,0.17,0.01,0.25,0.01
		c0.53,0.01,1.07,0.02,1.61,0.02c1.13,0,2.25-0.03,3.35-0.08c1.07-0.06,2.12-0.14,3.16-0.25c0.53-0.06,1.05-0.12,1.57-0.19
		c0.57-0.08,1.13-0.15,1.69-0.25c0.98-0.16,1.95-0.34,2.89-0.56c0.27-0.06,0.55-0.12,0.82-0.19c0.2-0.04,0.39-0.08,0.59-0.14
		c0.31-0.07,0.61-0.15,0.92-0.23c0.04-0.01,0.08-0.02,0.12-0.04c0.39-0.1,0.76-0.21,1.14-0.32v-0.01c0.39-0.11,0.79-0.23,1.18-0.36
		c0.88-0.28,1.74-0.59,2.59-0.92c0.89-0.35,1.77-0.72,2.64-1.13c0.25-0.11,0.5-0.23,0.74-0.35c0.19-0.09,0.38-0.18,0.57-0.28
		c0.21-0.11,0.42-0.21,0.63-0.32c0.22-0.11,0.43-0.22,0.64-0.34c0.29-0.15,0.58-0.32,0.87-0.48c0.05-0.03,0.09-0.05,0.13-0.08
		c0.36-0.2,0.71-0.41,1.07-0.63c0.01-0.01,0.03-0.02,0.04-0.03c0.03-0.01,0.05-0.03,0.08-0.05c0.27-0.16,0.55-0.34,0.81-0.5
		c0.83-0.53,1.64-1.09,2.44-1.67c0.27-0.2,0.53-0.39,0.79-0.6c0.41-0.31,0.81-0.62,1.2-0.95c0.22-0.18,0.44-0.36,0.66-0.55
		c0.28-0.24,0.55-0.48,0.83-0.72h0.01c0.38-0.34,0.76-0.69,1.13-1.04c0.37-0.35,0.74-0.71,1.11-1.08c2.2-2.19,4.27-4.65,6.19-7.36
		c0.29-0.42,0.59-0.84,0.88-1.27c0.22-0.32,0.43-0.65,0.64-0.98c0.13-0.19,0.25-0.39,0.37-0.58c0.2-0.32,0.41-0.64,0.6-0.97v-0.01
		c0.33-0.53,0.64-1.07,0.95-1.61c0.1-0.18,0.2-0.35,0.29-0.53c0.18-0.32,0.36-0.64,0.53-0.97c0.06-0.1,0.11-0.19,0.15-0.29
		c0.04-0.08,0.09-0.17,0.13-0.25c0.21-0.39,0.41-0.79,0.61-1.19c1.07-2.14,2.05-4.38,2.96-6.72c0.01-0.01,0.01-0.02,0.01-0.03
		c0.19-0.49,0.38-0.99,0.56-1.49c0-0.01,0.01-0.02,0.01-0.03c0.01-0.03,0.02-0.06,0.04-0.08c0.01-0.05,0.04-0.09,0.05-0.14
		c0.21-0.59,0.41-1.18,0.62-1.78c0.2-0.6,0.4-1.21,0.59-1.82c0.19-0.61,0.38-1.23,0.55-1.85c0.18-0.63,0.36-1.26,0.53-1.9
		c0.2-0.76,0.4-1.52,0.59-2.3c0.27-1.14,0.54-2.3,0.78-3.48c0.16-0.76,0.32-1.53,0.46-2.31c0.25-1.32,0.48-2.67,0.69-4.04
		c0.22-1.42,0.42-2.87,0.6-4.34c0.18-1.47,0.34-2.97,0.48-4.49c0.21-2.28,0.37-4.61,0.5-7.01c0.01-0.04,0.01-0.08,0.01-0.11
		c0.11-2.35,0.19-4.77,0.22-7.23c0.01-0.83,0.01-1.67,0.01-2.52C533.97,308.03,533.72,302.44,533.23,297.14z M486.85,364.29
		c-0.19,0.17-0.38,0.33-0.57,0.48c-1.07,0.87-2.21,1.57-3.44,2.11c-0.67,0.29-1.35,0.53-2.07,0.73c-1.5,0.41-3.11,0.62-4.83,0.62
		c-2,0-3.84-0.28-5.53-0.84c-1.72-0.57-3.28-1.43-4.67-2.59c-0.2-0.17-0.4-0.34-0.6-0.52c-0.01-0.01-0.02-0.02-0.04-0.04
		c-2.85-2.62-5.16-6.33-6.92-11.11c-0.34-0.91-0.66-1.85-0.96-2.83c-1.29-4.17-2.24-8.95-2.87-14.35c-0.08-0.72-0.16-1.46-0.24-2.2
		c-0.03-0.31-0.06-0.62-0.09-0.94c-0.55-5.8-0.83-12.11-0.83-18.92c0-8.05,0.39-15.35,1.16-21.94c0.35-2.97,0.81-5.77,1.37-8.37
		c0.03-0.16,0.06-0.33,0.11-0.49c0.65-2.97,1.44-5.7,2.36-8.19c0.7-1.91,1.5-3.64,2.38-5.21c1.33-2.38,2.86-4.35,4.58-5.94
		c2.87-2.63,6.46-3.95,10.8-3.95c4.33,0,7.97,1.32,10.9,3.95c2.92,2.61,5.22,6.28,6.92,11.02c0.01,0.04,0.03,0.08,0.04,0.12
		c1.7,4.79,2.94,10.48,3.71,17.06c0.77,6.58,1.16,13.89,1.16,21.94c0,7.14-0.31,13.74-0.92,19.78c-0.06,0.67-0.14,1.33-0.21,1.98
		c-0.01,0.1-0.02,0.2-0.04,0.29c-0.67,5.7-1.67,10.73-3.01,15.07c-0.22,0.72-0.46,1.42-0.7,2.11
		C492.11,357.95,489.79,361.66,486.85,364.29z"/>
	<path class="st3" d="M663,233.83v96.57h17.18v28.32H663v35.98h-33.89v-35.98H559.7v-25.3c3.4-6.81,7.66-14.51,12.77-23.1
		c5.11-8.59,10.79-17.41,17.06-26.46c6.27-9.05,12.88-17.91,19.85-26.58c6.96-8.67,13.93-16.48,20.89-23.45H663z M629.11,276.08
		c-6.04,7.89-12.46,16.48-19.27,25.77c-6.81,9.28-12.53,18.8-17.18,28.55h36.45V276.08z"/>
	<g>
		<g>
			<path class="st13" d="M475.79,273.18c6.05-5.54,16.63-6.99,24.05,12.78c4.52,12.03,10.17,7.64,13.65,14.46
				c2.43,4.77-0.15,10.75,1.24,15.83c2.08,7.56,11.9,7.41,11.3,21.1c-0.74,16.81-79.62,21.13-96.58,1.56
				c-6.85-7.9,2.51-13.18,6.04-18.2c2.95-4.2-1.88-8.49-1.58-15.42c0.3-6.92,12.61-12.71,14.29-16.51
				c2.32-5.25,0.69-16.28,12.96-19.22C468.52,267.81,475.79,273.18,475.79,273.18z"/>
			<g>
				<path class="st14" d="M475.19,284.88c6.94,0.3,14.87,6.76,14.87,19.86c0,9.29-5.59,13.75-8.52,14.96l1.13,7.32l10.49,5.86
					l2.92,7.07l-18.83,14.51l-17.99-13.87l2.39-9.47l6.86-5.87l0.46-5.91c0,0-6.91-5.64-6.91-15.02
					C462.08,292.06,468.05,284.57,475.19,284.88z"/>
				<g>
					<g>
						<path class="st15" d="M471.59,313.14c-0.14-0.01-0.28-0.07-0.37-0.19c-0.17-0.22-0.14-0.54,0.08-0.71
							c3.41-2.73,7.1-2.56,9.86,0.45c0.19,0.21,0.18,0.53-0.03,0.72c-0.21,0.19-0.53,0.18-0.72-0.03c-3.4-3.71-7.06-1.48-8.47-0.35
							C471.83,313.11,471.71,313.14,471.59,313.14z"/>
					</g>
					<path class="st15" d="M482.75,300.08c-0.06,1.34-0.7,2.4-1.44,2.37c-0.74-0.03-1.28-1.15-1.22-2.49
						c0.06-1.34,0.7-2.4,1.44-2.37C482.26,297.62,482.81,298.74,482.75,300.08z"/>
					<path class="st15" d="M472.31,299.62c-0.06,1.34-0.7,2.4-1.44,2.37c-0.74-0.03-1.28-1.15-1.22-2.49
						c0.06-1.34,0.7-2.4,1.44-2.37C471.82,297.17,472.37,298.28,472.31,299.62z"/>
				</g>
			</g>
			<path class="st13" d="M475.19,284.88c0,0,1.26,8.76,17.09,9.68l1.59-10.56l-17.75-5.63l-20.46,4.78l1.25,9.08
				C456.91,292.23,472.73,298.17,475.19,284.88z"/>
			<g>
				<g>
					<path class="st16" d="M525.34,359.37c0,0,5.12,0.03,6.35-2.13c0,0,2.57,1.84-0.99,3.74
						C527.15,362.88,525.34,359.37,525.34,359.37z"/>
					<path class="st14" d="M519.18,365.85c0,0,1.85-5.96,5.62-6.44c6.14-0.79,9.7,2.9,11.76,2.99c6.86,0.3,8.55-1.28,9.56-2.83
						c0,0,2.74,1.47-0.57,3.82c-1.87,1.33-4.41,2.24-11.82,2.1c-2.57-0.05-7.38,3.08-8.96,5.06L519.18,365.85z"/>
				</g>
				<polygon class="st17" points="516.49,366.67 517.97,363.49 529.19,371.49 523.81,375.96 				"/>
				<g>
					<path class="st16" d="M425.24,353.39c0,0-5.11-0.41-6.14-2.68c0,0-2.72,1.61,0.66,3.81
						C423.13,356.73,425.24,353.39,425.24,353.39z"/>
					<path class="st14" d="M432.35,360.67c0,0-1.32-6.1-5.03-6.91c-6.05-1.32-11.06,0.89-13.1,1.18c-4.79,0.68-7.41-1.95-8.29-3.59
						c0,0-3.72,1.6,0.97,5.31c2.16,1.71,3.6,1.87,10.99,2.38c2.57,0.18,7.08,3.71,8.49,5.82L432.35,360.67z"/>
				</g>
				<polygon class="st17" points="435.89,359.77 433.66,357.83 423.57,365.15 427.59,368.53 				"/>
				<g>
					<path class="st17" d="M499.01,379.86L499.01,379.86c-0.22,1.82-0.48,3.53-0.83,5.1v0.01c-0.5,2.32-1.15,4.32-1.98,5.89
						l-2.82,4.48c-0.39,0.13-0.78,0.25-1.18,0.36v0.01c-0.38,0.11-0.76,0.22-1.14,0.32c-0.04,0.01-0.08,0.02-0.12,0.04
						c-0.31,0.08-0.61,0.16-0.92,0.23c-0.2,0.06-0.39,0.11-0.59,0.14c-0.27,0.07-0.55,0.13-0.82,0.19c-0.95,0.21-1.91,0.4-2.89,0.56
						c-0.56,0.09-1.12,0.17-1.69,0.25c-0.52,0.07-1.04,0.13-1.57,0.19c-1.04,0.11-2.1,0.19-3.16,0.25c-1.1,0.06-2.22,0.08-3.35,0.08
						c-0.54,0-1.08-0.01-1.61-0.02c-0.08,0-0.17,0-0.25-0.01c-0.44-0.01-0.88-0.03-1.31-0.05c-0.49-0.02-0.98-0.05-1.47-0.09
						c-0.32-0.02-0.64-0.04-0.95-0.08c-0.13-0.01-0.26-0.02-0.39-0.04c-0.28-0.03-0.57-0.06-0.86-0.08
						c-0.39-0.04-0.78-0.09-1.16-0.15c-0.34-0.04-0.69-0.09-1.03-0.15c-0.02,0-0.05,0-0.07-0.01c-0.01,0-0.02,0-0.04-0.01
						c-0.36-0.05-0.71-0.11-1.07-0.17c-0.36-0.06-0.73-0.13-1.09-0.2c-0.36-0.07-0.71-0.14-1.07-0.22c-0.01,0.01-0.01,0-0.02,0
						c-0.28-0.06-0.57-0.13-0.85-0.19c-0.07-0.01-0.14-0.04-0.21-0.05c-0.11-0.03-0.22-0.05-0.34-0.08
						c-0.26-0.06-0.51-0.12-0.76-0.19c-0.43-0.11-0.85-0.22-1.28-0.34c-0.64-0.19-1.29-0.39-1.92-0.6
						c-0.47-0.15-0.93-0.32-1.39-0.48c-0.01-0.01-0.01-0.01-0.01-0.01l-4.3-9.11l-0.06-1.84l-0.2-6.13l-0.95-28.45l-0.22-6.55
						c0,0,1.99-8.24,2.92-8.82c0.03-0.02,0.08-0.04,0.13-0.08c1.59-0.97,13.21-7.8,14.32-8.45c0.01-0.01,0.04-0.02,0.05-0.03
						c0.01-0.01,0.02-0.01,0.04-0.01c-0.07,0.22-1.72,4.84-0.55,9.12c0.01,0.04,0.02,0.06,0.03,0.1c1.25,4.41,7.89,10.01,7.89,10.01
						s5.52-4.2,8.05-7.88c0.83-1.21,1.34-2.35,1.23-3.28c-0.44-3.63-2.37-6.16-2.49-6.31h0.01c0.01,0,0.01,0.01,0.02,0.01l0.01,0.01
						l10.57,6.14l4.28,2.48l0.22,0.13c0,0,0.76,6.25,1.32,14.68C499.71,359.46,500.06,370.91,499.01,379.86z"/>
					<g>
						<path class="st18" d="M461.62,361.68c0,0,6.91,6.11,11.34,4.88c0,0-5.01,2.61-10.59-0.24
							C456.79,363.48,461.62,361.68,461.62,361.68z"/>
						<path class="st18" d="M466.83,397.29c-1.48-0.22-2.92-0.5-4.34-0.83c-0.81-0.18-1.6-0.39-2.38-0.62
							c-0.15-4.23,4.6-27.92,4.6-27.92l0.45,3.57l0.66,5.19l0.55,14.14L466.83,397.29z"/>
						<path class="st18" d="M492.19,395.7L492.19,395.7c-0.38,0.12-0.76,0.23-1.14,0.33c-0.81,0.22-1.62,0.42-2.45,0.6l-3.02-12.25
							l0.41-9.38l0.53-6.66l0.01-0.11c0,0,0,0,0.01,0.01c0,0.02,0,0.04,0.01,0.06c0.01,0.01,0.01,0.01,0.01,0.03
							C486.94,369.94,492.03,391.1,492.19,395.7z"/>
						<path class="st18" d="M490.82,362.96c0,0-7.41,5.49-11.72,3.87c0,0,4.76,3.04,10.57,0.69
							C495.48,365.17,490.82,362.96,490.82,362.96z"/>
					</g>
				</g>
				<g>
					<path class="st19" d="M526.84,376.47c0,0-10.2,6.29-16.74,9.25c-2.31,1.04-4.17,1.68-4.95,1.46c-2.99-0.83-4.32-1.81-4.32-1.81
						l1.26,2.76c0.01,0.01,0.01,0.01,0.01,0.01l1.21,2.62c-3.11,1.91-6.42,3.43-9.93,4.57c-0.39,0.13-0.78,0.25-1.18,0.36v0.01
						c-0.38,0.11-0.76,0.22-1.14,0.32c-1.85-6.62-3.41-12.72-3.58-14.99c-0.13-1.68-0.47-6.55-0.93-12.72
						c-0.01-0.01-0.01-0.01,0-0.03c-0.01-0.02-0.01-0.04-0.01-0.06c-0.06-0.85-0.13-1.72-0.2-2.61c-0.33-4.35-0.69-9.17-1.08-13.89
						c-0.08-1.09-0.18-2.16-0.26-3.22c-0.36-4.3-0.72-8.41-1.07-11.87c-0.49-4.98-0.94-8.62-1.27-9.6c0,0,0,0,0.01,0.01h0.01
						c0.71,0.29,23.41,9.41,25.68,13.41c0.67,1.19,1.23,4.2,1.67,7.86c1.07,8.82,1.49,21.43,1.49,21.43l4.9-5.39l0.75,0.87
						l4.82,5.61l3.34,3.88L526.84,376.47z"/>
					<path class="st19" d="M468.52,325.27c0,0-0.2,3.5-0.55,9.13c-0.22,3.41-0.49,7.6-0.83,12.28c-0.11,1.53-0.22,3.11-0.34,4.74
						c-0.31,4.2-0.66,8.68-1.04,13.25c-0.01,0.05-0.01,0.1-0.01,0.15c-0.07,0.87-0.15,1.74-0.22,2.61c-0.12,1.35-0.24,2.7-0.36,4.06
						c-0.78,8.71-1.68,17.44-2.66,24.97c-0.11-0.03-0.22-0.05-0.34-0.08c-0.26-0.06-0.51-0.12-0.76-0.19
						c-0.43-0.11-0.85-0.22-1.28-0.34c-0.64-0.19-1.29-0.39-1.92-0.6c-0.47-0.15-0.93-0.32-1.39-0.48
						c-0.01-0.01-0.01-0.01-0.01-0.01c-0.03-0.01-0.05-0.02-0.08-0.03c-0.36-0.13-0.72-0.27-1.07-0.41
						c-0.76-0.3-1.52-0.62-2.26-0.97c-0.32-0.14-0.63-0.29-0.94-0.44c-0.11-0.05-0.2-0.1-0.3-0.15c-0.24-0.12-0.48-0.24-0.71-0.36
						c-0.29-0.15-0.57-0.29-0.84-0.45c-0.09-0.05-0.18-0.1-0.27-0.15c-0.29-0.15-0.58-0.32-0.87-0.5c-0.49-0.28-0.97-0.57-1.44-0.87
						l1.14-4.02c0,0-2.28,1.31-4.61,0.5c-1.26-0.44-6.59-5.83-11.18-10.65c-0.01,0-0.01-0.01-0.01-0.01c-3.82-4-7.13-7.61-7.13-7.61
						l0.66-0.7l0.97-1.02l7.33-7.77l0.45-0.48l5.24,4.25c0,0,1.33-8.22,2.95-15.69c0.75-3.47,1.56-6.77,2.33-9.02
						c2.45-1.91,5.07-3.69,7.88-5.38c4.33-2.61,9.12-5.04,14.41-7.51c0.01-0.01,0.04-0.02,0.05-0.03
						C468.49,325.28,468.5,325.28,468.52,325.27L468.52,325.27z"/>
				</g>
				<path class="st20" d="M496.27,350.82c0,0,1.77,33.41,4.56,34.54c0.54,1.35,1.27,2.78,1.27,2.78l-3.86-2.91l-2.47-12.1
					L496.27,350.82z"/>
				<path class="st20" d="M453.01,348.93c0,0,0.54,33.36-2.33,34.24c-0.66,1.3-1.51,2.66-1.51,2.66l4.1-2.56l0.8-9.54L453.01,348.93
					z"/>
			</g>
		</g>
	</g>
</g>
</svg>
