<svg width="40" height="40" viewBox="0 0 40 40" fill="none" xmlns="http://www.w3.org/2000/svg">
<circle cx="20" cy="20" r="20" fill="#4D4CBB"/>
<path d="M28 27.59V16L22 10H14C12.9 10 12.01 10.9 12.01 12L12 28C12 29.1 12.89 30 13.99 30H26C26.45 30 26.85 29.85 27.19 29.6L22.76 25.17C21.96 25.69 21.02 26 20 26C17.24 26 15 23.76 15 21C15 18.24 17.24 16 20 16C22.76 16 25 18.24 25 21C25 22.02 24.69 22.96 24.17 23.75L28 27.59ZM17 21C17 22.66 18.34 24 20 24C21.66 24 23 22.66 23 21C23 19.34 21.66 18 20 18C18.34 18 17 19.34 17 21Z" fill="white"/>
</svg>
