<svg width="40" height="40" viewBox="0 0 40 40" fill="none" xmlns="http://www.w3.org/2000/svg">
<circle cx="20" cy="20" r="20" fill="#4D4CBB"/>
<path d="M10.2611 29.9435C10.0538 29.9435 9.88428 29.7758 9.88428 29.5685C9.88428 29.3611 10.05 29.1935 10.2571 29.1935H10.2611C10.4682 29.1935 10.6361 29.3611 10.6361 29.5685C10.6361 29.7758 10.4682 29.9435 10.2611 29.9435Z" fill="white"/>
<path d="M30.8757 25.9929C30.7459 25.9929 30.6199 25.9257 30.5511 25.8057C30.4471 25.6261 30.5086 25.397 30.6875 25.2936C31.0347 25.0929 31.25 24.7194 31.25 24.3185C31.25 23.6982 30.7452 23.1935 30.125 23.1935C29.9175 23.1935 29.75 23.0258 29.75 22.8185C29.75 22.6111 29.9175 22.4435 30.125 22.4435C31.1588 22.4435 32 23.2845 32 24.3185C32 24.9856 31.6411 25.6082 31.0632 25.9423C31.0041 25.9767 30.9395 25.9929 30.8757 25.9929V25.9929Z" fill="white"/>
<path d="M20.7501 31.4435C20.6166 31.4435 20.4872 31.3723 20.4194 31.2463C20.3211 31.0639 20.3897 30.8363 20.5719 30.7386L30.6969 25.2871C30.8784 25.1888 31.1069 25.2575 31.2047 25.4397C31.3027 25.622 31.2344 25.8496 31.0522 25.9474L20.9272 31.3988C20.8709 31.4292 20.8102 31.4435 20.7501 31.4435V31.4435Z" fill="white"/>
<path d="M20.7504 31.4435C20.7343 31.4435 20.7181 31.4424 20.7017 31.4401L12.0767 30.3151C11.8712 30.2885 11.726 30.1003 11.7533 29.8952C11.78 29.6896 11.9668 29.5425 12.1733 29.5718L20.7983 30.6968C21.0038 30.7236 21.149 30.9118 21.1217 31.1169C21.0972 31.3058 20.936 31.4435 20.7504 31.4435Z" fill="white"/>
<path d="M12.125 31.0685H8.375C8.16754 31.0685 8 30.9008 8 30.6935V20.5685C8 20.3611 8.16754 20.1935 8.375 20.1935H12.125C12.3325 20.1935 12.5 20.3611 12.5 20.5685V30.6935C12.5 30.9008 12.3325 31.0685 12.125 31.0685ZM8.75 30.3185H11.75V20.9435H8.75V30.3185Z" fill="white"/>
<path d="M22.6244 24.3185C22.4422 24.3185 22.2823 24.1858 22.2543 23.9997C22.2232 23.795 22.3638 23.6037 22.5685 23.5726L29.8124 22.4697C30.0175 22.4386 30.2084 22.5792 30.2396 22.7839C30.2707 22.9888 30.1301 23.18 29.9252 23.2111L22.681 24.3139C22.6623 24.3171 22.643 24.3185 22.6244 24.3185Z" fill="white"/>
<path d="M21.125 25.8186C20.9175 25.8186 20.75 25.6508 20.75 25.4436C20.75 25.2361 20.9175 25.0686 21.125 25.0686C21.7452 25.0686 22.25 24.5637 22.25 23.9436C22.25 23.3941 21.8585 22.9281 21.3189 22.835C21.1149 22.7997 20.978 22.606 21.0133 22.4018C21.0485 22.1978 21.2431 22.0625 21.4464 22.0962C22.3467 22.2507 23 23.0278 23 23.9436C23 24.9774 22.1588 25.8186 21.125 25.8186V25.8186Z" fill="white"/>
<path d="M21.3827 22.8403C21.3591 22.8403 21.3348 22.838 21.3108 22.8332L15.4278 21.686C15.2246 21.6467 15.0918 21.4495 15.1315 21.2462C15.1713 21.0428 15.3674 20.91 15.5714 20.95L21.4543 22.0969C21.6576 22.1363 21.7903 22.3337 21.7506 22.5369C21.7158 22.7162 21.5587 22.8403 21.3827 22.8403V22.8403Z" fill="white"/>
<path d="M15.5 21.6935H12.125C11.9175 21.6935 11.75 21.5258 11.75 21.3185C11.75 21.1111 11.9175 20.9435 12.125 20.9435H15.5C15.7075 20.9435 15.875 21.1111 15.875 21.3185C15.875 21.5258 15.7075 21.6935 15.5 21.6935Z" fill="white"/>
<path d="M20.9676 25.8095C20.9583 25.8095 20.948 25.8092 20.9383 25.8083L16.2211 25.442C16.0146 25.4259 15.86 25.2458 15.8762 25.0392C15.8923 24.8323 16.0737 24.6774 16.279 24.6942L20.996 25.0606C21.2027 25.0768 21.3572 25.2567 21.3411 25.4633C21.3257 25.6603 21.1619 25.8095 20.9676 25.8095V25.8095Z" fill="white"/>
<path d="M29.8682 23.2144C29.6886 23.2144 29.5296 23.0848 29.4989 22.9013C29.4646 22.697 29.6023 22.5034 29.8067 22.4697C29.9114 22.4521 30.0182 22.4435 30.1251 22.4435C30.3326 22.4435 30.5001 22.6111 30.5001 22.8185C30.5001 23.0258 30.3326 23.1935 30.1251 23.1935C30.0588 23.1935 29.9934 23.199 29.9305 23.2097C29.9098 23.2133 29.8889 23.2144 29.8682 23.2144V23.2144Z" fill="white"/>
<path d="M21.1247 25.8186C21.0572 25.8186 20.9909 25.8147 20.9257 25.8072C20.7197 25.784 20.5719 25.5981 20.5952 25.3928C20.6184 25.187 20.8003 25.034 21.0096 25.0625C21.0478 25.0667 21.0857 25.0689 21.1247 25.0689C21.3322 25.0689 21.4997 25.2365 21.4997 25.4439C21.4997 25.6512 21.3322 25.8186 21.1247 25.8186V25.8186Z" fill="white"/>
<path d="M17.0063 21.9741C16.9913 21.9741 16.9763 21.9733 16.9613 21.9713C16.7555 21.9466 16.6092 21.7598 16.6335 21.5544C16.7014 20.9908 17.1814 20.5654 17.7503 20.5654C17.9577 20.5654 18.1253 20.7332 18.1253 20.9404C18.1253 21.1479 17.9577 21.3154 17.7503 21.3154C17.5606 21.3154 17.4004 21.4564 17.3782 21.6436C17.3549 21.8342 17.1934 21.9741 17.0063 21.9741Z" fill="white"/>
<path d="M25.2505 22.0654C25.0432 22.0654 24.8755 21.8979 24.8755 21.6904C24.8755 21.4835 24.7076 21.3154 24.5005 21.3154C24.2932 21.3154 24.1255 21.1479 24.1255 20.9404C24.1255 20.7332 24.2932 20.5654 24.5005 20.5654C25.1207 20.5654 25.6255 21.0703 25.6255 21.6904C25.6255 21.8979 25.4579 22.0654 25.2505 22.0654Z" fill="white"/>
<path d="M25.2505 23.9457C25.0432 23.9457 24.8755 23.7782 24.8755 23.5707V21.6904C24.8755 21.4832 25.0432 21.3154 25.2505 21.3154C25.4579 21.3154 25.6255 21.4832 25.6255 21.6904V23.5707C25.6255 23.7778 25.4579 23.9457 25.2505 23.9457V23.9457Z" fill="white"/>
<path d="M24.5004 21.3154H17.75C17.5425 21.3154 17.375 21.1479 17.375 20.9404C17.375 20.7332 17.5425 20.5654 17.75 20.5654H24.5004C24.7078 20.5654 24.8754 20.7332 24.8754 20.9404C24.8754 21.1479 24.7078 21.3154 24.5004 21.3154Z" fill="white"/>
<path d="M20.563 21.3147C20.3557 21.3147 20.188 21.1472 20.188 20.9397V11.1875C20.188 10.98 20.3557 10.8125 20.563 10.8125C20.7704 10.8125 20.938 10.98 20.938 11.1875V20.9397C20.938 21.1472 20.7704 21.3147 20.563 21.3147Z" fill="white"/>
<path d="M21.6875 21.3147C21.48 21.3147 21.3125 21.1472 21.3125 20.9397V11.1875C21.3125 10.98 21.48 10.8125 21.6875 10.8125C21.895 10.8125 22.0625 10.98 22.0625 11.1875V20.9397C22.0625 21.1472 21.895 21.3147 21.6875 21.3147Z" fill="white"/>
<path d="M21.6875 9.875C21.48 9.875 21.3125 9.70746 21.3125 9.5C21.3125 9.39691 21.2281 9.3125 21.125 9.3125C21.0219 9.3125 20.9375 9.39691 20.9375 9.5C20.9375 9.70746 20.77 9.875 20.5625 9.875C20.355 9.875 20.1875 9.70746 20.1875 9.5C20.1875 8.98291 20.6079 8.5625 21.125 8.5625C21.6421 8.5625 22.0625 8.98291 22.0625 9.5C22.0625 9.70746 21.895 9.875 21.6875 9.875Z" fill="white"/>
<path d="M26.5684 11.5625C26.3609 11.5625 26.1934 11.395 26.1934 11.1875C26.1934 10.98 26.3609 10.8125 26.5684 10.8125C26.6714 10.8125 26.7559 10.7281 26.7559 10.625C26.7559 10.5219 26.6714 10.4375 26.5684 10.4375C26.3609 10.4375 26.1934 10.27 26.1934 10.0625C26.1934 9.85504 26.3609 9.6875 26.5684 9.6875C27.0854 9.6875 27.5059 10.1079 27.5059 10.625C27.5059 11.1421 27.0854 11.5625 26.5684 11.5625Z" fill="white"/>
<path d="M15.6924 11.5625C15.1751 11.5625 14.7549 11.1421 14.7549 10.625C14.7549 10.1079 15.1751 9.6875 15.6924 9.6875C15.8997 9.6875 16.0674 9.85504 16.0674 10.0625C16.0674 10.27 15.8997 10.4375 15.6924 10.4375C15.5891 10.4375 15.5049 10.5219 15.5049 10.625C15.5049 10.7281 15.5891 10.8125 15.6924 10.8125C15.8997 10.8125 16.0674 10.98 16.0674 11.1875C16.0674 11.395 15.8993 11.5625 15.6924 11.5625Z" fill="white"/>
<path d="M26.5688 10.4382H15.7178C15.5103 10.4382 15.3428 10.2707 15.3428 10.0632C15.3428 9.85596 15.5103 9.68823 15.7178 9.68823H26.5688C26.7761 9.68823 26.9438 9.85596 26.9438 10.0632C26.9438 10.2707 26.7757 10.4382 26.5688 10.4382Z" fill="white"/>
<path d="M26.5688 11.5625H15.7178C15.5103 11.5625 15.3428 11.395 15.3428 11.1875C15.3428 10.98 15.5103 10.8125 15.7178 10.8125H26.5688C26.7761 10.8125 26.9438 10.98 26.9438 11.1875C26.9438 11.395 26.7757 11.5625 26.5688 11.5625Z" fill="white"/>
<path d="M20.5625 10.4382C20.355 10.4382 20.1875 10.2707 20.1875 10.0632V9.5C20.1875 9.29254 20.355 9.125 20.5625 9.125C20.77 9.125 20.9375 9.29254 20.9375 9.5V10.0632C20.9375 10.2707 20.77 10.4382 20.5625 10.4382Z" fill="white"/>
<path d="M21.6875 10.4375C21.48 10.4375 21.3125 10.27 21.3125 10.0625V9.5C21.3125 9.29254 21.48 9.125 21.6875 9.125C21.895 9.125 22.0625 9.29254 22.0625 9.5V10.0625C22.0625 10.27 21.895 10.4375 21.6875 10.4375Z" fill="white"/>
<path d="M15.8802 18.6897C14.6393 18.6897 13.6299 17.6806 13.6299 16.4397C13.6299 16.2324 13.7974 16.0647 14.0049 16.0647C14.2122 16.0647 14.3799 16.2324 14.3799 16.4397C14.3799 17.267 15.053 17.9397 15.8802 17.9397C16.7075 17.9397 17.3806 17.267 17.3806 16.4397C17.3806 16.2324 17.5482 16.0647 17.7556 16.0647C17.9629 16.0647 18.1306 16.2324 18.1306 16.4397C18.1306 17.6806 17.1206 18.6897 15.8802 18.6897Z" fill="white"/>
<path d="M17.7556 16.8147H14.0049C13.7974 16.8147 13.6299 16.6472 13.6299 16.4397C13.6299 16.2324 13.7974 16.0647 14.0049 16.0647H17.7556C17.9629 16.0647 18.1306 16.2324 18.1306 16.4397C18.1306 16.6472 17.9625 16.8147 17.7556 16.8147Z" fill="white"/>
<path d="M14.0051 16.8147C13.9634 16.8147 13.9203 16.8076 13.8789 16.7925C13.6836 16.723 13.5819 16.5084 13.6521 16.3137L15.528 11.0615C15.5972 10.8662 15.8118 10.7631 16.0068 10.8347C16.2022 10.9044 16.3038 11.1188 16.2337 11.3135L14.3579 16.5657C14.3036 16.7191 14.1591 16.8147 14.0051 16.8147Z" fill="white"/>
<path d="M17.7559 16.8147C17.6017 16.8147 17.4574 16.7191 17.403 16.5657L15.528 11.3135C15.4579 11.1185 15.5599 10.904 15.7549 10.8346C15.9486 10.7638 16.1643 10.8665 16.2337 11.0615L18.1087 16.3137C18.1788 16.5087 18.0768 16.7233 17.8818 16.7925C17.8403 16.8075 17.7974 16.8147 17.7559 16.8147Z" fill="white"/>
<path d="M26.3903 19.0707C25.1465 19.0707 24.1343 18.0591 24.1343 16.8147C24.1343 16.6074 24.302 16.4397 24.5093 16.4397C24.7167 16.4397 24.8843 16.6074 24.8843 16.8147C24.8843 17.6451 25.5601 18.3207 26.3903 18.3207C27.2205 18.3207 27.8964 17.6451 27.8964 16.8147C27.8964 16.6074 28.0639 16.4397 28.2714 16.4397C28.4786 16.4397 28.6464 16.6074 28.6464 16.8147C28.6464 18.0587 27.6342 19.0707 26.3903 19.0707Z" fill="white"/>
<path d="M28.2659 17.1897H24.5151C24.3077 17.1897 24.1401 17.0222 24.1401 16.8147C24.1401 16.6074 24.3077 16.4397 24.5151 16.4397H28.2659C28.4733 16.4397 28.6409 16.6074 28.6409 16.8147C28.6409 17.0222 28.4733 17.1897 28.2659 17.1897Z" fill="white"/>
<path d="M24.5151 17.1897C24.4761 17.1897 24.436 17.1833 24.3966 17.1703C24.2005 17.1049 24.0939 16.8927 24.1595 16.6959L26.0354 11.0687C26.1009 10.8725 26.311 10.766 26.5096 10.8315C26.7057 10.8969 26.8123 11.1091 26.7467 11.306L24.8708 16.9332C24.8185 17.0904 24.6722 17.1897 24.5151 17.1897Z" fill="white"/>
<path d="M28.2655 17.1897C28.1084 17.1897 27.9621 17.0904 27.9101 16.9331L26.0351 11.3059C25.9694 11.1095 26.0756 10.8969 26.272 10.8315C26.4703 10.766 26.6807 10.8722 26.7464 11.0686L28.6214 16.6958C28.687 16.8923 28.5808 17.1049 28.3843 17.1703C28.3446 17.1833 28.3045 17.1897 28.2655 17.1897V17.1897Z" fill="white"/>
</svg>
