<svg width="720" height="280" viewBox="0 0 720 280" fill="none" xmlns="http://www.w3.org/2000/svg">
<rect width="720" height="280" fill="white"/>
<path d="M431.211 87.2813C431.099 87.2816 430.99 87.2507 430.895 87.192C430.8 87.1333 430.723 87.0492 430.673 86.9492L427.32 80.2414C426.85 79.2933 426.123 78.4959 425.223 77.9395C424.323 77.3832 423.284 77.0902 422.226 77.0938H362.445C361.387 77.0903 360.349 77.3834 359.449 77.9399C358.548 78.4963 357.822 79.2938 357.352 80.242L353.999 86.9486C353.949 87.0487 353.872 87.133 353.777 87.1918C353.682 87.2506 353.573 87.2816 353.461 87.2813H289.789C288.279 87.2829 286.831 87.8834 285.764 88.9511C284.696 90.0188 284.095 91.4665 284.094 92.9764V196.797C284.094 197.472 284.362 198.12 284.84 198.598C285.317 199.075 285.965 199.344 286.641 199.344H370.688V217.172C370.691 220.548 372.034 223.785 374.421 226.172C376.809 228.56 380.046 229.902 383.422 229.906H413.984C417.361 229.902 420.597 228.56 422.985 226.172C425.372 223.785 426.715 220.548 426.719 217.172V199.344H434.359C435.035 199.344 435.683 199.075 436.16 198.598C436.638 198.12 436.906 197.472 436.906 196.797V92.9764C436.905 91.4665 436.304 90.0188 435.236 88.9511C434.169 87.8834 432.721 87.2829 431.211 87.2813V87.2813ZM289.789 92.375H353.461C354.519 92.3785 355.557 92.0854 356.458 91.529C357.358 90.9725 358.084 90.175 358.555 89.2268L361.907 82.5202C361.957 82.4201 362.034 82.3358 362.129 82.277C362.224 82.2182 362.334 82.1872 362.445 82.1875H422.226C422.338 82.1872 422.448 82.2181 422.543 82.2768C422.638 82.3355 422.714 82.4196 422.764 82.5196L426.118 89.2274C426.588 90.1755 427.314 90.9729 428.215 91.5293C429.115 92.0856 430.153 92.3786 431.211 92.375C431.371 92.3754 431.524 92.4388 431.636 92.5516C431.749 92.6643 431.812 92.817 431.812 92.9764V117.876C431.613 117.855 431.412 117.844 431.211 117.844H426.719V110.203C426.719 109.528 426.45 108.88 425.973 108.402C425.495 107.925 424.847 107.656 424.172 107.656H421.625V100.016C421.625 99.3402 421.357 98.6924 420.879 98.2147C420.401 97.7371 419.754 97.4688 419.078 97.4688H296.828C296.153 97.4688 295.505 97.7371 295.027 98.2147C294.55 98.6924 294.281 99.3402 294.281 100.016V109.853C294.05 110.15 293.849 110.469 293.68 110.806L290.327 117.511C290.277 117.611 290.2 117.695 290.105 117.754C290.01 117.813 289.901 117.844 289.789 117.844C289.588 117.844 289.387 117.855 289.188 117.876V92.9764C289.188 92.817 289.251 92.6642 289.364 92.5515C289.477 92.4387 289.629 92.3753 289.789 92.375ZM416.531 107.656H299.375V102.563H416.531V107.656ZM421.625 112.75V117.844H372.633C372.521 117.844 372.412 117.813 372.317 117.755C372.222 117.696 372.145 117.612 372.095 117.512L369.715 112.75H421.625ZM421.625 217.172C421.623 219.198 420.817 221.14 419.385 222.572C417.952 224.004 416.01 224.81 413.984 224.813H383.422C381.396 224.81 379.454 224.004 378.022 222.572C376.589 221.14 375.784 219.198 375.781 217.172V189.156C375.782 188.481 376.051 187.834 376.528 187.356C377.006 186.879 377.653 186.61 378.328 186.609H419.078C419.753 186.61 420.401 186.879 420.878 187.356C421.356 187.834 421.624 188.481 421.625 189.156V217.172ZM416.531 181.516H411.438V173.875C411.438 170.498 410.096 167.259 407.708 164.87C405.32 162.482 402.08 161.141 398.703 161.141C395.326 161.141 392.087 162.482 389.699 164.87C387.31 167.259 385.969 170.498 385.969 173.875V181.516H380.875V173.875C380.875 169.147 382.753 164.612 386.097 161.269C389.44 157.925 393.975 156.047 398.703 156.047C403.431 156.047 407.966 157.925 411.31 161.269C414.653 164.612 416.531 169.147 416.531 173.875V181.516ZM406.344 181.516H391.062V173.875C391.063 171.849 391.867 169.905 393.3 168.472C394.733 167.039 396.677 166.234 398.703 166.234C400.73 166.234 402.673 167.039 404.106 168.472C405.539 169.905 406.344 171.849 406.344 173.875V181.516ZM431.812 194.25H426.719V189.156C426.717 187.577 426.226 186.037 425.314 184.747C424.402 183.458 423.113 182.482 421.625 181.954V173.875C421.625 167.796 419.21 161.966 414.911 157.667C410.613 153.368 404.782 150.953 398.703 150.953C392.624 150.953 386.794 153.368 382.495 157.667C378.196 161.966 375.781 167.796 375.781 173.875V181.954C374.293 182.482 373.004 183.458 372.092 184.747C371.18 186.037 370.69 187.577 370.688 189.156V194.25H289.188V123.539C289.188 123.379 289.251 123.227 289.364 123.114C289.477 123.001 289.629 122.938 289.789 122.938C290.847 122.941 291.885 122.648 292.786 122.091C293.686 121.535 294.412 120.737 294.883 119.789L298.236 113.083C298.285 112.983 298.362 112.898 298.457 112.84C298.552 112.781 298.662 112.75 298.774 112.75H363.648C363.76 112.75 363.869 112.781 363.965 112.839C364.06 112.898 364.136 112.982 364.186 113.082L367.54 119.79C368.01 120.738 368.736 121.535 369.637 122.092C370.537 122.648 371.575 122.941 372.633 122.938H431.211C431.371 122.938 431.524 123.001 431.636 123.114C431.749 123.227 431.812 123.38 431.812 123.539V194.25Z" fill="#313951"/>
<path d="M373.234 140.766H375.781C376.328 140.766 376.86 140.59 377.299 140.264C377.738 139.938 378.06 139.48 378.219 138.957C378.377 138.434 378.363 137.873 378.179 137.359C377.994 136.844 377.649 136.403 377.194 136.1L361.913 125.912C361.494 125.633 361.003 125.484 360.5 125.484C359.997 125.484 359.506 125.633 359.087 125.912L343.806 136.1C343.351 136.403 343.006 136.844 342.821 137.359C342.637 137.873 342.623 138.434 342.781 138.957C342.94 139.48 343.262 139.938 343.701 140.264C344.14 140.59 344.672 140.766 345.219 140.766H347.766V150.953H342.672V156.047H378.328V150.953H373.234V140.766ZM368.141 150.953H363.047V140.766H368.141V150.953ZM360.5 131.092L367.37 135.672H353.63L360.5 131.092ZM352.859 140.766H357.953V150.953H352.859V140.766Z" fill="#313951"/>
<path d="M398.703 191.703C396.743 191.703 394.824 192.268 393.177 193.332C391.53 194.395 390.225 195.911 389.418 197.698C388.611 199.484 388.337 201.466 388.629 203.405C388.921 205.343 389.766 207.157 391.062 208.627V212.078C391.062 214.105 391.867 216.048 393.3 217.481C394.733 218.914 396.677 219.719 398.703 219.719C400.73 219.719 402.673 218.914 404.106 217.481C405.539 216.048 406.344 214.105 406.344 212.078V208.627C407.641 207.157 408.485 205.343 408.777 203.405C409.069 201.466 408.795 199.484 407.988 197.698C407.182 195.911 405.876 194.395 404.229 193.332C402.582 192.268 400.664 191.703 398.703 191.703ZM402.098 205.687C401.831 205.926 401.618 206.218 401.472 206.545C401.326 206.872 401.25 207.226 401.25 207.584V212.078C401.25 212.754 400.982 213.401 400.504 213.879C400.026 214.357 399.379 214.625 398.703 214.625C398.028 214.625 397.38 214.357 396.902 213.879C396.425 213.401 396.156 212.754 396.156 212.078V207.584C396.156 207.226 396.081 206.872 395.935 206.545C395.788 206.218 395.575 205.926 395.308 205.687C394.539 204.999 393.997 204.094 393.753 203.092C393.51 202.089 393.576 201.036 393.944 200.072C394.312 199.108 394.965 198.279 395.814 197.694C396.664 197.109 397.671 196.796 398.703 196.796C399.735 196.796 400.742 197.109 401.592 197.694C402.442 198.279 403.094 199.108 403.462 200.072C403.83 201.036 403.896 202.089 403.653 203.092C403.409 204.094 402.867 204.999 402.098 205.687V205.687Z" fill="#313951"/>
</svg>
