<svg width="720" height="280" viewBox="0 0 720 280" fill="none" xmlns="http://www.w3.org/2000/svg">
<rect width="720" height="280" fill="white"/>
<g clip-path="url(#clip0)">
<path d="M319.102 170.435C312.783 170.435 307.645 175.575 307.645 181.893C307.645 188.21 312.783 193.351 319.102 193.351C325.421 193.351 330.56 188.21 330.56 181.893C330.56 175.575 325.422 170.435 319.102 170.435ZM319.102 187.622C315.944 187.622 313.373 185.052 313.373 181.893C313.373 178.733 315.944 176.164 319.102 176.164C322.26 176.164 324.831 178.733 324.831 181.893C324.831 185.052 322.26 187.622 319.102 187.622Z" fill="#313951"/>
<path d="M350.62 173.299H349.426C348.76 170.938 347.82 168.674 346.617 166.529L347.465 165.682C350.813 162.335 350.811 156.886 347.459 153.536C345.831 151.908 343.675 151.012 341.384 151.012C341.381 151.012 341.378 151.012 341.378 151.012C339.087 151.013 336.933 151.908 335.313 153.53L334.465 154.377C332.323 153.176 330.057 152.236 327.696 151.57V150.376C327.696 145.642 323.841 141.791 319.102 141.791C314.364 141.791 310.509 145.642 310.509 150.376V151.57C308.148 152.236 305.882 153.176 303.74 154.377L302.892 153.531C299.543 150.184 294.094 150.187 290.746 153.537C289.117 155.166 288.22 157.327 288.222 159.618C288.222 161.907 289.117 164.061 290.74 165.681L291.585 166.529C290.385 168.675 289.445 170.94 288.779 173.3H287.585C282.852 173.3 279 177.155 279 181.893C279 186.632 282.852 190.487 287.585 190.487H288.779C289.445 192.846 290.385 195.112 291.585 197.258L290.74 198.104C287.391 201.451 287.394 206.9 290.746 210.25C292.374 211.879 294.53 212.775 296.821 212.775C296.824 212.775 296.824 212.775 296.827 212.775C299.115 212.773 301.269 211.879 302.892 210.257L303.74 209.409C305.882 210.61 308.148 211.55 310.509 212.216V213.41C310.509 218.145 314.364 221.995 319.102 221.995C323.841 221.995 327.696 218.145 327.696 213.41V212.216C330.057 211.55 332.323 210.61 334.465 209.409L335.313 210.255C338.662 213.604 344.111 213.598 347.459 210.249C349.088 208.62 349.985 206.459 349.983 204.168C349.983 201.879 349.088 199.725 347.465 198.103L346.617 197.257C347.82 195.112 348.76 192.847 349.426 190.486H350.62C355.353 190.486 359.205 186.631 359.205 181.893C359.205 177.154 355.353 173.299 350.62 173.299ZM350.62 184.757H347.173C345.811 184.757 344.636 185.717 344.365 187.052C343.71 190.292 342.446 193.338 340.611 196.107C339.858 197.243 340.012 198.751 340.975 199.714L343.414 202.155C343.957 202.694 344.253 203.411 344.253 204.17C344.256 204.93 343.954 205.651 343.408 206.198C342.292 207.313 340.479 207.319 339.363 206.202L336.924 203.764C335.959 202.802 334.449 202.652 333.319 203.403C330.55 205.235 327.503 206.498 324.264 207.156C322.927 207.425 321.967 208.6 321.967 209.963V213.409C321.967 215.01 320.708 216.265 319.102 216.265C317.522 216.265 316.238 214.984 316.238 213.409V209.963C316.238 208.601 315.278 207.426 313.941 207.156C310.702 206.498 307.656 205.235 304.887 203.403C304.406 203.083 303.854 202.926 303.306 202.926C302.568 202.926 301.835 203.212 301.281 203.764L298.842 206.203C298.299 206.745 297.583 207.044 296.826 207.044C296.823 207.044 296.823 207.044 296.823 207.044C296.062 207.044 295.343 206.745 294.798 206.198C293.682 205.082 293.679 203.266 294.792 202.152L297.228 199.713C298.19 198.75 298.342 197.243 297.592 196.108C295.76 193.338 294.495 190.29 293.841 187.052C293.569 185.717 292.394 184.757 291.032 184.757H287.586C286.011 184.757 284.73 183.472 284.73 181.893C284.73 180.314 286.011 179.028 287.586 179.028H291.031C292.394 179.028 293.569 178.069 293.84 176.733C294.495 173.495 295.759 170.448 297.591 167.677C298.341 166.543 298.19 165.035 297.227 164.073L294.791 161.631C294.248 161.091 293.952 160.375 293.952 159.616C293.949 158.855 294.251 158.135 294.797 157.588C295.91 156.472 297.723 156.465 298.841 157.584L301.28 160.021C302.246 160.985 303.756 161.136 304.886 160.382C307.655 158.55 310.702 157.287 313.941 156.63C315.278 156.36 316.237 155.185 316.237 153.822V150.377C316.237 148.775 317.496 147.521 319.102 147.521C320.682 147.521 321.966 148.802 321.966 150.377V153.822C321.966 155.185 322.926 156.36 324.263 156.63C327.502 157.287 330.548 158.55 333.317 160.382C334.447 161.136 335.958 160.985 336.923 160.021L339.365 157.581C339.905 157.039 340.621 156.741 341.379 156.741C341.379 156.741 341.379 156.741 341.382 156.741C342.142 156.741 342.861 157.041 343.407 157.588C344.522 158.704 344.525 160.52 343.412 161.632L340.973 164.072C340.011 165.035 339.858 166.543 340.61 167.679C342.444 170.448 343.709 173.494 344.363 176.733C344.635 178.069 345.81 179.028 347.172 179.028H350.618C352.193 179.028 353.474 180.314 353.474 181.893C353.474 183.472 352.195 184.757 350.62 184.757Z" fill="#313951"/>
<path d="M407.073 139.765C404.354 138.129 401.154 137.646 398.063 138.418C394.978 139.187 392.375 141.112 390.74 143.837C389.101 146.564 388.622 149.763 389.391 152.849C390.743 158.255 395.607 161.875 400.945 161.875C401.893 161.875 402.861 161.76 403.823 161.52C410.192 159.931 414.081 153.458 412.495 147.089C411.722 144.003 409.798 141.403 407.073 139.765ZM406.237 153.15C405.386 154.563 404.038 155.561 402.435 155.961C399.137 156.786 395.778 154.767 394.953 151.462C394.553 149.862 394.802 148.203 395.65 146.789C396.5 145.375 397.848 144.377 399.451 143.976C399.948 143.852 400.455 143.79 400.956 143.79C402.061 143.79 403.149 144.089 404.123 144.674C405.538 145.525 406.537 146.874 406.934 148.475C407.333 150.075 407.087 151.735 406.237 153.15Z" fill="#313951"/>
<path d="M435.267 150.575C440.02 149.388 442.921 144.554 441.735 139.798C440.549 135.041 435.712 132.14 430.962 133.321L429.636 133.653C428.33 131.35 426.757 129.227 424.934 127.303L425.641 126.127C426.861 124.095 427.216 121.706 426.643 119.402C426.066 117.098 424.629 115.157 422.595 113.936C420.55 112.705 418.167 112.343 415.856 112.922C413.56 113.496 411.621 114.933 410.396 116.968L409.691 118.144C407.138 117.439 404.525 117.047 401.881 116.974L401.549 115.643C400.363 110.895 395.537 107.986 390.773 109.179C386.017 110.365 383.109 115.196 384.294 119.948L384.625 121.278C382.325 122.582 380.202 124.155 378.278 125.977L377.102 125.271C375.069 124.049 372.683 123.688 370.375 124.269C368.073 124.844 366.129 126.281 364.906 128.316C363.678 130.361 363.32 132.754 363.897 135.055C364.47 137.351 365.907 139.29 367.944 140.514L369.119 141.219C368.412 143.771 368.02 146.385 367.95 149.03L366.619 149.363C364.319 149.936 362.378 151.373 361.155 153.409C359.933 155.444 359.578 157.835 360.151 160.138C361.337 164.894 366.177 167.801 370.924 166.616L372.253 166.285C373.556 168.586 375.129 170.709 376.952 172.633L376.245 173.809C375.025 175.841 374.67 178.23 375.243 180.534C375.82 182.838 377.257 184.779 379.291 186C381.336 187.23 383.722 187.591 386.03 187.014C388.326 186.44 390.265 185.003 391.49 182.965L392.195 181.791C394.748 182.496 397.361 182.888 400.007 182.961L400.338 184.29C400.911 186.592 402.348 188.532 404.385 189.755C405.784 190.595 407.353 191.026 408.945 191.026C409.666 191.026 410.394 190.936 411.112 190.757C413.425 190.181 415.372 188.743 416.592 186.71C417.811 184.679 418.164 182.291 417.59 179.989L417.257 178.66C419.56 177.355 421.683 175.781 423.607 173.959L424.784 174.667C426.815 175.888 429.201 176.239 431.509 175.667C433.812 175.09 435.753 173.653 436.973 171.62C438.204 169.577 438.565 167.183 437.988 164.88C437.414 162.584 435.977 160.645 433.941 159.421L432.765 158.717C433.473 156.165 433.865 153.551 433.935 150.905L435.267 150.575ZM430.361 145.893C429.04 146.222 428.131 147.437 428.193 148.799C428.347 152.298 427.832 155.748 426.658 159.053C426.201 160.337 426.714 161.765 427.883 162.468L430.994 164.335C431.718 164.771 432.23 165.458 432.432 166.271C432.636 167.087 432.508 167.938 432.065 168.671C431.631 169.395 430.941 169.907 430.121 170.111C429.299 170.318 428.457 170.192 427.735 169.757L424.624 167.889C423.46 167.191 421.961 167.406 421.038 168.41C418.666 171 415.86 173.076 412.704 174.579C411.473 175.165 410.827 176.536 411.154 177.858L412.032 181.377C412.237 182.197 412.11 183.044 411.68 183.763C411.246 184.483 410.553 184.994 409.725 185.201C408.911 185.408 408.058 185.279 407.333 184.844C406.611 184.41 406.099 183.723 405.895 182.906L405.02 179.388C404.698 178.108 403.548 177.218 402.239 177.218C402.197 177.218 402.155 177.219 402.113 177.22C398.619 177.38 395.164 176.857 391.855 175.685C390.577 175.23 389.145 175.741 388.442 176.912L386.576 180.02C386.142 180.744 385.455 181.256 384.64 181.459C383.829 181.666 382.976 181.534 382.24 181.093C381.515 180.657 381.006 179.968 380.799 179.148C380.595 178.33 380.721 177.483 381.154 176.762L383.023 173.653C383.724 172.485 383.507 170.985 382.503 170.065C379.913 167.693 377.837 164.889 376.329 161.729C375.745 160.499 374.388 159.855 373.051 160.182L369.537 161.06C367.806 161.488 366.136 160.471 365.711 158.752C365.504 157.933 365.632 157.082 366.066 156.359C366.499 155.635 367.187 155.126 368.004 154.922L371.523 154.044C372.844 153.714 373.752 152.499 373.691 151.139C373.537 147.639 374.052 144.19 375.226 140.887C375.682 139.602 375.17 138.174 374.001 137.471L370.89 135.603C370.165 135.167 369.654 134.48 369.449 133.666C369.245 132.85 369.376 131.999 369.816 131.268C370.25 130.543 370.94 130.032 371.763 129.827C372.582 129.622 373.43 129.751 374.149 130.182L377.26 132.05C378.429 132.753 379.926 132.534 380.846 131.529C383.218 128.939 386.024 126.863 389.18 125.359C390.411 124.774 391.06 123.402 390.727 122.08L389.851 118.563C389.428 116.876 390.466 115.161 392.159 114.738C393.848 114.313 395.569 115.347 395.989 117.032L396.864 120.549C397.195 121.871 398.428 122.751 399.77 122.718C403.275 122.56 406.722 123.082 410.025 124.254C411.306 124.711 412.733 124.198 413.438 123.03L415.307 119.919C415.74 119.194 416.428 118.683 417.242 118.48C418.059 118.277 418.912 118.407 419.643 118.846C420.367 119.282 420.876 119.971 421.083 120.791C421.288 121.608 421.161 122.456 420.728 123.177L418.86 126.286C418.158 127.454 418.376 128.954 419.38 129.874C421.97 132.246 424.046 135.05 425.553 138.21C426.141 139.441 427.506 140.086 428.832 139.757L432.348 138.88C434.065 138.459 435.744 139.463 436.172 141.186C436.594 142.877 435.565 144.596 433.878 145.017L430.361 145.893Z" fill="#313951"/>
<path d="M338.018 94.8524C333.492 91.5654 327.141 92.5751 323.86 97.0945C322.268 99.2844 321.625 101.965 322.047 104.637C322.47 107.311 323.911 109.662 326.101 111.253C327.897 112.556 329.978 113.184 332.045 113.184C335.181 113.184 338.278 111.735 340.258 109.009L340.261 109.008C343.542 104.486 342.538 98.1365 338.018 94.8524ZM335.626 105.641C334.2 107.605 331.439 108.047 329.469 106.617C328.515 105.925 327.889 104.904 327.707 103.741C327.522 102.579 327.802 101.414 328.493 100.462C329.355 99.2758 330.7 98.6463 332.065 98.6463C332.963 98.6463 333.87 98.9206 334.65 99.4871C336.613 100.914 337.053 103.675 335.626 105.641Z" fill="#313951"/>
<path d="M361.25 117.511C360.928 115.484 359.835 113.7 358.167 112.488L357.619 112.089C358.248 110.309 358.687 108.475 358.933 106.604L359.605 106.498C361.639 106.175 363.423 105.08 364.635 103.413C365.844 101.746 366.333 99.7082 366.009 97.6745C365.343 93.473 361.368 90.5957 357.195 91.2631L356.523 91.3691C355.709 89.6626 354.724 88.0542 353.575 86.5575L353.972 86.0104C355.184 84.3475 355.673 82.3109 355.348 80.2771C355.027 78.2405 353.931 76.4531 352.263 75.2436C350.588 74.0255 348.543 73.5278 346.523 73.8586C344.492 74.1801 342.708 75.2765 341.499 76.9429L341.099 77.4929C339.32 76.862 337.485 76.423 335.611 76.1781L335.505 75.5028C334.839 71.3078 330.865 68.434 326.685 69.1007C324.643 69.4251 322.853 70.5201 321.645 72.1858C320.436 73.8471 319.949 75.8838 320.274 77.9161L320.38 78.5893C318.673 79.4021 317.065 80.3867 315.568 81.5361L315.017 81.1365C311.584 78.6401 306.753 79.4078 304.252 82.8451C303.036 84.518 302.544 86.5589 302.867 88.5927C303.189 90.6207 304.285 92.4053 305.95 93.6155L306.502 94.0151C305.872 95.7925 305.43 97.625 305.187 99.4991L304.512 99.6051C300.319 100.27 297.446 104.228 298.109 108.429C298.775 112.629 302.746 115.505 306.923 114.84L307.597 114.733C308.409 116.438 309.393 118.046 310.543 119.543L310.143 120.095C307.648 123.531 308.417 128.361 311.855 130.86C315.298 133.359 320.124 132.596 322.622 129.161L323.022 128.609C324.8 129.24 326.636 129.681 328.507 129.925L328.616 130.596C328.935 132.629 330.031 134.415 331.699 135.626C333.028 136.592 334.597 137.098 336.211 137.098C336.616 137.098 337.028 137.066 337.436 137.001C341.635 136.337 344.511 132.383 343.848 128.186L343.742 127.513C345.448 126.7 347.057 125.715 348.553 124.567L349.102 124.965C350.763 126.174 352.797 126.658 354.834 126.341C356.87 126.018 358.658 124.923 359.866 123.257C361.082 121.585 361.574 119.544 361.25 117.511ZM352.441 115.41L354.799 117.122C355.227 117.436 355.51 117.893 355.593 118.41C355.674 118.93 355.546 119.455 355.23 119.89C354.919 120.319 354.46 120.6 353.935 120.684C353.417 120.758 352.891 120.64 352.469 120.332L350.111 118.619C349.014 117.82 347.498 117.903 346.491 118.826C344.471 120.678 342.138 122.105 339.559 123.071C338.283 123.548 337.522 124.857 337.735 126.201L338.191 129.081C338.362 130.176 337.637 131.171 336.54 131.344C336.006 131.429 335.488 131.301 335.064 130.992C334.636 130.681 334.356 130.224 334.272 129.701L333.813 126.819C333.6 125.475 332.47 124.466 331.11 124.408C328.36 124.287 325.703 123.65 323.208 122.513C322.825 122.338 322.419 122.254 322.019 122.254C321.127 122.254 320.254 122.674 319.703 123.435L317.989 125.794C317.337 126.691 316.125 126.881 315.222 126.227C314.339 125.585 314.14 124.344 314.778 123.463L316.492 121.105C317.295 120.003 317.208 118.49 316.288 117.485C314.43 115.46 313.001 113.128 312.041 110.556C311.566 109.278 310.248 108.521 308.911 108.726L306.027 109.184C304.923 109.367 303.938 108.631 303.767 107.536C303.597 106.455 304.332 105.436 305.407 105.266L308.29 104.81C309.636 104.597 310.646 103.466 310.704 102.104C310.822 99.3537 311.46 96.6962 312.598 94.2042C313.166 92.9653 312.78 91.498 311.678 90.6966L309.317 88.9808C308.886 88.6686 308.607 88.2117 308.523 87.694C308.442 87.1741 308.57 86.6491 308.884 86.2173C309.527 85.3308 310.775 85.1374 311.648 85.7726L314.009 87.487C315.111 88.2898 316.624 88.2031 317.629 87.28C319.651 85.4253 321.984 83.9974 324.558 83.0363C325.833 82.5594 326.6 81.2503 326.384 79.9048L325.928 77.0195C325.847 76.4982 325.97 75.9762 326.278 75.5522C326.589 75.1254 327.05 74.8447 327.578 74.7602C328.658 74.5783 329.674 75.3281 329.847 76.4008L330.303 79.2832C330.516 80.6288 331.646 81.6385 333.008 81.6972C335.755 81.8161 338.415 82.4527 340.91 83.5906C342.152 84.1585 343.615 83.7725 344.415 82.669L346.132 80.3079C346.443 79.8797 346.898 79.599 347.416 79.5159C347.945 79.4293 348.462 79.5617 348.896 79.8768C349.324 80.1891 349.606 80.6488 349.69 81.173C349.771 81.6929 349.645 82.2135 349.335 82.6418L347.623 85.0021C346.823 86.1042 346.91 87.6173 347.83 88.6206C349.685 90.6415 351.111 92.9732 352.077 95.5512C352.555 96.8294 353.886 97.595 355.207 97.378L358.088 96.9218C359.185 96.7313 360.178 97.4718 360.351 98.5725C360.432 99.0952 360.307 99.6187 359.996 100.048C359.685 100.474 359.23 100.755 358.709 100.838L355.828 101.294C354.482 101.507 353.472 102.639 353.414 104.001C353.296 106.743 352.658 109.404 351.517 111.904C350.953 113.144 351.339 114.61 352.441 115.41Z" fill="#313951"/>
</g>
<defs>
<clipPath id="clip0">
<rect width="163" height="163" fill="white" transform="translate(279 64)"/>
</clipPath>
</defs>
</svg>
