<svg width="720" height="280" viewBox="0 0 720 280" fill="none" xmlns="http://www.w3.org/2000/svg">
<rect width="720" height="280" fill="white"/>
<path d="M390.196 87.2441C389.859 85.5683 388.713 84.1818 387.131 83.5349L382.717 81.7305C380.308 80.7455 377.561 81.2981 375.72 83.1392L374.507 84.3525L370.819 80.6646C373.373 77.6039 373.217 73.0326 370.345 70.1607L369.787 69.6032C366.747 66.5629 361.799 66.5629 358.759 69.6032L331.192 97.1699C328.152 100.211 328.152 105.158 331.192 108.199L331.749 108.756C333.222 110.229 335.181 111.04 337.264 111.04C339.11 111.04 340.857 110.402 342.256 109.232L345.942 112.918L344.728 114.131C342.887 115.972 342.335 118.719 343.32 121.128L345.124 125.542C345.726 127.013 346.968 128.106 348.486 128.524L337.86 141.199C335.087 140.122 331.815 140.697 329.581 142.932C327.411 145.101 326.811 148.247 327.763 150.966L282.512 192.739C280.308 194.773 279.062 197.545 279.002 200.543C278.942 203.541 280.077 206.359 282.198 208.48C284.265 210.547 286.996 211.678 289.909 211.677C289.984 211.677 290.059 211.677 290.135 211.675C293.133 211.615 295.904 210.369 297.938 208.165L320.598 183.618C321.493 182.649 321.432 181.139 320.463 180.244C319.495 179.35 317.984 179.41 317.089 180.379L294.429 204.926C293.285 206.166 291.726 206.867 290.039 206.901C288.351 206.931 286.767 206.296 285.574 205.103C284.382 203.91 283.743 202.325 283.777 200.638C283.811 198.952 284.512 197.393 285.751 196.248L330.577 154.868L335.81 160.1L324.734 172.099C323.839 173.068 323.9 174.578 324.868 175.473C325.327 175.897 325.908 176.106 326.487 176.106C327.13 176.106 327.772 175.847 328.242 175.338L339.701 162.925C340.517 163.212 341.385 163.363 342.276 163.363C344.342 163.363 346.285 162.558 347.746 161.097C349.208 159.636 350.012 157.693 350.012 155.626C350.012 154.648 349.83 153.698 349.485 152.813L362.155 142.191C362.572 143.71 363.665 144.952 365.136 145.554L369.55 147.358C370.343 147.682 371.172 147.84 371.994 147.84C373.669 147.84 375.312 147.184 376.547 145.949L377.76 144.736L381.448 148.424C378.895 151.485 379.051 156.056 381.923 158.928L382.48 159.485C384 161.005 385.997 161.765 387.994 161.765C389.991 161.765 391.989 161.005 393.509 159.485L421.075 131.918C424.116 128.878 424.116 123.93 421.075 120.889L420.518 120.332C417.646 117.46 413.075 117.305 410.014 119.858L406.326 116.17L407.54 114.957C409.381 113.116 409.933 110.369 408.948 107.96L407.144 103.546C406.497 101.964 405.11 100.818 403.435 100.48C403.336 100.318 390.363 87.3431 390.196 87.2441V87.2441ZM351.971 131.801L358.877 138.707L346.594 149.005L341.673 144.083L351.971 131.801ZM415.003 122.824C415.811 122.824 416.57 123.139 417.141 123.709L417.698 124.267C418.876 125.445 418.876 127.363 417.698 128.542L390.131 156.108C388.952 157.287 387.035 157.287 385.856 156.108L385.299 155.551C384.12 154.372 384.12 152.455 385.299 151.276L412.865 123.709C413.436 123.139 414.196 122.824 415.003 122.824V122.824ZM406.612 123.21L384.799 145.022L381.137 141.36L402.949 119.548L406.612 123.21ZM404.162 111.581L373.17 142.573C372.693 143.05 371.981 143.194 371.357 142.938L366.943 141.134C366.904 141.118 366.785 141.069 366.752 140.902C366.718 140.735 366.809 140.644 366.838 140.615L402.203 105.249C402.229 105.224 402.298 105.155 402.42 105.155C402.442 105.155 402.466 105.157 402.491 105.163C402.658 105.196 402.707 105.315 402.723 105.354L404.527 109.768C404.782 110.392 404.639 111.104 404.162 111.581V111.581ZM398.478 102.223L363.812 136.889L353.789 126.866L388.455 92.2003L398.478 102.223ZM337.264 106.265C336.456 106.265 335.697 105.95 335.127 105.379C335.127 105.379 335.126 105.379 335.126 105.379L334.569 104.822C333.39 103.643 333.39 101.725 334.569 100.546L362.136 72.9801C362.725 72.3905 363.499 72.096 364.274 72.096C365.048 72.096 365.822 72.3908 366.411 72.9797L366.968 73.5372C367.539 74.108 367.854 74.8673 367.854 75.675C367.854 76.4826 367.539 77.2416 366.968 77.8127L339.402 105.379C338.831 105.95 338.072 106.265 337.264 106.265V106.265ZM348.105 117.508L365.15 100.463C366.082 99.5302 366.082 98.0183 365.15 97.0861C364.217 96.1537 362.705 96.1537 361.773 97.0861L349.318 109.541L345.656 105.879L367.468 84.0662L371.131 87.7286L369.741 89.1183C368.809 90.0507 368.809 91.5626 369.741 92.4948C370.673 93.4273 372.185 93.4273 373.118 92.4948L379.097 86.5154C379.574 86.0382 380.286 85.8946 380.91 86.1505L385.324 87.955C385.363 87.9709 385.482 88.0193 385.515 88.1864C385.549 88.3536 385.458 88.4443 385.429 88.4739L350.063 123.839C350.033 123.869 349.943 123.959 349.776 123.926C349.609 123.892 349.561 123.773 349.545 123.734L347.74 119.321C347.485 118.696 347.628 117.985 348.105 117.508V117.508ZM332.958 146.308C333.535 145.731 334.293 145.443 335.051 145.443C335.809 145.443 336.567 145.731 337.145 146.308L344.369 153.533C344.928 154.092 345.236 154.836 345.236 155.627C345.236 156.418 344.928 157.161 344.369 157.72C343.81 158.28 343.066 158.588 342.275 158.588C341.484 158.588 340.741 158.279 340.182 157.72L332.957 150.496C331.803 149.341 331.803 147.463 332.958 146.308V146.308Z" fill="#313951"/>
<path d="M437.711 196.104C435.043 190.278 429.773 186.13 423.658 184.788V181.966C423.658 178.749 421.041 176.131 417.823 176.131H376.916C375.598 176.131 374.529 177.2 374.529 178.519C374.529 179.838 375.598 180.907 376.916 180.907H417.823C418.408 180.907 418.883 181.382 418.883 181.966V184.321H357.945V181.966C357.945 181.382 358.42 180.907 359.004 180.907H365.648C366.967 180.907 368.036 179.838 368.036 178.519C368.036 177.2 366.967 176.131 365.648 176.131H359.004C355.787 176.131 353.17 178.749 353.17 181.966V184.788C347.056 186.13 341.785 190.278 339.117 196.104L335.769 203.412C334.938 205.227 335.086 207.314 336.164 208.994C337.242 210.674 339.078 211.677 341.075 211.677H435.753C437.749 211.677 439.585 210.674 440.663 208.994C441.742 207.314 441.889 205.227 441.058 203.412L437.711 196.104ZM436.645 206.414C436.528 206.596 436.257 206.901 435.753 206.901H341.075C340.571 206.901 340.3 206.596 340.183 206.414C340.066 206.232 339.902 205.858 340.112 205.401L343.459 198.092C345.962 192.627 351.463 189.096 357.474 189.096H419.355C425.366 189.096 430.867 192.627 433.369 198.092L436.717 205.401C436.926 205.858 436.762 206.232 436.645 206.414Z" fill="#313951"/>
<path d="M430.733 172.811C431.342 172.811 431.951 172.58 432.417 172.117L435.001 169.548C435.936 168.619 435.94 167.107 435.011 166.171C434.081 165.236 432.569 165.232 431.634 166.161L429.05 168.73C428.115 169.659 428.11 171.171 429.04 172.107C429.507 172.576 430.12 172.811 430.733 172.811V172.811Z" fill="#313951"/>
<path d="M421.776 160.928L420.88 164.502C420.559 165.781 421.336 167.077 422.615 167.398C422.81 167.447 423.005 167.471 423.198 167.471C424.267 167.471 425.24 166.748 425.512 165.664L426.408 162.09C426.729 160.811 425.952 159.514 424.673 159.194C423.395 158.872 422.097 159.649 421.776 160.928Z" fill="#313951"/>
<path d="M433.713 178.556C433.98 179.647 434.956 180.377 436.031 180.377C436.219 180.377 436.409 180.355 436.6 180.308L440.179 179.433C441.46 179.12 442.245 177.827 441.931 176.546C441.618 175.266 440.326 174.481 439.045 174.794L435.465 175.67C434.185 175.983 433.4 177.275 433.713 178.556V178.556Z" fill="#313951"/>
</svg>
