<svg width="720" height="280" viewBox="0 0 720 280" fill="none" xmlns="http://www.w3.org/2000/svg">
<rect width="720" height="280" fill="white"/>
<path d="M390.196 104.244C389.859 102.568 388.713 101.182 387.131 100.535L382.717 98.7305C380.308 97.7455 377.561 98.2981 375.72 100.139L374.507 101.352L370.819 97.6646C373.373 94.6039 373.217 90.0326 370.345 87.1607L369.787 86.6032C366.747 83.5629 361.799 83.5629 358.759 86.6032L331.192 114.17C328.152 117.211 328.152 122.158 331.192 125.199L331.749 125.756C333.222 127.229 335.181 128.04 337.264 128.04C339.11 128.04 340.857 127.402 342.256 126.232L345.942 129.918L344.728 131.131C342.887 132.972 342.335 135.719 343.32 138.128L345.124 142.542C345.726 144.013 346.968 145.106 348.486 145.524L337.86 158.199C335.087 157.122 331.815 157.697 329.581 159.932C327.411 162.101 326.811 165.247 327.763 167.966L282.512 209.739C280.308 211.773 279.062 214.545 279.002 217.543C278.942 220.541 280.077 223.359 282.198 225.48C284.265 227.547 286.996 228.678 289.909 228.677C289.984 228.677 290.059 228.677 290.135 228.675C293.133 228.615 295.904 227.369 297.938 225.165L320.598 200.618C321.493 199.649 321.432 198.139 320.463 197.244C319.495 196.35 317.984 196.41 317.089 197.379L294.429 221.926C293.285 223.166 291.726 223.867 290.039 223.901C288.351 223.931 286.767 223.296 285.574 222.103C284.382 220.91 283.743 219.325 283.777 217.638C283.811 215.952 284.512 214.393 285.751 213.248L330.577 171.868L335.81 177.1L324.734 189.099C323.839 190.068 323.9 191.578 324.868 192.473C325.327 192.897 325.908 193.106 326.487 193.106C327.13 193.106 327.772 192.847 328.242 192.338L339.701 179.925C340.517 180.212 341.385 180.363 342.276 180.363C344.342 180.363 346.285 179.558 347.746 178.097C349.208 176.636 350.012 174.693 350.012 172.626C350.012 171.648 349.83 170.698 349.485 169.813L362.155 159.191C362.572 160.71 363.665 161.952 365.136 162.554L369.55 164.358C370.343 164.682 371.172 164.84 371.994 164.84C373.669 164.84 375.312 164.184 376.547 162.949L377.76 161.736L381.448 165.424C378.895 168.485 379.051 173.056 381.923 175.928L382.48 176.485C384 178.005 385.997 178.765 387.994 178.765C389.991 178.765 391.989 178.005 393.509 176.485L421.075 148.918C424.116 145.878 424.116 140.93 421.075 137.889L420.518 137.332C417.646 134.46 413.075 134.305 410.014 136.858L406.326 133.17L407.54 131.957C409.381 130.116 409.933 127.369 408.948 124.96L407.144 120.546C406.497 118.964 405.11 117.818 403.435 117.48C403.336 117.318 390.363 104.343 390.196 104.244ZM351.971 148.801L358.877 155.707L346.594 166.005L341.673 161.083L351.971 148.801ZM415.003 139.824C415.811 139.824 416.57 140.139 417.141 140.709L417.698 141.267C418.876 142.445 418.876 144.363 417.698 145.542L390.131 173.108C388.952 174.287 387.035 174.287 385.856 173.108L385.299 172.551C384.12 171.372 384.12 169.455 385.299 168.276L412.865 140.709C413.436 140.139 414.196 139.824 415.003 139.824ZM406.612 140.21L384.799 162.022L381.137 158.36L402.949 136.548L406.612 140.21ZM404.162 128.581L373.17 159.573C372.693 160.05 371.981 160.194 371.357 159.938L366.943 158.134C366.904 158.118 366.785 158.069 366.752 157.902C366.718 157.735 366.809 157.644 366.838 157.615L402.203 122.249C402.229 122.224 402.298 122.155 402.42 122.155C402.442 122.155 402.466 122.157 402.491 122.163C402.658 122.196 402.707 122.315 402.723 122.354L404.527 126.768C404.782 127.392 404.639 128.104 404.162 128.581ZM398.478 119.223L363.812 153.889L353.789 143.866L388.455 109.2L398.478 119.223ZM337.264 123.265C336.456 123.265 335.697 122.95 335.127 122.379C335.127 122.379 335.126 122.379 335.126 122.379L334.569 121.822C333.39 120.643 333.39 118.725 334.569 117.546L362.136 89.9801C362.725 89.3905 363.499 89.096 364.274 89.096C365.048 89.096 365.822 89.3908 366.411 89.9797L366.968 90.5372C367.539 91.108 367.854 91.8673 367.854 92.675C367.854 93.4826 367.539 94.2416 366.968 94.8127L339.402 122.379C338.831 122.95 338.072 123.265 337.264 123.265ZM348.105 134.508L365.15 117.463C366.082 116.53 366.082 115.018 365.15 114.086C364.217 113.154 362.705 113.154 361.773 114.086L349.318 126.541L345.656 122.879L367.468 101.066L371.131 104.729L369.741 106.118C368.809 107.051 368.809 108.563 369.741 109.495C370.673 110.427 372.185 110.427 373.118 109.495L379.097 103.515C379.574 103.038 380.286 102.895 380.91 103.151L385.324 104.955C385.363 104.971 385.482 105.019 385.515 105.186C385.549 105.354 385.458 105.444 385.429 105.474L350.063 140.839C350.033 140.869 349.943 140.959 349.776 140.926C349.609 140.892 349.561 140.773 349.545 140.734L347.74 136.321C347.485 135.696 347.628 134.985 348.105 134.508ZM332.958 163.308C333.535 162.731 334.293 162.443 335.051 162.443C335.809 162.443 336.567 162.731 337.145 163.308L344.369 170.533C344.928 171.092 345.236 171.836 345.236 172.627C345.236 173.418 344.928 174.161 344.369 174.72C343.81 175.28 343.066 175.588 342.275 175.588C341.484 175.588 340.741 175.279 340.182 174.72L332.957 167.496C331.803 166.341 331.803 164.463 332.958 163.308Z" fill="#313951"/>
<path d="M437.711 213.104C435.043 207.277 429.773 203.13 423.658 201.788V198.966C423.658 195.749 421.041 193.131 417.823 193.131H376.916C375.598 193.131 374.529 194.2 374.529 195.519C374.529 196.838 375.598 197.907 376.916 197.907H417.823C418.408 197.907 418.883 198.382 418.883 198.966V201.321H357.945V198.966C357.945 198.382 358.42 197.907 359.004 197.907H365.648C366.967 197.907 368.036 196.838 368.036 195.519C368.036 194.2 366.967 193.131 365.648 193.131H359.004C355.787 193.131 353.17 195.749 353.17 198.966V201.788C347.056 203.13 341.785 207.277 339.117 213.104L335.769 220.412C334.938 222.227 335.086 224.313 336.164 225.993C337.242 227.673 339.078 228.677 341.075 228.677H435.753C437.749 228.677 439.585 227.674 440.663 225.993C441.742 224.313 441.889 222.227 441.058 220.412L437.711 213.104ZM436.645 223.414C436.528 223.596 436.257 223.901 435.753 223.901H341.075C340.571 223.901 340.3 223.596 340.183 223.414C340.066 223.232 339.902 222.858 340.112 222.4L343.459 215.092C345.962 209.627 351.463 206.096 357.474 206.096H419.355C425.366 206.096 430.867 209.627 433.369 215.092L436.717 222.4C436.926 222.858 436.762 223.232 436.645 223.414Z" fill="#313951"/>
<path d="M430.733 189.811C431.342 189.811 431.951 189.58 432.417 189.117L435.001 186.548C435.936 185.619 435.94 184.107 435.011 183.171C434.081 182.236 432.569 182.232 431.634 183.161L429.05 185.73C428.115 186.659 428.11 188.171 429.04 189.107C429.507 189.576 430.12 189.811 430.733 189.811Z" fill="#313951"/>
<path d="M421.776 177.928L420.88 181.502C420.559 182.781 421.336 184.077 422.615 184.398C422.81 184.447 423.005 184.471 423.198 184.471C424.267 184.471 425.24 183.748 425.512 182.664L426.408 179.09C426.729 177.811 425.952 176.514 424.673 176.194C423.395 175.872 422.097 176.649 421.776 177.928Z" fill="#313951"/>
<path d="M433.713 195.557C433.98 196.647 434.956 197.378 436.031 197.378C436.219 197.378 436.409 197.355 436.6 197.308L440.179 196.433C441.46 196.12 442.245 194.827 441.931 193.546C441.618 192.266 440.326 191.481 439.045 191.794L435.465 192.67C434.185 192.983 433.4 194.275 433.713 195.557Z" fill="#313951"/>
</svg>
