<svg width="720" height="280" viewBox="0 0 720 280" fill="none" xmlns="http://www.w3.org/2000/svg">
<rect width="720" height="280" fill="white"/>
<path d="M369.864 202.447H353.252C352.388 202.447 351.558 202.79 350.947 203.401C350.336 204.013 349.992 204.842 349.992 205.707C349.992 206.571 350.336 207.4 350.947 208.012C351.558 208.623 352.388 208.967 353.252 208.967H369.864C370.728 208.967 371.558 208.623 372.169 208.012C372.78 207.4 373.124 206.571 373.124 205.707C373.124 204.842 372.78 204.013 372.169 203.401C371.558 202.79 370.728 202.447 369.864 202.447Z" fill="#313951"/>
<path d="M426.575 111.16C420.002 111.16 414.32 113 410.144 116.479C409.759 116.8 409.366 117.156 408.971 117.544V67.476C408.964 65.23 408.069 63.0779 406.481 61.4898C404.893 59.9016 402.741 59.0065 400.495 59H322.255C320.009 59.0065 317.857 59.9016 316.269 61.4898C314.68 63.0779 313.785 65.23 313.779 67.476V76.1476L313.375 75.7437C310.807 73.1758 307.324 71.7332 303.693 71.7332C300.061 71.7332 296.578 73.1758 294.01 75.7437C291.443 78.3116 290 81.7944 290 85.4259C290 89.0574 291.443 92.5402 294.01 95.1081L308.118 109.215C305.835 109.881 303.764 111.13 302.11 112.839C300.456 114.549 299.275 116.659 298.685 118.963C298.094 121.267 298.113 123.685 298.741 125.979C299.368 128.273 300.582 130.364 302.263 132.047L310.288 140.072C307.74 140.382 305.331 141.402 303.335 143.016C301.339 144.629 299.837 146.772 299 149.198C298.163 151.625 298.025 154.238 298.602 156.739C299.179 159.24 300.448 161.528 302.263 163.343L307.679 168.76C305.131 169.07 302.722 170.09 300.726 171.704C298.73 173.318 297.228 175.46 296.391 177.887C295.554 180.313 295.417 182.926 295.994 185.427C296.571 187.928 297.839 190.216 299.655 192.031L313.779 206.156V213.524C313.781 215.771 314.675 217.926 316.264 219.515C317.853 221.104 320.008 221.998 322.255 222H384.847C385.711 222 386.541 221.657 387.152 221.045C387.763 220.434 388.107 219.605 388.107 218.74V187.444C388.113 184.712 388.753 182.019 389.974 179.576C391.196 177.132 392.967 175.005 395.148 173.361L407.667 163.972C408.07 163.667 408.397 163.272 408.623 162.82C408.849 162.368 408.968 161.87 408.971 161.364V135.284C408.971 122.3 416.896 118.679 423.315 117.876V218.74C423.315 219.605 423.658 220.434 424.27 221.045C424.881 221.657 425.71 222 426.575 222C427.439 222 428.269 221.657 428.88 221.045C429.491 220.434 429.835 219.605 429.835 218.74V114.42C429.835 113.555 429.491 112.726 428.88 112.115C428.269 111.503 427.439 111.16 426.575 111.16V111.16ZM322.255 65.52H400.495C401.013 65.5205 401.511 65.7268 401.877 66.0935C402.244 66.4602 402.45 66.9574 402.451 67.476V77.2417H320.299V67.476C320.299 66.9574 320.506 66.4602 320.872 66.0935C321.239 65.7268 321.736 65.5205 322.255 65.52ZM296.519 85.4256C296.454 79.1103 304.346 75.8461 308.765 80.3533L313.779 85.3679V105.656L298.62 90.4975C297.952 89.833 297.422 89.0426 297.061 88.172C296.701 87.3014 296.516 86.3679 296.519 85.4256V85.4256ZM306.873 117.294C309.543 114.512 314.346 114.512 317.016 117.294L331.769 132.047C338.247 139.005 328.557 148.671 321.626 142.19L306.873 127.437C305.53 126.091 304.776 124.267 304.776 122.365C304.776 120.464 305.53 118.64 306.873 117.294V117.294ZM336.379 127.437L332.836 123.893C333.51 117.412 336.42 111.367 341.066 106.798C345.713 102.229 351.805 99.4202 358.297 98.8543C364.788 98.2884 371.275 100.001 376.641 103.697C382.008 107.393 385.92 112.843 387.706 119.11C389.491 125.377 389.039 132.07 386.427 138.04C383.814 144.01 379.204 148.884 373.389 151.824C367.574 154.765 360.916 155.589 354.56 154.155C348.203 152.721 342.544 149.118 338.555 143.965C340.058 141.354 340.66 138.32 340.266 135.332C339.873 132.345 338.507 129.57 336.379 127.437V127.437ZM306.873 148.59C309.543 145.808 314.346 145.808 317.016 148.59L331.769 163.343C338.247 170.301 328.557 179.967 321.626 173.486L306.873 158.733C305.53 157.387 304.776 155.563 304.776 153.661C304.776 151.76 305.53 149.936 306.873 148.59V148.59ZM304.265 177.278C306.935 174.496 311.738 174.496 314.408 177.278L329.161 192.031C335.639 198.989 325.949 208.655 319.018 202.174L304.265 187.421C302.922 186.075 302.168 184.251 302.168 182.349C302.168 180.448 302.922 178.624 304.265 177.278V177.278ZM320.299 213.524V210.264C321.531 210.617 322.807 210.797 324.089 210.796C325.986 210.797 327.862 210.403 329.598 209.64C331.334 208.877 332.893 207.762 334.175 206.364C335.457 204.967 336.434 203.318 337.045 201.522C337.656 199.727 337.886 197.824 337.723 195.935H381.587V215.48H322.255C321.736 215.479 321.239 215.273 320.872 214.907C320.506 214.54 320.299 214.043 320.299 213.524ZM391.236 168.145C388.247 170.398 385.82 173.313 384.146 176.661C382.472 180.01 381.596 183.7 381.587 187.444V189.413H335.416C334.932 188.699 334.381 188.032 333.771 187.421L328.354 182.004C330.902 181.694 333.312 180.674 335.308 179.06C337.304 177.446 338.806 175.304 339.642 172.877C340.479 170.451 340.617 167.838 340.04 165.337C339.463 162.836 338.194 160.548 336.379 158.733L328.354 150.708C330.36 150.469 332.287 149.785 333.994 148.705C338.921 154.712 345.729 158.883 353.319 160.543C360.908 162.204 368.836 161.258 375.821 157.858C382.806 154.458 388.442 148.803 391.817 141.805C395.193 134.808 396.111 126.877 394.423 119.293C392.736 111.71 388.541 104.917 382.517 100.011C376.493 95.1048 368.991 92.3728 361.223 92.2558C353.455 92.1388 345.874 94.6437 339.705 99.3659C333.536 104.088 329.139 110.752 327.224 118.281C327.224 118.281 320.761 111.877 320.299 111.519V83.7617H402.451V159.734L391.236 168.145Z" fill="#313951"/>
<path d="M357.789 130.068H363.331C364.556 130.111 365.716 130.628 366.568 131.51C367.419 132.391 367.895 133.569 367.895 134.795C367.895 136.02 367.419 137.198 366.568 138.08C365.716 138.962 364.556 139.479 363.331 139.522H355.113C353.974 139.548 353.157 138.442 353.324 137.355C353.339 136.49 353.011 135.655 352.41 135.033C351.81 134.41 350.987 134.052 350.122 134.037C349.258 134.021 348.422 134.35 347.8 134.95C347.178 135.551 346.819 136.374 346.804 137.238L346.798 137.576C346.778 138.681 346.978 139.778 347.387 140.804C347.796 141.831 348.405 142.765 349.18 143.553C349.954 144.341 350.877 144.967 351.896 145.395C352.915 145.822 354.008 146.042 355.113 146.042H357.463V147.998C357.463 148.862 357.807 149.692 358.418 150.303C359.029 150.914 359.859 151.258 360.723 151.258C361.588 151.258 362.417 150.914 363.028 150.303C363.64 149.692 363.983 148.862 363.983 147.998V146.021C366.875 145.811 369.573 144.492 371.516 142.34C373.459 140.189 374.497 137.37 374.413 134.473C374.329 131.575 373.13 128.821 371.065 126.786C369 124.75 366.23 123.591 363.331 123.548H357.789C356.579 123.548 355.418 123.067 354.562 122.211C353.706 121.355 353.225 120.194 353.225 118.984C353.225 117.773 353.706 116.613 354.562 115.757C355.418 114.901 356.579 114.42 357.789 114.42H365.878C367.026 114.516 367.623 115.14 367.671 116.292C367.652 116.72 367.718 117.147 367.865 117.549C368.012 117.952 368.236 118.321 368.525 118.637C369.11 119.274 369.924 119.652 370.787 119.69C371.651 119.727 372.494 119.419 373.132 118.835C373.769 118.25 374.148 117.437 374.185 116.573C374.233 115.452 374.054 114.333 373.658 113.283C373.262 112.233 372.658 111.274 371.882 110.463C371.106 109.653 370.174 109.008 369.142 108.568C368.11 108.127 367 107.9 365.878 107.9H363.983V105.944C363.983 105.079 363.64 104.25 363.028 103.639C362.417 103.027 361.588 102.684 360.723 102.684C359.859 102.684 359.029 103.027 358.418 103.639C357.807 104.25 357.463 105.079 357.463 105.944V107.908C354.554 107.994 351.796 109.222 349.784 111.325C347.772 113.428 346.668 116.238 346.711 119.148C346.754 122.059 347.94 124.835 350.013 126.878C352.085 128.921 354.879 130.067 357.789 130.068V130.068Z" fill="#313951"/>
</svg>
