<svg width="40" height="40" viewBox="0 0 40 40" fill="none" xmlns="http://www.w3.org/2000/svg">
<circle cx="20" cy="20" r="20" fill="#4D4CBB"/>
<g clip-path="url(#clip0)">
<path d="M10.9678 26.6873C13.1612 28.1108 17.7434 28.0596 19.6839 26.2494C20.1012 25.8605 19.7951 24.2349 19.7951 23.7494C19.7951 22.2443 19.7951 20.7391 19.7951 19.234C19.7951 17.9445 15.5629 18.6053 14.7144 18.6053C14.6741 18.6053 14.6312 18.6115 14.5872 18.6228C14.5185 18.6404 14.3809 18.6766 14.2827 18.7133C14.216 18.7381 14.1591 18.7702 14.1203 18.8095C13.58 19.3493 13.6224 20.7733 13.8111 21.4775C13.8628 21.6704 14.1317 21.8539 14.3334 21.8539C16.0665 21.8539 16.3711 24.2101 14.6793 24.1563C11.4673 24.054 11.8437 18.6347 12.8701 16.7625C13.9957 14.7088 16.0272 16.1782 17.6214 16.1694C17.9068 16.1679 18.1451 16.1089 18.1591 16.1141C18.1679 16.1172 18.1762 16.1198 18.1844 16.1224C18.2036 16.1281 18.2222 16.1296 18.2398 16.1281C18.2708 16.1255 18.2698 16.1084 18.2377 16.1022C18.2056 16.096 18.2186 16.0805 18.2661 16.0671C18.2946 16.0588 18.3225 16.0505 18.3504 16.0381C18.854 15.8209 19.4719 13.5495 19.1793 13.2036C18.5112 12.4156 16.8215 12.4327 15.9057 12.3526C12.9275 12.0909 10.1575 13.0899 8.8561 15.9104C7.33749 19.2025 7.72218 24.5819 10.9678 26.6873ZM9.21856 18.6642C9.24028 18.3793 9.43469 17.99 9.641 17.7925C9.67461 17.7604 9.70874 17.7278 9.74235 17.6958C9.94866 17.4988 10.1451 17.2253 10.1839 17.0857C10.2222 16.9455 10.0971 16.9993 9.89592 17.2025C9.82042 17.279 9.74442 17.3556 9.66892 17.4321C9.46779 17.6353 9.3075 17.7785 9.31008 17.7532C9.31215 17.7377 9.3137 17.7216 9.31577 17.7061C9.38506 17.1999 9.50346 16.7165 9.66996 16.262C9.7682 15.9936 10.0298 15.6198 10.2305 15.4156C10.7832 14.8525 11.3349 14.2931 11.8835 13.7372C12.0846 13.534 12.4574 13.2719 12.7289 13.1819C12.9528 13.108 13.1875 13.048 13.4337 13.004C13.6234 12.9704 13.8158 12.9456 14.0107 12.9286C14.2951 12.9037 14.4373 12.9048 14.3271 12.912C14.217 12.9192 14.0252 13.032 13.898 13.1597C13.7708 13.2879 13.7992 13.3525 13.9626 13.3132C14.126 13.2734 14.3385 13.17 14.4337 13.0733C14.5293 12.9772 14.8385 12.8944 15.1239 12.9063C15.2997 12.9136 15.475 12.9255 15.6503 12.941C15.9352 12.9673 16.1405 13.0227 16.112 13.0501C16.0836 13.0785 16.2625 13.1023 16.5102 13.1106C16.7579 13.1204 17.0459 13.1493 17.1544 13.1711C17.2201 13.1845 17.2853 13.1985 17.3499 13.2129C18.4047 13.4487 18.1958 13.7295 17.9652 14.7015C17.7087 15.7832 18.187 15.4957 17.1177 15.2786C16.4404 15.1405 15.6886 15.1131 15.0004 15.1762C14.1865 15.2512 13.2377 15.4156 12.6058 15.9905C10.7889 17.6436 10.2987 22.5266 12.4967 24.1077C13.549 24.8647 15.262 25.1299 16.1927 24.3332C16.4099 24.1481 16.6968 23.7841 16.9047 23.5886C16.9435 23.5519 16.9823 23.5147 17.0216 23.478C17.2289 23.282 17.3975 23.1165 17.3975 23.1067C17.3975 23.0974 17.2325 23.252 17.0278 23.4516C16.988 23.4909 16.9481 23.5297 16.9078 23.5695C16.7036 23.7691 16.6296 23.7882 16.7015 23.5943C16.7429 23.4831 16.776 23.3637 16.8003 23.2344C16.9047 22.6719 16.8127 21.6207 16.1627 21.4154C16.0236 21.372 15.8654 21.3565 15.7067 21.3451C15.4523 21.3291 15.2837 21.2712 15.3271 21.2303C15.3716 21.1895 15.4068 21.114 15.4068 21.0623C15.4068 21.0106 15.339 21.0364 15.2553 21.1202C15.172 21.204 14.9652 21.2407 14.8794 21.1114C14.8349 21.0442 14.8101 20.9579 14.8101 20.8426C14.8101 20.721 14.7935 20.5468 14.777 20.3519C14.7537 20.0815 14.8897 19.7128 15.0671 19.5292C15.2444 19.3467 15.6198 19.1988 15.9052 19.1988C16.1565 19.1988 16.4083 19.1988 16.6596 19.1988C16.9456 19.1988 17.1369 19.2387 17.0877 19.2878C17.0381 19.3369 17.0676 19.3772 17.1534 19.3772C17.2392 19.3772 17.352 19.3369 17.4047 19.2878C17.4574 19.2387 17.5133 19.1983 17.5298 19.1983C17.5397 19.1983 17.549 19.1983 17.5593 19.1983C17.7527 19.1983 17.915 19.1932 18.0526 19.188C18.3251 19.1792 18.5029 19.2418 18.4512 19.2893C18.3995 19.3374 18.443 19.3767 18.5484 19.3767C18.6539 19.3767 18.7832 19.5504 18.7894 19.7697C18.7925 19.8803 18.793 20.0122 18.793 20.1673C18.793 21.5519 18.793 22.9361 18.793 24.3213C18.793 24.8626 18.793 25.4045 18.793 25.9464C18.793 26.9505 15.7429 27.0006 14.9745 26.9887C12.8726 26.9562 11.4523 26.146 10.5417 24.9092C10.3726 24.6801 10.2754 24.4598 10.3018 24.4366C10.3277 24.4123 10.2951 24.2613 10.2387 24.0969C10.1824 23.9325 10.1172 23.8228 10.0862 23.8533C10.0676 23.8725 10.049 23.8911 10.0304 23.9087C10.021 23.919 10.0117 23.9288 10.0024 23.9387C9.98744 23.9552 9.87575 23.7634 9.77596 23.5002C9.6772 23.2375 9.67461 22.9557 9.75269 22.8787C9.83077 22.8011 9.89126 22.722 9.88816 22.7024C9.88506 22.6827 9.83542 22.7122 9.77751 22.766C9.7196 22.8203 9.65341 22.8823 9.63066 22.9051C9.60843 22.9278 9.55362 22.8275 9.51225 22.6791C9.47141 22.5312 9.52363 22.3301 9.62291 22.2324C9.72218 22.1341 9.78785 21.9118 9.77441 21.7345C9.76096 21.5576 9.65807 21.5116 9.54121 21.6326C9.42384 21.7531 9.29767 21.6688 9.26768 21.4444C9.23769 21.22 9.33645 20.918 9.47761 20.7722C9.61877 20.6264 9.73407 20.2769 9.74545 19.992C9.74855 19.9227 9.75165 19.8545 9.75476 19.7872C9.76975 19.5024 9.65238 19.4082 9.48123 19.5768C9.3106 19.7459 9.16996 19.6518 9.17927 19.3659C9.18754 19.1316 9.20047 18.8979 9.21856 18.6642Z" fill="white"/>
<path d="M24.423 14.9978C24.2844 12.4068 20.2425 12.7765 20.1132 15.1943C20.0533 16.3137 20.8014 16.9016 21.6908 17.0195C21.9736 17.0562 22.2668 17.0479 22.3433 17.0557C22.3883 17.0613 22.4343 17.0644 22.4819 17.0644C22.4938 17.0644 22.5072 17.0629 22.5186 17.0613C22.5393 17.0577 22.5377 17.0463 22.5171 17.0303C22.4959 17.0148 22.7094 16.9709 22.9788 16.8742C23.7435 16.5991 24.3738 15.9864 24.4235 15.0681C24.424 15.0609 24.4219 15.0557 24.4193 15.0505C24.4147 15.0412 24.4152 15.0257 24.4193 15.0164C24.4214 15.0097 24.423 15.004 24.423 14.9978ZM21.1494 15.3142C21.1386 15.2692 21.1287 15.2243 21.1215 15.1793C21.1039 15.0707 21.1034 14.96 21.1163 14.8499C21.1391 14.6679 21.3459 14.3753 21.5321 14.1855C21.7172 13.9957 21.7684 13.881 21.6562 13.9502C21.5445 14.0195 21.6039 13.913 21.8495 13.8168C21.9912 13.7615 22.1489 13.7414 22.3175 13.7688C22.3868 13.7796 22.4514 13.7987 22.5129 13.8225C22.6174 13.8634 22.5331 14.0774 22.3325 14.2812C22.0708 14.5474 21.8087 14.8127 21.5471 15.079C21.3485 15.2827 21.1686 15.3892 21.1494 15.3142ZM23.3195 15.7351C23.1567 16.2092 22.8009 16.5898 22.2208 16.4941C22.1556 16.4833 22.0941 16.4662 22.0352 16.444C21.9359 16.4062 21.8666 16.3561 21.8733 16.3504C21.88 16.3442 21.8464 16.2635 21.8102 16.1648C21.7751 16.066 21.7182 16.0195 21.6711 16.0655C21.6246 16.111 21.4685 16.0298 21.3656 15.8535C21.2627 15.6777 21.3552 15.3882 21.5331 15.2248C21.711 15.0624 21.9442 14.7103 22.1344 14.4978C22.2079 14.4156 22.2896 14.3406 22.378 14.2744C22.606 14.1033 23.0269 14.1741 23.1732 14.4192C23.2301 14.5159 23.2782 14.6193 23.3154 14.7263C23.4105 14.9952 23.4121 15.4647 23.3195 15.7351Z" fill="white"/>
<path d="M31.4683 24.5498C30.7185 24.4542 29.6906 24.2913 29.6906 23.3642C29.6906 22.9004 29.5071 20.294 30.1994 20.294C30.6348 20.294 31.2304 20.3865 31.5769 20.0375C32.0634 19.5458 31.8302 18.6958 31.8302 18.0427C31.8302 17.3835 31.4745 17.2889 30.9967 17.2899C30.7108 17.2904 30.2459 17.2496 30.0184 17.0764C29.2056 16.4543 30.2066 15.3199 29.4947 14.6814C29.1456 14.3691 27.8473 14.6204 27.4383 14.6204C25.7806 14.6204 25.747 14.9373 25.747 16.5697C25.747 17.4124 25.2227 17.5262 24.7346 17.7894C24.4838 17.9259 24.3121 17.9088 24.2392 17.6973C24.1865 17.5433 24.11 17.4316 23.9998 17.385C23.3132 17.095 21.9311 17.2904 21.1865 17.3566C20.537 17.414 20.2475 17.6798 20.2475 18.2925C20.2475 19.7464 20.2475 21.2019 20.2475 22.6564C20.2475 23.9273 19.8742 25.8823 20.355 27.0746C20.5805 27.6335 23.2687 27.2375 23.8488 27.0317C24.686 26.7354 24.2403 24.526 24.2403 23.8327C24.2403 22.6316 24.2403 21.4305 24.2403 20.2288C24.2403 20.2019 24.2413 20.1709 24.2434 20.1347C24.2465 20.083 24.415 20.2092 24.6653 20.3457C25.2465 20.6637 25.748 20.6182 25.748 21.812C25.748 23.4258 25.5107 25.0974 26.4698 26.4836C27.4073 27.8393 30.1146 27.6894 31.4285 27.1734C32.1472 26.8921 32.2196 24.6465 31.4683 24.5498ZM22.4145 26.8125C22.3095 26.8125 22.2134 26.8078 22.1265 26.8C21.9683 26.7845 21.8437 26.7318 21.8437 26.7065C21.8437 26.6811 21.8276 26.6775 21.8085 26.6971C21.7889 26.7168 21.6472 26.7023 21.5215 26.6118C21.3964 26.5219 21.4502 26.2913 21.5903 26.1496C21.7304 26.009 21.8437 25.8802 21.8437 25.8642C21.8437 25.8476 21.7268 25.9567 21.5831 26.1082C21.4398 26.2592 21.2294 26.1718 21.217 25.8947C21.2041 25.6175 21.3628 25.2432 21.5339 25.0607C21.7051 24.8776 21.8437 24.4981 21.8437 24.2117C21.8437 24.1336 21.8437 24.0535 21.8437 23.9738C21.8437 23.6884 21.7097 23.5923 21.5448 23.7582C21.3804 23.9252 21.2459 23.8296 21.2459 23.5431C21.2459 23.144 21.2459 22.7433 21.2459 22.3436C21.2459 22.0576 21.3804 21.689 21.5448 21.5204C21.7097 21.3519 21.8437 21.1363 21.8437 21.0385C21.8437 20.9413 21.7097 20.9848 21.5448 21.1352C21.3804 21.2857 21.2459 21.1766 21.2459 20.8901C21.2459 20.6626 21.2459 20.4341 21.2459 20.2066C21.2459 19.9207 21.3804 19.5623 21.5448 19.4057C21.7097 19.249 21.8437 19.096 21.8437 19.0629C21.8437 19.0303 21.7092 19.1353 21.5443 19.2961C21.3793 19.4574 21.2459 19.3571 21.2459 19.0711C21.2459 18.7216 21.2459 18.3716 21.2459 18.0226C21.2459 17.9688 21.247 17.9243 21.248 17.8866C21.2501 17.8111 21.4383 17.7516 21.673 17.7516C21.8142 17.7516 21.9564 17.7516 22.0981 17.7516C22.2873 17.7516 22.4466 17.7465 22.58 17.7465C22.8468 17.7465 23.0029 17.87 22.946 17.9264C22.8892 17.9817 22.8768 18.0267 22.9197 18.0267C22.9626 18.0267 23.0267 17.9983 23.0639 17.9626C23.1006 17.9279 23.2066 18.0339 23.2258 18.2196C23.2361 18.3137 23.2397 18.4248 23.2397 18.5582C23.2397 20.4051 23.2397 22.2521 23.2397 24.0984C23.2413 25.1372 23.7309 26.8125 22.4145 26.8125ZM29.2154 26.982C28.5148 26.9247 28.0009 26.6718 27.6291 26.2918C27.4285 26.0875 27.3514 25.845 27.4021 25.7954C27.4533 25.7453 27.4771 25.6408 27.4574 25.5607C27.4378 25.4805 27.3721 25.4697 27.3059 25.5379C27.2387 25.6062 27.0779 25.4552 26.9884 25.1837C26.9347 25.0224 26.8912 24.8528 26.8556 24.6791C26.7992 24.3989 26.9047 24.038 27.0603 23.8771C27.2165 23.7158 27.3437 23.3585 27.3437 23.0778C27.3437 22.7975 27.2103 22.7045 27.0469 22.8699C26.883 23.0354 26.7584 22.9852 26.7733 22.7572C26.7863 22.5297 26.9202 22.2221 27.0712 22.0695C27.2222 21.9175 27.3437 21.7412 27.3437 21.6761C27.3437 21.6357 27.3437 21.5959 27.3437 21.5577C27.3437 21.5458 27.3426 21.5334 27.3416 21.5215C27.34 21.5013 27.2211 21.6104 27.0748 21.765C26.929 21.9191 26.823 21.8126 26.8126 21.5271C26.8116 21.4987 26.8101 21.4708 26.808 21.4429C26.7935 21.1575 26.8018 20.8695 26.8716 20.7945C26.9419 20.7195 26.9383 20.6021 26.8463 20.5623C26.7909 20.538 26.7315 20.5241 26.6699 20.5241C26.6601 20.5241 26.6498 20.5241 26.6405 20.5241C26.6244 20.5241 26.5221 20.2976 26.3054 20.112C26.0789 19.9186 25.7573 19.8043 25.3023 19.8043C25.0422 19.8043 25.0179 18.1513 25.5986 18.0091C25.8742 17.9409 26.2547 17.7413 26.3938 17.5024C26.4373 17.4274 26.475 17.3545 26.5086 17.2821C26.5645 17.157 26.7661 16.9037 26.9714 16.7222C27.1767 16.5397 27.3432 16.3546 27.3432 16.308C27.3432 16.2605 27.187 16.3732 26.9947 16.5593C26.8023 16.7454 26.7056 16.6793 26.7299 16.4037C26.7542 16.1281 26.914 15.7424 27.1208 15.5449C27.2594 15.4125 27.3959 15.2817 27.5288 15.154C27.5334 15.1493 27.5386 15.1441 27.5438 15.139C27.5526 15.1307 27.5143 15.1245 27.461 15.1245C27.4073 15.1245 27.2247 15.2584 27.0546 15.4233C26.8845 15.5878 26.747 15.715 26.747 15.7077C26.747 15.6995 26.8747 15.5671 27.0319 15.4104C27.1885 15.2538 27.1839 15.2429 27.0277 15.3923C26.8711 15.5423 26.7465 15.6126 26.7459 15.549C26.7454 15.5118 26.7454 15.4735 26.7454 15.4337C26.7454 15.3665 26.7377 15.3096 26.7258 15.2615C26.702 15.169 26.8809 15.1085 27.1663 15.1085C27.4419 15.1085 27.717 15.1085 27.9931 15.1085C28.0779 15.1085 28.1544 15.1116 28.2201 15.1178C28.3452 15.1291 28.4021 15.1989 28.3499 15.2491C28.2976 15.2998 28.3183 15.3406 28.3964 15.3406C28.4745 15.3406 28.5577 15.3225 28.582 15.3008C28.6069 15.2786 28.7485 15.4657 28.732 15.7512C28.7206 15.9497 28.6901 16.1963 28.6901 16.4947C28.6906 17.2703 29.0681 17.5732 29.7501 17.7708C29.7951 17.7868 29.8576 17.7966 29.9491 17.7966C31.1772 17.7966 30.8307 18.5479 30.8307 19.5582C30.8307 19.6187 30.8411 19.6683 30.8556 19.7071C30.8871 19.7852 30.8716 19.8142 30.779 19.809C30.7309 19.8064 30.6751 19.8048 30.6089 19.8048C30.4362 19.8048 30.2671 19.795 30.0996 19.8447C28.4305 20.3297 28.6917 21.5623 28.6917 23.1254C28.6917 23.5886 28.5443 24.478 29.0665 24.7629C29.3375 24.9113 30.8669 25.0902 30.8669 25.2711C30.8649 26.6992 30.9502 27.1242 29.2154 26.982Z" fill="white"/>
</g>
<defs>
<clipPath id="clip0">
<rect width="24" height="24" fill="white" transform="translate(8 8)"/>
</clipPath>
</defs>
</svg>
