<svg width="720" height="280" viewBox="0 0 720 280" fill="none" xmlns="http://www.w3.org/2000/svg">
<rect width="720" height="280" fill="white"/>
<path d="M430.939 107.297C422.328 107.297 414.234 103.945 408.144 97.8556L406.344 96.055L404.543 97.8556C402.228 100.171 399.62 102.083 396.808 103.573C397.465 96.8445 395.171 90.1233 390.242 85.1951C383.817 78.7693 374.393 76.798 366.057 79.9103C362.364 71.8138 354.309 66.5469 345.219 66.5469C336.129 66.5469 328.073 71.8138 324.38 79.9103C316.047 76.7955 306.626 78.7668 300.195 85.1951C293.769 91.6209 291.798 101.044 294.91 109.38C286.814 113.073 281.547 121.129 281.547 130.219C281.547 139.309 286.814 147.364 294.91 151.057C291.798 159.393 293.769 168.817 300.195 175.242C304.596 179.643 310.403 181.9 316.302 181.92L305.915 214.813L326.492 211.874L341.317 226.699L345.219 214.011L349.123 226.699L363.948 211.874L384.525 214.813L374.136 181.918C380.035 181.897 385.841 179.643 390.242 175.242C393.164 172.321 395.219 168.674 396.233 164.716C399.197 166.265 402.366 167.505 405.727 168.343L406.344 168.498L406.963 168.343C426.092 163.565 439.453 146.453 439.453 126.732V107.297H430.939ZM338.936 217.113L330.304 208.484L334.901 194.695L330.07 193.083L325.473 206.872L313.21 208.624L321.849 181.271C322.699 181.059 323.547 180.838 324.38 180.527C327.164 186.629 332.428 191.117 338.742 192.961L342.555 205.352L338.936 217.113ZM364.965 206.875L360.368 193.086L355.536 194.698L360.133 208.487L351.502 217.116L344.335 193.83C344.633 193.837 344.921 193.891 345.219 193.891C354.309 193.891 362.364 188.624 366.057 180.527C366.89 180.838 367.738 181.059 368.589 181.271L377.228 208.624L364.965 206.875ZM386.641 171.641C381.117 177.163 372.75 178.462 365.82 174.858L363.131 173.462L362.217 176.35C359.863 183.795 353.03 188.797 345.219 188.797C337.407 188.797 330.574 183.795 328.221 176.348L327.307 173.46L324.617 174.855C317.687 178.462 309.321 177.16 303.796 171.639C298.272 166.114 296.981 157.745 300.58 150.815L301.978 148.126L299.087 147.212C291.643 144.863 286.641 138.033 286.641 130.219C286.641 122.407 291.643 115.574 299.087 113.221L301.978 112.307L300.58 109.617C296.981 102.687 298.275 94.3205 303.796 88.7964C309.321 83.2748 317.692 81.986 324.617 85.5797L327.307 86.9779L328.221 84.0872C330.574 76.6427 337.407 71.6406 345.219 71.6406C353.03 71.6406 359.863 76.6427 362.217 84.0872L363.131 86.9779L365.82 85.5797C372.75 81.9809 381.117 83.2722 386.641 88.7964C391.154 93.312 392.84 99.7581 391.248 105.876C388.266 106.79 385.131 107.271 381.924 107.287C374.037 94.6975 360.123 86.9219 345.219 86.9219C321.344 86.9219 301.922 106.344 301.922 130.219C301.922 154.093 321.344 173.516 345.219 173.516C360.495 173.516 374.266 165.692 382.108 152.863C384.762 156.319 387.953 159.35 391.564 161.871C390.968 165.549 389.295 168.985 386.641 171.641V171.641ZM330.579 119.153C330.162 117.869 329.938 116.524 329.938 115.149C329.938 108.01 335.744 102.203 342.883 102.203H347.557C354.693 102.203 360.5 108.01 360.5 115.149C360.5 116.445 360.301 117.716 359.929 118.931C358.959 116.529 356.815 114.713 354.115 114.265L349.141 113.435C346.342 112.969 344.047 111.005 343.148 108.316L342.542 106.495L337.711 108.104L338.317 109.928C338.564 110.669 338.874 111.374 339.241 112.042L336.343 113.203C333.59 114.298 331.55 116.489 330.579 119.153V119.153ZM335.031 122.657C335.031 120.561 336.289 118.704 338.233 117.928L342.779 116.109C344.376 117.298 346.258 118.119 348.3 118.457L353.275 119.288C354.51 119.494 355.406 120.551 355.406 121.799V125.12C355.406 130.738 350.837 135.31 345.219 135.313C339.6 135.31 335.031 130.738 335.031 125.12V122.657ZM353.463 145.612L355.74 145.938L352.355 151.582L349.217 148.444L353.463 145.612ZM345.214 140.406H345.224C346.581 140.406 347.893 140.21 349.149 139.874L349.829 141.914L345.219 144.986L340.609 141.911L341.289 139.871C342.545 140.21 343.856 140.406 345.214 140.406V140.406ZM336.975 145.612L341.22 148.444L338.082 151.582L334.698 145.938L336.975 145.612ZM329.319 146.87L337.071 159.796L345.219 151.648L353.366 159.796L361.119 146.87C365.222 148.223 368.141 152.109 368.141 156.546V160.819C361.674 165.674 353.713 168.422 345.219 168.422C336.613 168.422 328.69 165.529 322.297 160.71V156.546C322.297 152.109 325.216 148.223 329.319 146.87V146.87ZM373.206 156.25C373.059 148.824 367.494 142.472 360.113 141.417L354.777 140.656L353.809 137.752C356.878 135.659 359.132 132.47 360.044 128.762L362.334 125.494C364.465 122.446 365.594 118.87 365.594 115.149C365.594 105.201 357.502 97.1094 347.554 97.1094H342.881C332.935 97.1094 324.844 105.201 324.844 115.149C324.844 118.87 325.972 122.446 328.106 125.494L330.393 128.762C331.305 132.473 333.559 135.659 336.628 137.752L335.66 140.656L330.325 141.417C322.979 142.467 317.44 148.765 317.241 156.146C310.917 149.325 307.016 140.231 307.016 130.219C307.016 109.154 324.154 92.0156 345.219 92.0156C357.273 92.0156 368.599 97.7792 375.766 107.297H373.234V126.732C373.234 134.459 375.31 141.771 378.955 148.113C377.365 151.111 375.435 153.838 373.206 156.25V156.25ZM434.359 126.732C434.359 143.898 422.87 158.823 406.344 163.244C389.817 158.823 378.328 143.898 378.328 126.732V112.391H381.749C390.892 112.391 399.533 109.126 406.344 103.145C413.152 109.126 421.793 112.391 430.939 112.391H434.359V126.732Z" fill="#30374E"/>
<path d="M401.25 141.899L392.863 133.512L389.262 137.113L401.25 149.101L428.519 121.832L424.918 118.231L401.25 141.899Z" fill="#30374E"/>
</svg>
