<svg width="720" height="280" viewBox="0 0 720 280" fill="none" xmlns="http://www.w3.org/2000/svg">
<rect width="720" height="280" fill="white"/>
<g clip-path="url(#clip0)">
<path d="M330.79 121.546C330.355 120.693 329.505 120.133 328.551 120.071L305.698 118.547C304.514 118.43 303.419 119.164 302.987 120.266L286.511 162.371C286.069 163.502 286.43 164.787 287.397 165.523C287.881 165.892 288.462 166.077 289.04 166.077C289.614 166.077 290.187 165.898 290.67 165.534L304.345 155.279L312.307 156.871C313.606 157.129 314.904 156.417 315.377 155.176C319.653 143.976 324.8 133.561 330.67 124.225C331.178 123.415 331.225 122.396 330.79 121.546ZM311.133 151.095L304.217 149.713C303.462 149.563 302.674 149.743 302.055 150.204L295.049 155.458L307.32 124.099L323.722 125.191C318.995 133.191 314.774 141.878 311.133 151.095Z" fill="#313951"/>
<path d="M381.454 194.306L379.93 171.45C379.864 170.493 379.305 169.643 378.452 169.209C377.601 168.774 376.583 168.817 375.773 169.328C366.434 175.198 356.022 180.346 344.822 184.621C343.584 185.091 342.866 186.39 343.127 187.691L344.719 195.653L334.465 209.325C333.736 210.297 333.739 211.634 334.475 212.601C335 213.291 335.806 213.674 336.638 213.674C336.969 213.674 337.303 213.612 337.629 213.492L379.734 197.017C380.837 196.585 381.532 195.488 381.454 194.306ZM344.54 204.947L349.793 197.941C350.255 197.324 350.434 196.537 350.282 195.779L348.899 188.865C358.119 185.225 366.803 181.004 374.803 176.277L375.898 192.676L344.54 204.947Z" fill="#313951"/>
<path d="M357.777 139.501H339.473C338.487 139.501 337.58 140.037 337.099 140.898L314.126 182.177C313.528 183.253 313.729 184.6 314.615 185.453C315.134 185.953 315.815 186.214 316.5 186.214C316.984 186.214 317.47 186.086 317.904 185.82L359.184 160.839C359.996 160.348 360.493 159.468 360.493 158.517V142.218C360.493 140.718 359.276 139.501 357.777 139.501ZM355.061 156.987L323.851 175.875L341.068 144.937V144.934H355.061V156.987Z" fill="#313951"/>
<path d="M441.863 60.6182C441.752 59.2954 440.703 58.2467 439.38 58.1353C438.478 58.0646 349.023 51.8194 310.302 153.236C309.919 154.238 310.161 155.368 310.919 156.126L323.836 169.043C324.442 169.649 325.289 169.926 326.139 169.812C326.984 169.69 327.723 169.179 328.136 168.432L341.077 144.935H355.062V157.02L331.423 171.944C330.725 172.387 330.266 173.12 330.174 173.941C330.081 174.761 330.369 175.579 330.953 176.163L343.87 189.08C344.389 189.599 345.082 189.876 345.791 189.876C346.117 189.876 346.445 189.819 346.76 189.696C448.182 150.973 441.939 61.5175 441.863 60.6182ZM427.613 108.814C418.08 132.398 396.267 164.461 346.461 183.989L337.198 174.726L359.228 160.818C360.016 160.318 360.494 159.451 360.494 158.519V142.221C360.494 140.721 359.277 139.504 357.778 139.504H339.469C338.477 139.504 337.567 140.045 337.089 140.911L325.117 162.648L316.009 153.537C350 66.8226 422.454 63.2749 436.539 63.4732C436.639 69.8082 436.058 87.916 427.613 108.814Z" fill="#313951"/>
<path d="M325.533 177.98C324.943 177.198 324.003 176.818 323.082 176.915C323.178 175.992 322.797 175.055 322.018 174.465C317.921 171.368 312.635 170.339 307.509 171.637C302.068 173.02 297.618 176.73 295.304 181.824L279.245 217.157C278.775 218.189 278.995 219.403 279.796 220.202C280.315 220.723 281.01 220.998 281.717 220.998C282.097 220.998 282.48 220.916 282.841 220.753L318.174 204.691C323.265 202.379 326.976 197.93 328.358 192.489C329.659 187.368 328.63 182.079 325.533 177.98ZM323.094 191.152C322.121 194.985 319.508 198.117 315.928 199.747L287.188 212.811L300.251 184.068C301.878 180.488 305.013 177.874 308.846 176.902C309.854 176.647 310.867 176.522 311.866 176.522C313.559 176.522 315.213 176.883 316.721 177.586L314.135 182.164C313.534 183.226 313.716 184.56 314.58 185.421C315.444 186.287 316.778 186.467 317.837 185.866L322.415 183.277C323.528 185.673 323.781 188.441 323.094 191.152Z" fill="#313951"/>
<path d="M441.863 60.621C441.751 59.2983 440.703 58.2496 439.38 58.1382C438.32 58.0538 413.139 56.1469 383.524 69.7891C382.717 70.1584 382.144 70.9027 381.986 71.7775C381.829 72.6524 382.111 73.5485 382.739 74.176L425.822 117.259C426.335 117.773 427.028 118.055 427.743 118.055C427.903 118.055 428.063 118.041 428.223 118.014C429.098 117.857 429.84 117.284 430.212 116.477C443.857 86.8619 441.95 61.6777 441.863 60.621ZM426.862 110.612L389.386 73.1356C411.066 63.9838 430.051 63.3535 436.541 63.4624C436.65 69.9575 436.038 88.8831 426.862 110.612Z" fill="#313951"/>
<path d="M398.97 101.028C389.834 91.8929 374.973 91.8929 365.837 101.028C356.701 110.164 356.701 125.025 365.837 134.161C370.404 138.73 376.404 141.012 382.402 141.012C388.403 141.012 394.401 138.728 398.97 134.161C408.105 125.025 408.105 110.164 398.97 101.028ZM395.129 130.32C388.112 137.336 376.695 137.336 369.678 130.32C362.662 123.303 362.662 111.886 369.678 104.869C373.185 101.362 377.795 99.6076 382.402 99.6076C387.01 99.6076 391.619 101.362 395.129 104.869C402.145 111.886 402.145 123.303 395.129 130.32Z" fill="#313951"/>
<path d="M387.803 122.996C384.825 125.979 379.979 125.976 376.999 122.996C374.022 120.017 374.022 115.173 376.999 112.193C379.976 109.216 384.823 109.213 387.803 112.193C388.862 113.255 390.585 113.255 391.644 112.193C392.706 111.131 392.706 109.414 391.644 108.352C386.55 103.256 378.254 103.256 373.158 108.352C368.062 113.448 368.062 121.741 373.158 126.837C375.706 129.386 379.056 130.66 382.402 130.66C385.752 130.66 389.098 129.386 391.644 126.837C392.706 125.775 392.706 124.058 391.644 122.996C390.584 121.934 388.862 121.934 387.803 122.996Z" fill="#313951"/>
</g>
<defs>
<clipPath id="clip0">
<rect width="163" height="163" fill="white" transform="translate(279 58)"/>
</clipPath>
</defs>
</svg>
