 <svg width="40" height="40" viewBox="0 0 40 40" fill="none" xmlns="http://www.w3.org/2000/svg">
<circle cx="20" cy="20" r="20" fill="#4D4CBB"/>
<path d="M26.375 16.625V15.875C26.9953 15.875 27.5 15.3703 27.5 14.75C27.5 14.1297 26.9953 13.625 26.375 13.625H25.625C25.418 13.625 25.25 13.457 25.25 13.25C25.25 13.043 25.418 12.875 25.625 12.875H26.75V13.25H27.5V12.125H26.375V11.375H25.625V12.125C25.0047 12.125 24.5 12.6297 24.5 13.25C24.5 13.8703 25.0047 14.375 25.625 14.375H26.375C26.582 14.375 26.75 14.543 26.75 14.75C26.75 14.957 26.582 15.125 26.375 15.125H25.25V14.75H24.5V15.875H25.625V16.625H26.375Z" fill="white"/>
<path d="M30.125 14C30.125 11.7256 28.2744 9.875 26 9.875C23.7256 9.875 21.875 11.7256 21.875 14C21.875 16.2744 23.7256 18.125 26 18.125C28.2744 18.125 30.125 16.2744 30.125 14ZM22.625 14C22.625 12.1389 24.1389 10.625 26 10.625C27.8611 10.625 29.375 12.1389 29.375 14C29.375 15.8611 27.8611 17.375 26 17.375C24.1389 17.375 22.625 15.8611 22.625 14Z" fill="white"/>
<path d="M31.625 14C31.625 10.8984 29.1016 8.375 26 8.375C22.8984 8.375 20.375 10.8984 20.375 14C20.375 16.388 21.8731 18.428 23.9772 19.2425L23.2197 20H20.2048L17.5797 23H13.0861L8.47475 27.9954L9.02562 28.5043L13.4142 23.75H17.9206L20.5456 20.75H23.5306L24.7902 19.4904C25.1337 19.5661 25.4889 19.6081 25.8526 19.6175L23.9697 21.5H20.5625L18.3125 24.5H13.8297L8.375 30.734V31.625H30.125V17.8115C31.0527 16.808 31.625 15.4711 31.625 14V14ZM21.125 14C21.125 11.312 23.312 9.125 26 9.125C28.688 9.125 30.875 11.312 30.875 14C30.875 16.688 28.688 18.875 26 18.875C23.312 18.875 21.125 16.688 21.125 14ZM27.125 19.5117V30.875H25.625V20.9053L26.9994 19.5309C27.041 19.5234 27.0838 19.52 27.125 19.5117V19.5117ZM24.2803 22.25L24.875 21.6553V30.875H23.375V22.25H24.2803ZM13.625 30.875H12.125V27.5874L13.625 25.8732V30.875ZM14.375 25.25H15.875V30.875H14.375V25.25ZM16.625 25.25H18.125V30.875H16.625V25.25ZM18.875 24.9999L20.375 23V30.875H18.875V24.9999ZM21.125 22.25H22.625V30.875H21.125V22.25ZM11.375 28.4446V30.875H9.24837L11.375 28.4446ZM27.875 30.875V19.2969C28.4184 19.1038 28.9228 18.8304 29.375 18.4895V30.875H27.875Z" fill="white"/>
<path d="M10.625 22.25H11.375V20.75H12.125V16.25H11.375V14.75H10.625V16.25H9.875V20.75H10.625V22.25ZM10.625 17H11.375V20H10.625V17Z" fill="white"/>
<path d="M13.625 20.375H14.375V18.875H15.125V15.125H14.375V13.625H13.625V15.125H12.875V18.875H13.625V20.375ZM13.625 15.875H14.375V18.125H13.625V15.875Z" fill="white"/>
<path d="M16.625 17.75H17.375V16.25H18.125V13.25H17.375V11.75H16.625V13.25H15.875V16.25H16.625V17.75ZM16.625 14H17.375V15.5H16.625V14Z" fill="white"/>
</svg>
